<?xml version="1.0" standalone="no"?>
<!DOCTYPE svg PUBLIC "-//W3C//DTD SVG 1.1//EN" "http://www.w3.org/Graphics/SVG/1.1/DTD/svg11.dtd" >
<svg xmlns="http://www.w3.org/2000/svg" xmlns:xlink="http://www.w3.org/1999/xlink" version="1.1">
<metadata>
Created by FontForge 20201107 at Wed Mar 24 08:22:39 2021
 By Unknown
Copyright (c) 2021 by Fontfabric. All rights reserved.
</metadata>
<defs>
<font id="CodeNext-ExtraBold" horiz-adv-x="750" >
  <font-face 
    font-family="Code Next ExtraBold"
    font-weight="800"
    font-stretch="normal"
    units-per-em="1000"
    panose-1="0 0 9 0 0 0 0 0 0 0"
    ascent="800"
    descent="-200"
    x-height="530"
    cap-height="700"
    bbox="-530 -301 2066 976"
    underline-thickness="50"
    underline-position="-100"
    unicode-range="U+000D-FB02"
  />
<missing-glyph horiz-adv-x="590" 
d="M558 0h-527v700h527v-700zM215 580l79 -118l80 118h-159zM368 349l65 -95v193zM156 446v-193l64 97zM294 237l-79 -117h158z" />
    <glyph glyph-name="f_f" unicode="ff" horiz-adv-x="798" 
d="M673.5 586q-18.5 -15 -18.5 -49v-11h120v-143h-115v-383h-178v383h-196v-383h-177v383h-87v144h87v17q0 83 54 126t151 43q40 0 90 -8v-122q-32 4 -47 4q-39 0 -57.5 -15t-18.5 -48v-4h201v37q0 84 55 127t152 43q41 0 91 -8v-122q-21 4 -48 4q-40 0 -58.5 -15z" />
    <glyph glyph-name="f_f_i" unicode="ffi" horiz-adv-x="1099" 
d="M870 595.5q-28 26.5 -28 69.5q0 44 28 70t75 26q46 0 74 -26t28 -70q0 -43 -28 -69.5t-74 -26.5q-47 0 -75 26.5zM1033 528v-528h-177v384h-196v-384h-178v384h-196v-384h-177v384h-87v145h87v15q0 83 54 126t151 43q40 0 90 -8v-122q-32 4 -47 4q-39 0 -57.5 -15
t-18.5 -48v-2h201v35q0 84 55 127t152 43q41 0 91 -8v-122q-21 4 -48 4q-40 0 -58.5 -15t-18.5 -49v-9h378z" />
    <glyph glyph-name="f_f_l" unicode="ffl" horiz-adv-x="1103" 
d="M673.5 586q-18.5 -15 -18.5 -49v-11h120v-143h-115v-383h-178v383h-196v-383h-177v383h-87v144h87v17q0 83 54 126t151 43q40 0 90 -8v-122q-32 4 -47 4q-39 0 -57.5 -15t-18.5 -48v-4h201v37q0 84 55 127t152 43q41 0 91 -8v-122q-21 4 -48 4q-40 0 -58.5 -15zM1040 0
h-178v700h178v-700z" />
    <glyph glyph-name="fi" unicode="fi" horiz-adv-x="726" 
d="M496 586.5q-28 26.5 -28 69.5t28.5 69.5t74.5 26.5t74 -26.5t28 -69.5q0 -44 -28 -70t-74 -26q-47 0 -75 26.5zM660 520v-520h-178v378h-196v-378h-177v375h-87v145h87v23q0 84 55 127t151 43q46 0 90 -8v-122q-23 4 -47 4q-40 0 -58.5 -14t-18.5 -45v-8h379z" />
    <glyph glyph-name="fl" unicode="fl" horiz-adv-x="729" 
d="M299.5 571.5q-18.5 -15.5 -18.5 -48.5v-4h120v-143h-115v-376h-177v376h-87v146h87v21q0 85 54.5 127.5t151.5 42.5q39 0 92 -8v-122q-21 4 -49 4q-40 0 -58.5 -15.5zM666 0h-178v700h178v-700z" />
    <glyph glyph-name=".notdef" horiz-adv-x="590" 
d="M558 0h-527v700h527v-700zM215 580l79 -118l80 118h-159zM368 349l65 -95v193zM156 446v-193l64 97zM294 237l-79 -117h158z" />
    <glyph glyph-name="nonmarkingreturn" unicode="&#xd;" horiz-adv-x="266" 
 />
    <glyph glyph-name="space" unicode=" " horiz-adv-x="266" 
 />
    <glyph glyph-name="A" unicode="A" horiz-adv-x="696" 
d="M261 700h173l255 -679v-21h-195l-33 108h-226l-35 -108h-193v21zM279 257h138l-69 198z" />
    <glyph glyph-name="Aacute" unicode="&#xc1;" horiz-adv-x="696" 
d="M261 700h173l255 -679v-21h-195l-33 108h-226l-35 -108h-193v21zM279 257h138l-69 198zM416 758h-149v8l88 142h181v-9z" />
    <glyph glyph-name="Abreve" unicode="&#x102;" horiz-adv-x="696" 
d="M261 700h173l255 -679v-21h-195l-33 108h-226l-35 -108h-193v21zM279 257h138l-69 198zM207.5 791.5q-51.5 42.5 -51.5 118.5h126q0 -26 18 -40t49 -14t48.5 14t17.5 40h126q0 -76 -51.5 -118.5t-140.5 -42.5q-90 0 -141.5 42.5z" />
    <glyph glyph-name="Acircumflex" unicode="&#xc2;" horiz-adv-x="696" 
d="M261 700h173l255 -679v-21h-195l-33 108h-226l-35 -108h-193v21zM279 257h138l-69 198zM266 908h164l131 -134v-16h-146l-67 64l-67 -64h-146v16z" />
    <glyph glyph-name="Adieresis" unicode="&#xc4;" horiz-adv-x="696" 
d="M261 700h173l255 -679v-21h-195l-33 108h-226l-35 -108h-193v21zM279 257h138l-69 198zM166.5 771q-24.5 24 -24.5 62t24.5 61.5t64.5 23.5t64.5 -23.5t24.5 -61.5t-24.5 -62t-64.5 -24t-64.5 24zM400.5 771q-24.5 24 -24.5 62t24.5 61.5t64.5 23.5t64.5 -23.5
t24.5 -61.5t-24.5 -62t-64.5 -24t-64.5 24z" />
    <glyph glyph-name="Agrave" unicode="&#xc0;" horiz-adv-x="696" 
d="M261 700h173l255 -679v-21h-195l-33 108h-226l-35 -108h-193v21zM279 257h138l-69 198zM430 766v-8h-149l-118 141v9h180z" />
    <glyph glyph-name="Amacron" unicode="&#x100;" horiz-adv-x="696" 
d="M261 700h173l255 -679v-21h-195l-33 108h-226l-35 -108h-193v21zM279 257h138l-69 198zM523 771h-349v120h349v-120z" />
    <glyph glyph-name="Aogonek" unicode="&#x104;" horiz-adv-x="696" 
d="M692 -94v-116q-54 -15 -99 -15q-62 0 -97 24.5t-35 69.5q0 33 18 65t60 66h-45l-33 108h-226l-35 -108h-193v21l254 679h173l255 -679v-21q-36 -25 -51.5 -43.5t-15.5 -33.5q1 -24 29 -24q15 0 41 7zM279 257h138l-69 198z" />
    <glyph glyph-name="Aring" unicode="&#xc5;" horiz-adv-x="696" 
d="M261 700h173l255 -679v-21h-195l-33 108h-226l-35 -108h-193v21zM279 257h138l-69 198zM251.5 762q-37.5 34 -37.5 90q0 55 37.5 89.5t97.5 34.5t97.5 -34.5t37.5 -89.5q0 -56 -37.5 -90t-97.5 -34t-97.5 34zM382.5 818q13.5 13 13.5 34t-13 33.5t-34 12.5t-34 -12.5
t-13 -33.5t13 -34t34 -13q20 0 33.5 13z" />
    <glyph glyph-name="Atilde" unicode="&#xc3;" horiz-adv-x="696" 
d="M261 700h173l255 -679v-21h-195l-33 108h-226l-35 -108h-193v21zM279 257h138l-69 198zM393.5 762.5q-18.5 5.5 -38.5 16.5q-6 3 -18.5 9.5t-22.5 10t-18 3.5q-17 0 -24.5 -10t-7.5 -32h-110q0 74 29.5 112.5t85.5 38.5q24 0 42.5 -6.5t38.5 -18.5q20 -11 30 -15.5
t23 -4.5q16 0 23 10t7 33h110q0 -75 -27.5 -113.5t-80.5 -38.5q-23 0 -41.5 5.5z" />
    <glyph glyph-name="AE" unicode="&#xc6;" horiz-adv-x="958" 
d="M634 270v-103h280v-167h-466v109h-183l-55 -109h-204v21l379 679h521v-164h-272v-104h251v-162h-251zM448 475l-111 -217h111v217z" />
    <glyph glyph-name="AEacute" unicode="&#x1fc;" horiz-adv-x="958" 
d="M634 270v-103h280v-167h-466v109h-183l-55 -109h-204v21l379 679h521v-164h-272v-104h251v-162h-251zM448 475l-111 -217h111v217zM602 758h-149v8l88 142h181v-9z" />
    <glyph glyph-name="B" unicode="B" horiz-adv-x="635" 
d="M584.5 298.5q24.5 -44.5 24.5 -97.5q0 -60 -28.5 -105.5t-81 -70.5t-122.5 -25h-309v700h304q61 0 108.5 -23.5t74 -67t26.5 -99.5q0 -43 -17 -79.5t-48 -61.5q44 -26 68.5 -70.5zM247 546v-112h95q29 0 45 14.5t16 40.5q0 27 -16 42t-45 15h-95zM361 161q29 0 45.5 17
t16.5 46t-16.5 46t-45.5 17h-114v-126h114z" />
    <glyph glyph-name="C" unicode="C" horiz-adv-x="778" 
d="M208 33.5q-82 46.5 -128.5 129.5t-46.5 187t46.5 187t128.5 129.5t186 46.5q91 0 166 -36t124.5 -102t64.5 -153h-190q-17 51 -60.5 81t-100.5 30q-49 0 -88.5 -23.5t-61.5 -65t-22 -94.5t22 -94.5t61.5 -65t88.5 -23.5q59 0 103.5 32t60.5 86h189q-14 -89 -63.5 -156.5
t-125 -104.5t-168.5 -37q-104 0 -186 46.5z" />
    <glyph glyph-name="Cacute" unicode="&#x106;" horiz-adv-x="778" 
d="M208 33.5q-82 46.5 -128.5 129.5t-46.5 187t46.5 187t128.5 129.5t186 46.5q91 0 166 -36t124.5 -102t64.5 -153h-190q-17 51 -60.5 81t-100.5 30q-49 0 -88.5 -23.5t-61.5 -65t-22 -94.5t22 -94.5t61.5 -65t88.5 -23.5q59 0 103.5 32t60.5 86h189q-14 -89 -63.5 -156.5
t-125 -104.5t-168.5 -37q-104 0 -186 46.5zM466 758h-149v8l88 142h181v-9z" />
    <glyph glyph-name="Ccaron" unicode="&#x10c;" horiz-adv-x="778" 
d="M208 33.5q-82 46.5 -128.5 129.5t-46.5 187t46.5 187t128.5 129.5t186 46.5q91 0 166 -36t124.5 -102t64.5 -153h-190q-17 51 -60.5 81t-100.5 30q-49 0 -88.5 -23.5t-61.5 -65t-22 -94.5t22 -94.5t61.5 -65t88.5 -23.5q59 0 103.5 32t60.5 86h189q-14 -89 -63.5 -156.5
t-125 -104.5t-168.5 -37q-104 0 -186 46.5zM398 844l68 64h145v-16l-131 -134h-163l-132 134v16h146z" />
    <glyph glyph-name="Ccedilla" unicode="&#xc7;" horiz-adv-x="778" 
d="M751 285q-20 -124 -104.5 -203.5t-209.5 -92.5l-15 -30q48 -4 75 -25.5t27 -58.5q0 -98 -148 -98q-55 0 -107 12v91q41 -10 80 -10q27 0 39.5 5t12.5 15q0 21 -38 21q-11 0 -35 -4l-17 21l29 62q-90 12 -159.5 61t-108.5 126.5t-39 172.5q0 104 46.5 187t128.5 129.5
t186 46.5q91 0 166 -36t124.5 -102t64.5 -153h-190q-17 51 -60.5 81t-100.5 30q-49 0 -88.5 -23.5t-61.5 -65t-22 -94.5t22 -94.5t61.5 -65t88.5 -23.5q59 0 103.5 32t60.5 86h189z" />
    <glyph glyph-name="Ccircumflex" unicode="&#x108;" horiz-adv-x="778" 
d="M208 33.5q-82 46.5 -128.5 129.5t-46.5 187t46.5 187t128.5 129.5t186 46.5q91 0 166 -36t124.5 -102t64.5 -153h-190q-17 51 -60.5 81t-100.5 30q-49 0 -88.5 -23.5t-61.5 -65t-22 -94.5t22 -94.5t61.5 -65t88.5 -23.5q59 0 103.5 32t60.5 86h189q-14 -89 -63.5 -156.5
t-125 -104.5t-168.5 -37q-104 0 -186 46.5zM316 908h164l131 -134v-16h-146l-67 64l-67 -64h-146v16z" />
    <glyph glyph-name="Cdotaccent" unicode="&#x10a;" horiz-adv-x="778" 
d="M208 33.5q-82 46.5 -128.5 129.5t-46.5 187t46.5 187t128.5 129.5t186 46.5q91 0 166 -36t124.5 -102t64.5 -153h-190q-17 51 -60.5 81t-100.5 30q-49 0 -88.5 -23.5t-61.5 -65t-22 -94.5t22 -94.5t61.5 -65t88.5 -23.5q59 0 103.5 32t60.5 86h189q-14 -89 -63.5 -156.5
t-125 -104.5t-168.5 -37q-104 0 -186 46.5zM328 781.5q-27 26.5 -27 67.5t27 67.5t70 26.5q42 0 69.5 -26.5t27.5 -67.5t-27.5 -67.5t-69.5 -26.5q-43 0 -70 26.5z" />
    <glyph glyph-name="D" unicode="D" horiz-adv-x="745" 
d="M68 0v700h279q107 0 189.5 -44t129 -123.5t46.5 -182.5t-46.5 -182.5t-129 -123.5t-189.5 -44h-279zM338 175q83 0 132 47.5t49 127.5t-49 127.5t-132 47.5h-82v-350h82z" />
    <glyph glyph-name="Eth" unicode="&#xd0;" horiz-adv-x="759" 
d="M361 700q107 0 189.5 -44t129 -123.5t46.5 -182.5t-46.5 -182.5t-129 -123.5t-189.5 -44h-280v281h-71v138h71v281h280zM352 175q83 0 132 47.5t49 127.5t-49 127.5t-132 47.5h-82v-108h136v-133h-136v-109h82z" />
    <glyph glyph-name="Dcaron" unicode="&#x10e;" horiz-adv-x="745" 
d="M68 0v700h279q107 0 189.5 -44t129 -123.5t46.5 -182.5t-46.5 -182.5t-129 -123.5t-189.5 -44h-279zM338 175q83 0 132 47.5t49 127.5t-49 127.5t-132 47.5h-82v-350h82zM324 844l68 64h145v-16l-131 -134h-163l-132 134v16h146z" />
    <glyph glyph-name="Dcroat" unicode="&#x110;" horiz-adv-x="759" 
d="M361 700q107 0 189.5 -44t129 -123.5t46.5 -182.5t-46.5 -182.5t-129 -123.5t-189.5 -44h-280v281h-71v138h71v281h280zM352 175q83 0 132 47.5t49 127.5t-49 127.5t-132 47.5h-82v-108h136v-133h-136v-109h82z" />
    <glyph glyph-name="E" unicode="E" horiz-adv-x="579" 
d="M254 270v-103h280v-167h-466v700h458v-164h-272v-105h251v-161h-251z" />
    <glyph glyph-name="Eacute" unicode="&#xc9;" horiz-adv-x="579" 
d="M254 270v-103h280v-167h-466v700h458v-164h-272v-105h251v-161h-251zM364 758h-149v8l88 142h181v-9z" />
    <glyph glyph-name="Ebreve" unicode="&#x114;" horiz-adv-x="579" 
d="M254 270v-103h280v-167h-466v700h458v-164h-272v-105h251v-161h-251zM155.5 791.5q-51.5 42.5 -51.5 118.5h126q0 -26 18 -40t49 -14t48.5 14t17.5 40h126q0 -76 -51.5 -118.5t-140.5 -42.5q-90 0 -141.5 42.5z" />
    <glyph glyph-name="Ecaron" unicode="&#x11a;" horiz-adv-x="579" 
d="M254 270v-103h280v-167h-466v700h458v-164h-272v-105h251v-161h-251zM296 844l68 64h145v-16l-131 -134h-163l-132 134v16h146z" />
    <glyph glyph-name="Ecircumflex" unicode="&#xca;" horiz-adv-x="579" 
d="M254 270v-103h280v-167h-466v700h458v-164h-272v-105h251v-161h-251zM215 908h164l131 -134v-16h-146l-67 64l-67 -64h-146v16z" />
    <glyph glyph-name="Edieresis" unicode="&#xcb;" horiz-adv-x="579" 
d="M254 270v-103h280v-167h-466v700h458v-164h-272v-105h251v-161h-251zM115.5 771q-24.5 24 -24.5 62t24.5 61.5t64.5 23.5t64.5 -23.5t24.5 -61.5t-24.5 -62t-64.5 -24t-64.5 24zM349.5 771q-24.5 24 -24.5 62t24.5 61.5t64.5 23.5t64.5 -23.5t24.5 -61.5t-24.5 -62
t-64.5 -24t-64.5 24z" />
    <glyph glyph-name="Edotaccent" unicode="&#x116;" horiz-adv-x="579" 
d="M254 270v-103h280v-167h-466v700h458v-164h-272v-105h251v-161h-251zM227 781.5q-27 26.5 -27 67.5t27 67.5t70 26.5q42 0 69.5 -26.5t27.5 -67.5t-27.5 -67.5t-69.5 -26.5q-43 0 -70 26.5z" />
    <glyph glyph-name="Egrave" unicode="&#xc8;" horiz-adv-x="579" 
d="M254 270v-103h280v-167h-466v700h458v-164h-272v-105h251v-161h-251zM378 766v-8h-149l-118 141v9h180z" />
    <glyph glyph-name="Emacron" unicode="&#x112;" horiz-adv-x="579" 
d="M254 270v-103h280v-167h-466v700h458v-164h-272v-105h251v-161h-251zM471 771h-349v120h349v-120z" />
    <glyph glyph-name="Eogonek" unicode="&#x118;" horiz-adv-x="579" 
d="M537 -94v-116q-54 -15 -99 -15q-62 0 -97 24.5t-35 69.5q0 33 18 65t60 66h-316v700h458v-164h-272v-105h251v-161h-251v-103h280v-167q-36 -25 -51.5 -43.5t-15.5 -33.5q1 -24 29 -24q15 0 41 7z" />
    <glyph glyph-name="uni1EBC" unicode="&#x1ebc;" horiz-adv-x="579" 
d="M254 270v-103h280v-167h-466v700h458v-164h-272v-105h251v-161h-251zM341.5 762.5q-18.5 5.5 -38.5 16.5q-6 3 -18.5 9.5t-22.5 10t-18 3.5q-17 0 -24.5 -10t-7.5 -32h-110q0 74 29.5 112.5t85.5 38.5q24 0 42.5 -6.5t38.5 -18.5q20 -11 30 -15.5t23 -4.5q16 0 23 10
t7 33h110q0 -75 -27.5 -113.5t-80.5 -38.5q-23 0 -41.5 5.5z" />
    <glyph glyph-name="F" unicode="F" horiz-adv-x="550" 
d="M509 700v-170h-253v-122h231v-169h-231v-239h-188v700h441z" />
    <glyph glyph-name="G" unicode="G" horiz-adv-x="788" 
d="M757 388q5 -118 -39 -209t-127.5 -141.5t-193.5 -50.5q-105 0 -188 46.5t-129.5 129t-46.5 187.5q0 104 46 187t128 129.5t186 46.5q90 0 164 -33t124 -93.5t67 -141.5h-191q-47 89 -154 89q-52 0 -92.5 -23.5t-63 -65.5t-22.5 -96q0 -83 49 -133.5t132 -50.5
q53 0 91 21.5t58 64.5h-189v137h391z" />
    <glyph glyph-name="Gbreve" unicode="&#x11e;" horiz-adv-x="788" 
d="M757 388q5 -118 -39 -209t-127.5 -141.5t-193.5 -50.5q-105 0 -188 46.5t-129.5 129t-46.5 187.5q0 104 46 187t128 129.5t186 46.5q90 0 164 -33t124 -93.5t67 -141.5h-191q-47 89 -154 89q-52 0 -92.5 -23.5t-63 -65.5t-22.5 -96q0 -83 49 -133.5t132 -50.5
q53 0 91 21.5t58 64.5h-189v137h391zM253.5 791.5q-51.5 42.5 -51.5 118.5h126q0 -26 18 -40t49 -14t48.5 14t17.5 40h126q0 -76 -51.5 -118.5t-140.5 -42.5q-90 0 -141.5 42.5z" />
    <glyph glyph-name="Gcaron" unicode="&#x1e6;" horiz-adv-x="788" 
d="M757 388q5 -118 -39 -209t-127.5 -141.5t-193.5 -50.5q-105 0 -188 46.5t-129.5 129t-46.5 187.5q0 104 46 187t128 129.5t186 46.5q90 0 164 -33t124 -93.5t67 -141.5h-191q-47 89 -154 89q-52 0 -92.5 -23.5t-63 -65.5t-22.5 -96q0 -83 49 -133.5t132 -50.5
q53 0 91 21.5t58 64.5h-189v137h391zM394 844l68 64h145v-16l-131 -134h-163l-132 134v16h146z" />
    <glyph glyph-name="Gcircumflex" unicode="&#x11c;" horiz-adv-x="788" 
d="M757 388q5 -118 -39 -209t-127.5 -141.5t-193.5 -50.5q-105 0 -188 46.5t-129.5 129t-46.5 187.5q0 104 46 187t128 129.5t186 46.5q90 0 164 -33t124 -93.5t67 -141.5h-191q-47 89 -154 89q-52 0 -92.5 -23.5t-63 -65.5t-22.5 -96q0 -83 49 -133.5t132 -50.5
q53 0 91 21.5t58 64.5h-189v137h391zM312 908h164l131 -134v-16h-146l-67 64l-67 -64h-146v16z" />
    <glyph glyph-name="uni0122" unicode="&#x122;" horiz-adv-x="788" 
d="M757 388q5 -118 -39 -209t-127.5 -141.5t-193.5 -50.5q-105 0 -188 46.5t-129.5 129t-46.5 187.5q0 104 46 187t128 129.5t186 46.5q90 0 164 -33t124 -93.5t67 -141.5h-191q-47 89 -154 89q-52 0 -92.5 -23.5t-63 -65.5t-22.5 -96q0 -83 49 -133.5t132 -50.5
q53 0 91 21.5t58 64.5h-189v137h391zM422 -241h-143l41 196h154v-34z" />
    <glyph glyph-name="Gdotaccent" unicode="&#x120;" horiz-adv-x="788" 
d="M757 388q5 -118 -39 -209t-127.5 -141.5t-193.5 -50.5q-105 0 -188 46.5t-129.5 129t-46.5 187.5q0 104 46 187t128 129.5t186 46.5q90 0 164 -33t124 -93.5t67 -141.5h-191q-47 89 -154 89q-52 0 -92.5 -23.5t-63 -65.5t-22.5 -96q0 -83 49 -133.5t132 -50.5
q53 0 91 21.5t58 64.5h-189v137h391zM324 781.5q-27 26.5 -27 67.5t27 67.5t70 26.5q42 0 69.5 -26.5t27.5 -67.5t-27.5 -67.5t-69.5 -26.5q-43 0 -70 26.5z" />
    <glyph glyph-name="H" unicode="H" horiz-adv-x="720" 
d="M464 444v256h189v-700h-189v263h-208v-263h-188v700h188v-256h208z" />
    <glyph glyph-name="Hbar" unicode="&#x126;" horiz-adv-x="751" 
d="M668 623h76v-108h-76v-515h-189v261h-207v-261h-189v515h-76v108h76v77h189v-77h207v77h189v-77zM272 518v-76h207v76h-207z" />
    <glyph glyph-name="Hcircumflex" unicode="&#x124;" horiz-adv-x="720" 
d="M464 444v256h189v-700h-189v263h-208v-263h-188v700h188v-256h208zM278 908h164l131 -134v-16h-146l-67 64l-67 -64h-146v16z" />
    <glyph glyph-name="I" unicode="I" horiz-adv-x="471" 
d="M330 538v-373h102v-165h-393v165h102v373h-100v162h389v-162h-100z" />
    <glyph glyph-name="IJ" unicode="&#x132;" horiz-adv-x="976" 
d="M330 538v-373h102v-165h-393v165h102v373h-100v162h389v-162h-100zM578 700h337v-414q0 -296 -294 -296q-57 0 -120 10v175q49 -7 87 -7q75 0 106.5 34t31.5 98v229h-148v171z" />
    <glyph glyph-name="IJacute" horiz-adv-x="976" 
d="M330 538v-373h102v-165h-393v165h102v373h-100v162h389v-162h-100zM578 700h337v-414q0 -296 -294 -296q-57 0 -120 10v175q49 -7 87 -7q75 0 106.5 34t31.5 98v229h-148v171zM814 758h-149v8l88 142h181v-9zM301 758h-149v8l88 142h181v-9z" />
    <glyph glyph-name="Iacute" unicode="&#xcd;" horiz-adv-x="471" 
d="M330 538v-373h102v-165h-393v165h102v373h-100v162h389v-162h-100zM303 758h-149v8l88 142h181v-9z" />
    <glyph glyph-name="Ibreve" unicode="&#x12c;" horiz-adv-x="471" 
d="M330 538v-373h102v-165h-393v165h102v373h-100v162h389v-162h-100zM94.5 791.5q-51.5 42.5 -51.5 118.5h126q0 -26 18 -40t49 -14t48.5 14t17.5 40h126q0 -76 -51.5 -118.5t-140.5 -42.5q-90 0 -141.5 42.5z" />
    <glyph glyph-name="Icircumflex" unicode="&#xce;" horiz-adv-x="471" 
d="M330 538v-373h102v-165h-393v165h102v373h-100v162h389v-162h-100zM153 908h164l131 -134v-16h-146l-67 64l-67 -64h-146v16z" />
    <glyph glyph-name="Idieresis" unicode="&#xcf;" horiz-adv-x="471" 
d="M330 538v-373h102v-165h-393v165h102v373h-100v162h389v-162h-100zM54.5 771q-24.5 24 -24.5 62t24.5 61.5t64.5 23.5t64.5 -23.5t24.5 -61.5t-24.5 -62t-64.5 -24t-64.5 24zM288.5 771q-24.5 24 -24.5 62t24.5 61.5t64.5 23.5t64.5 -23.5t24.5 -61.5t-24.5 -62
t-64.5 -24t-64.5 24z" />
    <glyph glyph-name="Idotaccent" unicode="&#x130;" horiz-adv-x="471" 
d="M330 538v-373h102v-165h-393v165h102v373h-100v162h389v-162h-100zM166 781.5q-27 26.5 -27 67.5t27 67.5t70 26.5q42 0 69.5 -26.5t27.5 -67.5t-27.5 -67.5t-69.5 -26.5q-43 0 -70 26.5z" />
    <glyph glyph-name="Igrave" unicode="&#xcc;" horiz-adv-x="471" 
d="M330 538v-373h102v-165h-393v165h102v373h-100v162h389v-162h-100zM317 766v-8h-149l-118 141v9h180z" />
    <glyph glyph-name="Imacron" unicode="&#x12a;" horiz-adv-x="471" 
d="M330 538v-373h102v-165h-393v165h102v373h-100v162h389v-162h-100zM410 771h-349v120h349v-120z" />
    <glyph glyph-name="Iogonek" unicode="&#x12e;" horiz-adv-x="471" 
d="M343 0q-36 -25 -51.5 -43.5t-15.5 -33.5q1 -24 29 -24q15 0 41 7v-116q-54 -15 -99 -15q-62 0 -97 24.5t-35 69.5q0 33 18 65t60 66h-154v165h102v373h-100v162h389v-162h-100v-373h102v-165h-89z" />
    <glyph glyph-name="Itilde" unicode="&#x128;" horiz-adv-x="471" 
d="M330 538v-373h102v-165h-393v165h102v373h-100v162h389v-162h-100zM280.5 762.5q-18.5 5.5 -38.5 16.5q-6 3 -18.5 9.5t-22.5 10t-18 3.5q-17 0 -24.5 -10t-7.5 -32h-110q0 74 29.5 112.5t85.5 38.5q24 0 42.5 -6.5t38.5 -18.5q20 -11 30 -15.5t23 -4.5q16 0 23 10t7 33
h110q0 -75 -27.5 -113.5t-80.5 -38.5q-23 0 -41.5 5.5z" />
    <glyph glyph-name="J" unicode="J" horiz-adv-x="505" 
d="M107 700h337v-414q0 -296 -294 -296q-57 0 -120 10v175q49 -7 87 -7q75 0 106.5 34t31.5 98v229h-148v171z" />
    <glyph glyph-name="uni004A0301" horiz-adv-x="505" 
d="M107 700h337v-414q0 -296 -294 -296q-57 0 -120 10v175q49 -7 87 -7q75 0 106.5 34t31.5 98v229h-148v171zM343 758h-149v8l88 142h181v-9z" />
    <glyph glyph-name="Jcircumflex" unicode="&#x134;" horiz-adv-x="505" 
d="M107 700h337v-414q0 -296 -294 -296q-57 0 -120 10v175q49 -7 87 -7q75 0 106.5 34t31.5 98v229h-148v171zM194 908h164l131 -134v-16h-146l-67 64l-67 -64h-146v16z" />
    <glyph glyph-name="K" unicode="K" horiz-adv-x="660" 
d="M635 679l-217 -322l231 -336v-21h-214l-178 272v-272h-189v700h189v-270l173 270h205v-21z" />
    <glyph glyph-name="uni0136" unicode="&#x136;" horiz-adv-x="660" 
d="M635 679l-217 -322l231 -336v-21h-214l-178 272v-272h-189v700h189v-270l173 270h205v-21zM365 -241h-143l41 196h154v-34z" />
    <glyph glyph-name="L" unicode="L" horiz-adv-x="569" 
d="M256 700v-525h287v-175h-475v700h188z" />
    <glyph glyph-name="Lacute" unicode="&#x139;" horiz-adv-x="569" 
d="M256 700v-525h287v-175h-475v700h188zM230 758h-149v8l88 142h181v-9z" />
    <glyph glyph-name="Lcaron" unicode="&#x13d;" horiz-adv-x="569" 
d="M256 700v-525h287v-175h-475v700h188zM340 520v9l18 171h141v-33l-29 -147h-130z" />
    <glyph glyph-name="uni013B" unicode="&#x13b;" horiz-adv-x="569" 
d="M256 700v-525h287v-175h-475v700h188zM330 -241h-143l41 196h154v-34z" />
    <glyph glyph-name="Ldot" unicode="&#x13f;" horiz-adv-x="569" 
d="M256 700v-525h287v-175h-475v700h188zM355.5 339.5q-25.5 24.5 -25.5 65.5t25.5 66t68.5 25q42 0 68 -25t26 -66q0 -40 -26 -65t-68 -25q-43 0 -68.5 24.5z" />
    <glyph glyph-name="Lslash" unicode="&#x141;" horiz-adv-x="574" 
d="M262 341v-166h286v-175h-475v247l-73 -36v153l73 36v300h189v-206l187 92v-153z" />
    <glyph glyph-name="M" unicode="M" horiz-adv-x="855" 
d="M429 398l206 302h152v-700h-188v202l2 165l-129 -188h-89l-130 189l3 -166v-202h-188v700h153z" />
    <glyph glyph-name="N" unicode="N" horiz-adv-x="718" 
d="M464 506v194h186v-700h-144l-255 350l3 -180v-170h-186v700h142l257 -352z" />
    <glyph glyph-name="Nacute" unicode="&#x143;" horiz-adv-x="718" 
d="M464 506v194h186v-700h-144l-255 350l3 -180v-170h-186v700h142l257 -352zM427 758h-149v8l88 142h181v-9z" />
    <glyph glyph-name="Ncaron" unicode="&#x147;" horiz-adv-x="718" 
d="M464 506v194h186v-700h-144l-255 350l3 -180v-170h-186v700h142l257 -352zM359 844l68 64h145v-16l-131 -134h-163l-132 134v16h146z" />
    <glyph glyph-name="uni0145" unicode="&#x145;" horiz-adv-x="718" 
d="M464 506v194h186v-700h-144l-255 350l3 -180v-170h-186v700h142l257 -352zM383 -241h-143l41 196h154v-34z" />
    <glyph glyph-name="Eng" unicode="&#x14a;" horiz-adv-x="718" 
d="M464 700h186v-700q0 -109 -59.5 -164t-188.5 -55q-25 0 -52 4t-35 5v159q48 -5 72 -5q45 0 67 18t22 61v18l-225 309l3 -180v-170h-186v700h142l257 -352l-3 158v194z" />
    <glyph glyph-name="Ntilde" unicode="&#xd1;" horiz-adv-x="718" 
d="M464 506v194h186v-700h-144l-255 350l3 -180v-170h-186v700h142l257 -352zM403.5 762.5q-18.5 5.5 -38.5 16.5q-6 3 -18.5 9.5t-22.5 10t-18 3.5q-17 0 -24.5 -10t-7.5 -32h-110q0 74 29.5 112.5t85.5 38.5q24 0 42.5 -6.5t38.5 -18.5q20 -11 30 -15.5t23 -4.5
q16 0 23 10t7 33h110q0 -75 -27.5 -113.5t-80.5 -38.5q-23 0 -41.5 5.5z" />
    <glyph glyph-name="O" unicode="O" horiz-adv-x="805" 
d="M212 33.5q-84 46.5 -131.5 129.5t-47.5 187t47.5 187t131.5 129.5t191 46.5q106 0 190 -46.5t131.5 -129.5t47.5 -187t-47.5 -187t-131.5 -129.5t-190 -46.5q-107 0 -191 46.5zM493.5 190.5q40.5 23.5 63 65t22.5 94.5t-22.5 94.5t-63 65t-90.5 23.5t-90.5 -23.5
t-63.5 -65t-23 -94.5t23 -94.5t63.5 -65t90.5 -23.5t90.5 23.5z" />
    <glyph glyph-name="Oacute" unicode="&#xd3;" horiz-adv-x="805" 
d="M212 33.5q-84 46.5 -131.5 129.5t-47.5 187t47.5 187t131.5 129.5t191 46.5q106 0 190 -46.5t131.5 -129.5t47.5 -187t-47.5 -187t-131.5 -129.5t-190 -46.5q-107 0 -191 46.5zM493.5 190.5q40.5 23.5 63 65t22.5 94.5t-22.5 94.5t-63 65t-90.5 23.5t-90.5 -23.5
t-63.5 -65t-23 -94.5t23 -94.5t63.5 -65t90.5 -23.5t90.5 23.5zM470 758h-149v8l88 142h181v-9z" />
    <glyph glyph-name="Obreve" unicode="&#x14e;" horiz-adv-x="805" 
d="M212 33.5q-84 46.5 -131.5 129.5t-47.5 187t47.5 187t131.5 129.5t191 46.5q106 0 190 -46.5t131.5 -129.5t47.5 -187t-47.5 -187t-131.5 -129.5t-190 -46.5q-107 0 -191 46.5zM493.5 190.5q40.5 23.5 63 65t22.5 94.5t-22.5 94.5t-63 65t-90.5 23.5t-90.5 -23.5
t-63.5 -65t-23 -94.5t23 -94.5t63.5 -65t90.5 -23.5t90.5 23.5zM261.5 791.5q-51.5 42.5 -51.5 118.5h126q0 -26 18 -40t49 -14t48.5 14t17.5 40h126q0 -76 -51.5 -118.5t-140.5 -42.5q-90 0 -141.5 42.5z" />
    <glyph glyph-name="Ocircumflex" unicode="&#xd4;" horiz-adv-x="805" 
d="M212 33.5q-84 46.5 -131.5 129.5t-47.5 187t47.5 187t131.5 129.5t191 46.5q106 0 190 -46.5t131.5 -129.5t47.5 -187t-47.5 -187t-131.5 -129.5t-190 -46.5q-107 0 -191 46.5zM493.5 190.5q40.5 23.5 63 65t22.5 94.5t-22.5 94.5t-63 65t-90.5 23.5t-90.5 -23.5
t-63.5 -65t-23 -94.5t23 -94.5t63.5 -65t90.5 -23.5t90.5 23.5zM321 908h164l131 -134v-16h-146l-67 64l-67 -64h-146v16z" />
    <glyph glyph-name="Odieresis" unicode="&#xd6;" horiz-adv-x="805" 
d="M212 33.5q-84 46.5 -131.5 129.5t-47.5 187t47.5 187t131.5 129.5t191 46.5q106 0 190 -46.5t131.5 -129.5t47.5 -187t-47.5 -187t-131.5 -129.5t-190 -46.5q-107 0 -191 46.5zM493.5 190.5q40.5 23.5 63 65t22.5 94.5t-22.5 94.5t-63 65t-90.5 23.5t-90.5 -23.5
t-63.5 -65t-23 -94.5t23 -94.5t63.5 -65t90.5 -23.5t90.5 23.5zM221.5 771q-24.5 24 -24.5 62t24.5 61.5t64.5 23.5t64.5 -23.5t24.5 -61.5t-24.5 -62t-64.5 -24t-64.5 24zM455.5 771q-24.5 24 -24.5 62t24.5 61.5t64.5 23.5t64.5 -23.5t24.5 -61.5t-24.5 -62t-64.5 -24
t-64.5 24z" />
    <glyph glyph-name="Ograve" unicode="&#xd2;" horiz-adv-x="805" 
d="M212 33.5q-84 46.5 -131.5 129.5t-47.5 187t47.5 187t131.5 129.5t191 46.5q106 0 190 -46.5t131.5 -129.5t47.5 -187t-47.5 -187t-131.5 -129.5t-190 -46.5q-107 0 -191 46.5zM493.5 190.5q40.5 23.5 63 65t22.5 94.5t-22.5 94.5t-63 65t-90.5 23.5t-90.5 -23.5
t-63.5 -65t-23 -94.5t23 -94.5t63.5 -65t90.5 -23.5t90.5 23.5zM484 766v-8h-149l-118 141v9h180z" />
    <glyph glyph-name="Ohungarumlaut" unicode="&#x150;" horiz-adv-x="805" 
d="M212 33.5q-84 46.5 -131.5 129.5t-47.5 187t47.5 187t131.5 129.5t191 46.5q106 0 190 -46.5t131.5 -129.5t47.5 -187t-47.5 -187t-131.5 -129.5t-190 -46.5q-107 0 -191 46.5zM493.5 190.5q40.5 23.5 63 65t22.5 94.5t-22.5 94.5t-63 65t-90.5 23.5t-90.5 -23.5
t-63.5 -65t-23 -94.5t23 -94.5t63.5 -65t90.5 -23.5t90.5 23.5zM362 758h-145v8l75 142h168v-9zM561 758h-139v8l98 142h167v-9z" />
    <glyph glyph-name="Omacron" unicode="&#x14c;" horiz-adv-x="805" 
d="M212 33.5q-84 46.5 -131.5 129.5t-47.5 187t47.5 187t131.5 129.5t191 46.5q106 0 190 -46.5t131.5 -129.5t47.5 -187t-47.5 -187t-131.5 -129.5t-190 -46.5q-107 0 -191 46.5zM493.5 190.5q40.5 23.5 63 65t22.5 94.5t-22.5 94.5t-63 65t-90.5 23.5t-90.5 -23.5
t-63.5 -65t-23 -94.5t23 -94.5t63.5 -65t90.5 -23.5t90.5 23.5zM577 771h-349v120h349v-120z" />
    <glyph glyph-name="Oslash" unicode="&#xd8;" horiz-adv-x="805" 
d="M648 629q59 -50 91.5 -121.5t32.5 -157.5q0 -104 -47.5 -187t-131.5 -129.5t-190 -46.5q-57 0 -108 14l-41 -72h-164v21l67 121q-59 50 -91.5 121.5t-32.5 157.5q0 104 47.5 187t131.5 129.5t191 46.5q55 0 108 -14l40 72h164v-22zM501.5 176.5q43.5 25.5 68 71
t24.5 102.5t-24.5 102.5t-68 71t-98.5 25.5t-98.5 -25.5t-68.5 -71t-25 -102.5t25 -102.5t68.5 -71t98.5 -25.5t98.5 25.5z" />
    <glyph glyph-name="Oslashacute" unicode="&#x1fe;" horiz-adv-x="805" 
d="M648 629q59 -50 91.5 -121.5t32.5 -157.5q0 -104 -47.5 -187t-131.5 -129.5t-190 -46.5q-57 0 -108 14l-41 -72h-164v21l67 121q-59 50 -91.5 121.5t-32.5 157.5q0 104 47.5 187t131.5 129.5t191 46.5q55 0 108 -14l40 72h164v-22zM501.5 176.5q43.5 25.5 68 71
t24.5 102.5t-24.5 102.5t-68 71t-98.5 25.5t-98.5 -25.5t-68.5 -71t-25 -102.5t25 -102.5t68.5 -71t98.5 -25.5t98.5 25.5zM470 758h-149v8l88 142h181v-9z" />
    <glyph glyph-name="Otilde" unicode="&#xd5;" horiz-adv-x="805" 
d="M212 33.5q-84 46.5 -131.5 129.5t-47.5 187t47.5 187t131.5 129.5t191 46.5q106 0 190 -46.5t131.5 -129.5t47.5 -187t-47.5 -187t-131.5 -129.5t-190 -46.5q-107 0 -191 46.5zM493.5 190.5q40.5 23.5 63 65t22.5 94.5t-22.5 94.5t-63 65t-90.5 23.5t-90.5 -23.5
t-63.5 -65t-23 -94.5t23 -94.5t63.5 -65t90.5 -23.5t90.5 23.5zM447.5 762.5q-18.5 5.5 -38.5 16.5q-6 3 -18.5 9.5t-22.5 10t-18 3.5q-17 0 -24.5 -10t-7.5 -32h-110q0 74 29.5 112.5t85.5 38.5q24 0 42.5 -6.5t38.5 -18.5q20 -11 30 -15.5t23 -4.5q16 0 23 10t7 33h110
q0 -75 -27.5 -113.5t-80.5 -38.5q-23 0 -41.5 5.5z" />
    <glyph glyph-name="OE" unicode="&#x152;" horiz-adv-x="987" 
d="M942 167v-167h-437q-48 -13 -102 -13q-107 0 -191 46.5t-131.5 129.5t-47.5 187t47.5 187t131.5 129.5t191 46.5q56 0 104 -13h428v-164h-275v-105h254v-161h-254v-103h282zM248 254.5q23 -42.5 64.5 -66t93.5 -23.5q36 0 73 13v344q-33 13 -73 13q-52 0 -93.5 -23.5
t-64.5 -66t-23 -95.5t23 -95.5z" />
    <glyph glyph-name="P" unicode="P" horiz-adv-x="619" 
d="M347 700q77 0 134.5 -31t89 -88.5t31.5 -133.5t-31.5 -133t-89 -88t-134.5 -31h-91v-195h-188v700h279zM329 362q40 0 62.5 22.5t22.5 60.5q0 39 -22.5 61.5t-62.5 22.5h-75v-167h75z" />
    <glyph glyph-name="Thorn" unicode="&#xde;" horiz-adv-x="619" 
d="M347 605q77 0 134.5 -31t89 -88.5t31.5 -133.5t-31.5 -133.5t-89 -88.5t-134.5 -31h-90v-99h-189v700h188v-95h91zM329 267q40 0 62.5 22t22.5 61t-22.5 61t-62.5 22h-75v-166h75z" />
    <glyph glyph-name="Q" unicode="Q" horiz-adv-x="812" 
d="M807 -28v-21h-183l-61 73q-74 -37 -160 -37q-107 0 -191 46.5t-131.5 129.5t-47.5 187t47.5 187t131.5 129.5t191 46.5q106 0 190 -46.5t131.5 -129.5t47.5 -187q0 -136 -86 -233zM249.5 255.5q22.5 -41.5 63 -65t90.5 -23.5q20 0 42 5l-115 139v21h175l56 -67
q18 38 18 85q0 53 -23 94.5t-63 65t-90 23.5t-90.5 -23.5t-63 -65t-22.5 -94.5t22.5 -94.5z" />
    <glyph glyph-name="R" unicode="R" horiz-adv-x="636" 
d="M627 21v-21h-206l-166 248v-248h-187v700h266q123 0 193 -62.5t70 -170.5q0 -75 -35 -128.5t-100 -78.5zM254 377h75q39 0 60 19.5t21 55.5q0 37 -21.5 56.5t-59.5 19.5h-75v-151z" />
    <glyph glyph-name="Racute" unicode="&#x154;" horiz-adv-x="636" 
d="M627 21v-21h-206l-166 248v-248h-187v700h266q123 0 193 -62.5t70 -170.5q0 -75 -35 -128.5t-100 -78.5zM254 377h75q39 0 60 19.5t21 55.5q0 37 -21.5 56.5t-59.5 19.5h-75v-151zM381 758h-149v8l88 142h181v-9z" />
    <glyph glyph-name="Rcaron" unicode="&#x158;" horiz-adv-x="636" 
d="M627 21v-21h-206l-166 248v-248h-187v700h266q123 0 193 -62.5t70 -170.5q0 -75 -35 -128.5t-100 -78.5zM254 377h75q39 0 60 19.5t21 55.5q0 37 -21.5 56.5t-59.5 19.5h-75v-151zM313 844l68 64h145v-16l-131 -134h-163l-132 134v16h146z" />
    <glyph glyph-name="uni0156" unicode="&#x156;" horiz-adv-x="636" 
d="M627 21v-21h-206l-166 248v-248h-187v700h266q123 0 193 -62.5t70 -170.5q0 -75 -35 -128.5t-100 -78.5zM254 377h75q39 0 60 19.5t21 55.5q0 37 -21.5 56.5t-59.5 19.5h-75v-151zM358 -241h-143l41 196h154v-34z" />
    <glyph glyph-name="S" unicode="S" horiz-adv-x="610" 
d="M109.5 51.5q-74.5 61.5 -79.5 175.5h185q6 -71 96 -71q40 0 63 14.5t23 38.5q0 27 -27.5 43t-92.5 26q-115 18 -177 67t-62 144q0 69 34 119t94.5 76.5t138.5 26.5q116 0 188 -61t79 -166h-182q-5 31 -27 47t-60 16t-59 -14t-21 -39t25.5 -38.5t91.5 -24.5
q117 -17 181 -68.5t64 -147.5q0 -71 -35 -122t-97.5 -77t-141.5 -26q-127 0 -201.5 61.5z" />
    <glyph glyph-name="Sacute" unicode="&#x15a;" horiz-adv-x="610" 
d="M109.5 51.5q-74.5 61.5 -79.5 175.5h185q6 -71 96 -71q40 0 63 14.5t23 38.5q0 27 -27.5 43t-92.5 26q-115 18 -177 67t-62 144q0 69 34 119t94.5 76.5t138.5 26.5q116 0 188 -61t79 -166h-182q-5 31 -27 47t-60 16t-59 -14t-21 -39t25.5 -38.5t91.5 -24.5
q117 -17 181 -68.5t64 -147.5q0 -71 -35 -122t-97.5 -77t-141.5 -26q-127 0 -201.5 61.5zM373 758h-149v8l88 142h181v-9z" />
    <glyph glyph-name="Scaron" unicode="&#x160;" horiz-adv-x="610" 
d="M109.5 51.5q-74.5 61.5 -79.5 175.5h185q6 -71 96 -71q40 0 63 14.5t23 38.5q0 27 -27.5 43t-92.5 26q-115 18 -177 67t-62 144q0 69 34 119t94.5 76.5t138.5 26.5q116 0 188 -61t79 -166h-182q-5 31 -27 47t-60 16t-59 -14t-21 -39t25.5 -38.5t91.5 -24.5
q117 -17 181 -68.5t64 -147.5q0 -71 -35 -122t-97.5 -77t-141.5 -26q-127 0 -201.5 61.5zM305 844l68 64h145v-16l-131 -134h-163l-132 134v16h146z" />
    <glyph glyph-name="Scedilla" unicode="&#x15e;" horiz-adv-x="610" 
d="M522.5 62q-62.5 -58 -165.5 -70l-17 -33q48 -4 75 -25.5t27 -58.5q0 -98 -148 -98q-55 0 -107 12v91q41 -10 80 -10q27 0 39.5 5t12.5 15q0 21 -38 21q-11 0 -35 -4l-17 21l30 65q-104 12 -164.5 72.5t-64.5 161.5h185q6 -71 96 -71q40 0 63 14.5t23 38.5q0 27 -27.5 43
t-92.5 26q-115 18 -177 67t-62 144q0 69 34 119t94.5 76.5t138.5 26.5q116 0 188 -61t79 -166h-182q-5 31 -27 47t-60 16t-59 -14t-21 -39t25.5 -38.5t91.5 -24.5q117 -17 181 -68.5t64 -147.5q0 -95 -62.5 -153z" />
    <glyph glyph-name="Scircumflex" unicode="&#x15c;" horiz-adv-x="610" 
d="M109.5 51.5q-74.5 61.5 -79.5 175.5h185q6 -71 96 -71q40 0 63 14.5t23 38.5q0 27 -27.5 43t-92.5 26q-115 18 -177 67t-62 144q0 69 34 119t94.5 76.5t138.5 26.5q116 0 188 -61t79 -166h-182q-5 31 -27 47t-60 16t-59 -14t-21 -39t25.5 -38.5t91.5 -24.5
q117 -17 181 -68.5t64 -147.5q0 -71 -35 -122t-97.5 -77t-141.5 -26q-127 0 -201.5 61.5zM223 908h164l131 -134v-16h-146l-67 64l-67 -64h-146v16z" />
    <glyph glyph-name="uni0218" unicode="&#x218;" horiz-adv-x="610" 
d="M109.5 51.5q-74.5 61.5 -79.5 175.5h185q6 -71 96 -71q40 0 63 14.5t23 38.5q0 27 -27.5 43t-92.5 26q-115 18 -177 67t-62 144q0 69 34 119t94.5 76.5t138.5 26.5q116 0 188 -61t79 -166h-182q-5 31 -27 47t-60 16t-59 -14t-21 -39t25.5 -38.5t91.5 -24.5
q117 -17 181 -68.5t64 -147.5q0 -71 -35 -122t-97.5 -77t-141.5 -26q-127 0 -201.5 61.5zM337 -241h-143l41 196h154v-34z" />
    <glyph glyph-name="uni1E9E" unicode="&#x1e9e;" horiz-adv-x="713" 
d="M538 453q72 -27 111 -83t39 -135q0 -115 -67.5 -179.5t-188.5 -64.5q-51 0 -99 8v173q36 -7 66 -7q44 0 70 18t26 56q0 35 -25 53t-71 18h-32l-32 61l83 158h-111q-28 0 -43 -15t-15 -42v-472h-188v477q0 105 60.5 164t169.5 59h339v-75z" />
    <glyph glyph-name="uni018F" unicode="&#x18f;" horiz-adv-x="784" 
d="M574.5 665.5q82.5 -46.5 129.5 -129t47 -186.5t-47 -186t-129.5 -128.5t-185.5 -46.5q-104 0 -185.5 46.5t-127 129t-45.5 186.5q0 34 4 62h516q-15 60 -57.5 93.5t-103.5 33.5q-41 0 -76.5 -17.5t-55.5 -45.5h-208q36 109 127.5 172t211.5 63q103 0 185.5 -46.5z
M491 193.5q42 32.5 58 89.5h-320q15 -56 57 -89t103 -33q60 0 102 32.5z" />
    <glyph glyph-name="T" unicode="T" horiz-adv-x="583" 
d="M21 700h540v-172h-175v-528h-189v528h-176v172z" />
    <glyph glyph-name="Tbar" unicode="&#x166;" horiz-adv-x="583" 
d="M561 700v-172h-175v-144h113v-142h-113v-242h-189v242h-113v142h113v144h-176v172h540z" />
    <glyph glyph-name="Tcaron" unicode="&#x164;" horiz-adv-x="583" 
d="M21 700h540v-172h-175v-528h-189v528h-176v172zM291 844l68 64h145v-16l-131 -134h-163l-132 134v16h146z" />
    <glyph glyph-name="uni0162" unicode="&#x162;" horiz-adv-x="583" 
d="M386 0h-46l-21 -41q48 -4 75 -25.5t27 -58.5q0 -98 -148 -98q-55 0 -107 12v91q41 -10 80 -10q27 0 39.5 5t12.5 15q0 21 -38 21q-11 0 -35 -4l-17 21l33 72h-44v528h-176v172h540v-172h-175v-528z" />
    <glyph glyph-name="uni021A" unicode="&#x21a;" horiz-adv-x="583" 
d="M21 700h540v-172h-175v-528h-189v528h-176v172zM316 -241h-143l41 196h154v-34z" />
    <glyph glyph-name="U" unicode="U" horiz-adv-x="700" 
d="M198.5 21q-65.5 32 -101.5 91.5t-36 140.5v447h189v-416q0 -57 26.5 -86t74.5 -29q47 0 73 29t26 86v416h189v-447q0 -80 -36 -139.5t-101 -92t-151 -32.5q-87 0 -152.5 32z" />
    <glyph glyph-name="Uacute" unicode="&#xda;" horiz-adv-x="700" 
d="M198.5 21q-65.5 32 -101.5 91.5t-36 140.5v447h189v-416q0 -57 26.5 -86t74.5 -29q47 0 73 29t26 86v416h189v-447q0 -80 -36 -139.5t-101 -92t-151 -32.5q-87 0 -152.5 32zM418 758h-149v8l88 142h181v-9z" />
    <glyph glyph-name="Ubreve" unicode="&#x16c;" horiz-adv-x="700" 
d="M198.5 21q-65.5 32 -101.5 91.5t-36 140.5v447h189v-416q0 -57 26.5 -86t74.5 -29q47 0 73 29t26 86v416h189v-447q0 -80 -36 -139.5t-101 -92t-151 -32.5q-87 0 -152.5 32zM208.5 791.5q-51.5 42.5 -51.5 118.5h126q0 -26 18 -40t49 -14t48.5 14t17.5 40h126
q0 -76 -51.5 -118.5t-140.5 -42.5q-90 0 -141.5 42.5z" />
    <glyph glyph-name="Ucircumflex" unicode="&#xdb;" horiz-adv-x="700" 
d="M198.5 21q-65.5 32 -101.5 91.5t-36 140.5v447h189v-416q0 -57 26.5 -86t74.5 -29q47 0 73 29t26 86v416h189v-447q0 -80 -36 -139.5t-101 -92t-151 -32.5q-87 0 -152.5 32zM268 908h164l131 -134v-16h-146l-67 64l-67 -64h-146v16z" />
    <glyph glyph-name="Udieresis" unicode="&#xdc;" horiz-adv-x="700" 
d="M198.5 21q-65.5 32 -101.5 91.5t-36 140.5v447h189v-416q0 -57 26.5 -86t74.5 -29q47 0 73 29t26 86v416h189v-447q0 -80 -36 -139.5t-101 -92t-151 -32.5q-87 0 -152.5 32zM168.5 771q-24.5 24 -24.5 62t24.5 61.5t64.5 23.5t64.5 -23.5t24.5 -61.5t-24.5 -62t-64.5 -24
t-64.5 24zM402.5 771q-24.5 24 -24.5 62t24.5 61.5t64.5 23.5t64.5 -23.5t24.5 -61.5t-24.5 -62t-64.5 -24t-64.5 24z" />
    <glyph glyph-name="Ugrave" unicode="&#xd9;" horiz-adv-x="700" 
d="M198.5 21q-65.5 32 -101.5 91.5t-36 140.5v447h189v-416q0 -57 26.5 -86t74.5 -29q47 0 73 29t26 86v416h189v-447q0 -80 -36 -139.5t-101 -92t-151 -32.5q-87 0 -152.5 32zM432 766v-8h-149l-118 141v9h180z" />
    <glyph glyph-name="Uhungarumlaut" unicode="&#x170;" horiz-adv-x="700" 
d="M198.5 21q-65.5 32 -101.5 91.5t-36 140.5v447h189v-416q0 -57 26.5 -86t74.5 -29q47 0 73 29t26 86v416h189v-447q0 -80 -36 -139.5t-101 -92t-151 -32.5q-87 0 -152.5 32zM310 758h-145v8l75 142h168v-9zM509 758h-139v8l98 142h167v-9z" />
    <glyph glyph-name="Umacron" unicode="&#x16a;" horiz-adv-x="700" 
d="M198.5 21q-65.5 32 -101.5 91.5t-36 140.5v447h189v-416q0 -57 26.5 -86t74.5 -29q47 0 73 29t26 86v416h189v-447q0 -80 -36 -139.5t-101 -92t-151 -32.5q-87 0 -152.5 32zM524 771h-349v120h349v-120z" />
    <glyph glyph-name="Uogonek" unicode="&#x172;" horiz-adv-x="700" 
d="M450 700h189v-447q0 -71 -27.5 -125.5t-79.5 -88.5q-56 -45 -79 -71t-23 -45q0 -12 8 -18t21 -6q15 0 40 7v-116q-53 -15 -98 -15q-62 0 -97 24.5t-35 69.5q0 28 14.5 57t47.5 63q-124 6 -197 76.5t-73 187.5v447h189v-416q0 -57 26.5 -86t74.5 -29q47 0 73 29t26 86v416
z" />
    <glyph glyph-name="Uring" unicode="&#x16e;" horiz-adv-x="700" 
d="M198.5 21q-65.5 32 -101.5 91.5t-36 140.5v447h189v-416q0 -57 26.5 -86t74.5 -29q47 0 73 29t26 86v416h189v-447q0 -80 -36 -139.5t-101 -92t-151 -32.5q-87 0 -152.5 32zM252.5 762q-37.5 34 -37.5 90q0 55 37.5 89.5t97.5 34.5t97.5 -34.5t37.5 -89.5
q0 -56 -37.5 -90t-97.5 -34t-97.5 34zM383.5 818q13.5 13 13.5 34t-13 33.5t-34 12.5t-34 -12.5t-13 -33.5t13 -34t34 -13q20 0 33.5 13z" />
    <glyph glyph-name="Utilde" unicode="&#x168;" horiz-adv-x="700" 
d="M198.5 21q-65.5 32 -101.5 91.5t-36 140.5v447h189v-416q0 -57 26.5 -86t74.5 -29q47 0 73 29t26 86v416h189v-447q0 -80 -36 -139.5t-101 -92t-151 -32.5q-87 0 -152.5 32zM394.5 762.5q-18.5 5.5 -38.5 16.5q-6 3 -18.5 9.5t-22.5 10t-18 3.5q-17 0 -24.5 -10t-7.5 -32
h-110q0 74 29.5 112.5t85.5 38.5q24 0 42.5 -6.5t38.5 -18.5q20 -11 30 -15.5t23 -4.5q16 0 23 10t7 33h110q0 -75 -27.5 -113.5t-80.5 -38.5q-23 0 -41.5 5.5z" />
    <glyph glyph-name="V" unicode="V" horiz-adv-x="692" 
d="M438 550l52 150h193v-21l-259 -679h-155l-260 679v21h196l52 -150l90 -267z" />
    <glyph glyph-name="W" unicode="W" horiz-adv-x="1019" 
d="M769 530l52 170h188v-21l-209 -679h-152l-87 199l-51 124l-51 -124l-85 -199h-152l-212 679v21h193l51 -170l65 -243l127 294h129l127 -294z" />
    <glyph glyph-name="Wacute" unicode="&#x1e82;" horiz-adv-x="1019" 
d="M769 530l52 170h188v-21l-209 -679h-152l-87 199l-51 124l-51 -124l-85 -199h-152l-212 679v21h193l51 -170l65 -243l127 294h129l127 -294zM580 758h-149v8l88 142h181v-9z" />
    <glyph glyph-name="Wcircumflex" unicode="&#x174;" horiz-adv-x="1019" 
d="M769 530l52 170h188v-21l-209 -679h-152l-87 199l-51 124l-51 -124l-85 -199h-152l-212 679v21h193l51 -170l65 -243l127 294h129l127 -294zM430 908h164l131 -134v-16h-146l-67 64l-67 -64h-146v16z" />
    <glyph glyph-name="Wdieresis" unicode="&#x1e84;" horiz-adv-x="1019" 
d="M769 530l52 170h188v-21l-209 -679h-152l-87 199l-51 124l-51 -124l-85 -199h-152l-212 679v21h193l51 -170l65 -243l127 294h129l127 -294zM330.5 771q-24.5 24 -24.5 62t24.5 61.5t64.5 23.5t64.5 -23.5t24.5 -61.5t-24.5 -62t-64.5 -24t-64.5 24zM564.5 771
q-24.5 24 -24.5 62t24.5 61.5t64.5 23.5t64.5 -23.5t24.5 -61.5t-24.5 -62t-64.5 -24t-64.5 24z" />
    <glyph glyph-name="Wgrave" unicode="&#x1e80;" horiz-adv-x="1019" 
d="M769 530l52 170h188v-21l-209 -679h-152l-87 199l-51 124l-51 -124l-85 -199h-152l-212 679v21h193l51 -170l65 -243l127 294h129l127 -294zM594 766v-8h-149l-118 141v9h180z" />
    <glyph glyph-name="X" unicode="X" horiz-adv-x="701" 
d="M674 679l-204 -322l216 -336v-21h-205l-94 154l-37 63l-38 -63l-94 -154h-203v21l217 336l-202 322v21h199l85 -142l36 -63l37 63l87 142h200v-21z" />
    <glyph glyph-name="Y" unicode="Y" horiz-adv-x="669" 
d="M457 700h206v-23l-234 -391v-286h-189v288l-233 391v21h205l62 -113l61 -114l61 114z" />
    <glyph glyph-name="Yacute" unicode="&#xdd;" horiz-adv-x="669" 
d="M457 700h206v-23l-234 -391v-286h-189v288l-233 391v21h205l62 -113l61 -114l61 114zM402 758h-149v8l88 142h181v-9z" />
    <glyph glyph-name="Ycircumflex" unicode="&#x176;" horiz-adv-x="669" 
d="M457 700h206v-23l-234 -391v-286h-189v288l-233 391v21h205l62 -113l61 -114l61 114zM253 908h164l131 -134v-16h-146l-67 64l-67 -64h-146v16z" />
    <glyph glyph-name="Ydieresis" unicode="&#x178;" horiz-adv-x="669" 
d="M457 700h206v-23l-234 -391v-286h-189v288l-233 391v21h205l62 -113l61 -114l61 114zM153.5 771q-24.5 24 -24.5 62t24.5 61.5t64.5 23.5t64.5 -23.5t24.5 -61.5t-24.5 -62t-64.5 -24t-64.5 24zM387.5 771q-24.5 24 -24.5 62t24.5 61.5t64.5 23.5t64.5 -23.5t24.5 -61.5
t-24.5 -62t-64.5 -24t-64.5 24z" />
    <glyph glyph-name="Ygrave" unicode="&#x1ef2;" horiz-adv-x="669" 
d="M457 700h206v-23l-234 -391v-286h-189v288l-233 391v21h205l62 -113l61 -114l61 114zM416 766v-8h-149l-118 141v9h180z" />
    <glyph glyph-name="uni0232" unicode="&#x232;" horiz-adv-x="669" 
d="M457 700h206v-23l-234 -391v-286h-189v288l-233 391v21h205l62 -113l61 -114l61 114zM509 771h-349v120h349v-120z" />
    <glyph glyph-name="uni1EF8" unicode="&#x1ef8;" horiz-adv-x="669" 
d="M457 700h206v-23l-234 -391v-286h-189v288l-233 391v21h205l62 -113l61 -114l61 114zM379.5 762.5q-18.5 5.5 -38.5 16.5q-6 3 -18.5 9.5t-22.5 10t-18 3.5q-17 0 -24.5 -10t-7.5 -32h-110q0 74 29.5 112.5t85.5 38.5q24 0 42.5 -6.5t38.5 -18.5q20 -11 30 -15.5t23 -4.5
q16 0 23 10t7 33h110q0 -75 -27.5 -113.5t-80.5 -38.5q-23 0 -41.5 5.5z" />
    <glyph glyph-name="Z" unicode="Z" horiz-adv-x="603" 
d="M286 172l290 1v-173h-549v102l286 428l-273 -1v171h529v-101z" />
    <glyph glyph-name="Zacute" unicode="&#x179;" horiz-adv-x="603" 
d="M286 172l290 1v-173h-549v102l286 428l-273 -1v171h529v-101zM378 758h-149v8l88 142h181v-9z" />
    <glyph glyph-name="Zcaron" unicode="&#x17d;" horiz-adv-x="603" 
d="M286 172l290 1v-173h-549v102l286 428l-273 -1v171h529v-101zM310 844l68 64h145v-16l-131 -134h-163l-132 134v16h146z" />
    <glyph glyph-name="Zdotaccent" unicode="&#x17b;" horiz-adv-x="603" 
d="M286 172l290 1v-173h-549v102l286 428l-273 -1v171h529v-101zM241 781.5q-27 26.5 -27 67.5t27 67.5t70 26.5q42 0 69.5 -26.5t27.5 -67.5t-27.5 -67.5t-69.5 -26.5q-43 0 -70 26.5z" />
    <glyph glyph-name="a" unicode="a" horiz-adv-x="676" 
d="M464 530h149v-530h-149l-8 47q-69 -58 -163 -58q-77 0 -137 36t-93 99t-33 141q0 81 34 143.5t94 97.5t135 35q47 0 89 -15.5t75 -43.5zM404.5 181.5q32.5 32.5 32.5 83.5t-32.5 83.5t-82.5 32.5t-82.5 -32.5t-32.5 -83.5t32.5 -83.5t82.5 -32.5t82.5 32.5z" />
    <glyph glyph-name="aacute" unicode="&#xe1;" horiz-adv-x="676" 
d="M464 530h149v-530h-149l-8 47q-69 -58 -163 -58q-77 0 -137 36t-93 99t-33 141q0 81 34 143.5t94 97.5t135 35q47 0 89 -15.5t75 -43.5zM404.5 181.5q32.5 32.5 32.5 83.5t-32.5 83.5t-82.5 32.5t-82.5 -32.5t-32.5 -83.5t32.5 -83.5t82.5 -32.5t82.5 32.5zM399 582h-147
v8l86 143h178v-8z" />
    <glyph glyph-name="abreve" unicode="&#x103;" horiz-adv-x="676" 
d="M464 530h149v-530h-149l-8 47q-69 -58 -163 -58q-77 0 -137 36t-93 99t-33 141q0 81 34 143.5t94 97.5t135 35q47 0 89 -15.5t75 -43.5zM404.5 181.5q32.5 32.5 32.5 83.5t-32.5 83.5t-82.5 32.5t-82.5 -32.5t-32.5 -83.5t32.5 -83.5t82.5 -32.5t82.5 32.5zM200 616.5
q-52 43.5 -52 119.5h126q0 -26 18.5 -41t48.5 -15t48 15t18 41h126q0 -75 -51.5 -119t-140.5 -44t-141 43.5z" />
    <glyph glyph-name="acircumflex" unicode="&#xe2;" horiz-adv-x="676" 
d="M464 530h149v-530h-149l-8 47q-69 -58 -163 -58q-77 0 -137 36t-93 99t-33 141q0 81 34 143.5t94 97.5t135 35q47 0 89 -15.5t75 -43.5zM404.5 181.5q32.5 32.5 32.5 83.5t-32.5 83.5t-82.5 32.5t-82.5 -32.5t-32.5 -83.5t32.5 -83.5t82.5 -32.5t82.5 32.5zM258 736h164
l131 -139v-16h-146l-67 67l-67 -67h-146v16z" />
    <glyph glyph-name="adieresis" unicode="&#xe4;" horiz-adv-x="676" 
d="M464 530h149v-530h-149l-8 47q-69 -58 -163 -58q-77 0 -137 36t-93 99t-33 141q0 81 34 143.5t94 97.5t135 35q47 0 89 -15.5t75 -43.5zM404.5 181.5q32.5 32.5 32.5 83.5t-32.5 83.5t-82.5 32.5t-82.5 -32.5t-32.5 -83.5t32.5 -83.5t82.5 -32.5t82.5 32.5zM147 603
q-26 24 -26 62q0 39 26 62.5t67 23.5q42 0 67.5 -23.5t25.5 -62.5q0 -38 -25.5 -62t-67.5 -24q-41 0 -67 24zM399 603q-26 24 -26 62q0 39 26 62.5t67 23.5q42 0 67.5 -23.5t25.5 -62.5q0 -38 -25.5 -62t-67.5 -24q-41 0 -67 24z" />
    <glyph glyph-name="agrave" unicode="&#xe0;" horiz-adv-x="676" 
d="M464 530h149v-530h-149l-8 47q-69 -58 -163 -58q-77 0 -137 36t-93 99t-33 141q0 81 34 143.5t94 97.5t135 35q47 0 89 -15.5t75 -43.5zM404.5 181.5q32.5 32.5 32.5 83.5t-32.5 83.5t-82.5 32.5t-82.5 -32.5t-32.5 -83.5t32.5 -83.5t82.5 -32.5t82.5 32.5zM426 590v-8
h-147l-117 143v8h178z" />
    <glyph glyph-name="amacron" unicode="&#x101;" horiz-adv-x="676" 
d="M464 530h149v-530h-149l-8 47q-69 -58 -163 -58q-77 0 -137 36t-93 99t-33 141q0 81 34 143.5t94 97.5t135 35q47 0 89 -15.5t75 -43.5zM404.5 181.5q32.5 32.5 32.5 83.5t-32.5 83.5t-82.5 32.5t-82.5 -32.5t-32.5 -83.5t32.5 -83.5t82.5 -32.5t82.5 32.5zM511 599h-342
v112h342v-112z" />
    <glyph glyph-name="aogonek" unicode="&#x105;" horiz-adv-x="676" 
d="M615 -94v-116q-54 -15 -99 -15q-62 0 -97 24.5t-35 69.5q0 34 18.5 66t61.5 67l-8 45q-69 -58 -163 -58q-77 0 -137 36t-93 99t-33 141q0 81 34 143.5t94 97.5t135 35q47 0 89 -15.5t75 -43.5l7 48h149v-530h-1q-36 -25 -51.5 -43.5t-15.5 -33.5q1 -24 29 -24q15 0 41 7z
M404.5 181.5q32.5 32.5 32.5 83.5t-32.5 83.5t-82.5 32.5t-82.5 -32.5t-32.5 -83.5t32.5 -83.5t82.5 -32.5t82.5 32.5z" />
    <glyph glyph-name="aring" unicode="&#xe5;" horiz-adv-x="676" 
d="M464 530h149v-530h-149l-8 47q-69 -58 -163 -58q-77 0 -137 36t-93 99t-33 141q0 81 34 143.5t94 97.5t135 35q47 0 89 -15.5t75 -43.5zM404.5 181.5q32.5 32.5 32.5 83.5t-32.5 83.5t-82.5 32.5t-82.5 -32.5t-32.5 -83.5t32.5 -83.5t82.5 -32.5t82.5 32.5zM244 607
q-37 35 -37 91t37 91t96 35t95.5 -35t36.5 -91t-36.5 -91t-95.5 -35t-96 35zM373.5 664q13.5 13 13.5 34t-13.5 34t-33.5 13q-21 0 -34.5 -13t-13.5 -34t13.5 -34t34.5 -13q20 0 33.5 13z" />
    <glyph glyph-name="atilde" unicode="&#xe3;" horiz-adv-x="676" 
d="M464 530h149v-530h-149l-8 47q-69 -58 -163 -58q-77 0 -137 36t-93 99t-33 141q0 81 34 143.5t94 97.5t135 35q47 0 89 -15.5t75 -43.5zM404.5 181.5q32.5 32.5 32.5 83.5t-32.5 83.5t-82.5 32.5t-82.5 -32.5t-32.5 -83.5t32.5 -83.5t82.5 -32.5t82.5 32.5zM346 596
q-9 4 -22 10t-22.5 9t-19.5 3q-14 0 -22.5 -11t-8.5 -29h-131q0 78 36 121.5t99 43.5q26 0 45 -6.5t45 -19.5q34 -17 56 -17q15 0 22.5 9t7.5 29h129q1 -78 -32.5 -121t-93.5 -43q-38 0 -88 22z" />
    <glyph glyph-name="ae" unicode="&#xe6;" horiz-adv-x="1047" 
d="M627 214q11 -37 39.5 -56.5t71.5 -19.5q26 0 48.5 8.5t37.5 22.5h182q-27 -84 -96 -132.5t-160 -48.5q-94 0 -164 51l-6 -39h-121l-6 46q-33 -27 -75 -42t-88 -15q-77 0 -136 36.5t-91.5 99.5t-32.5 140q0 79 33.5 142t92.5 98.5t134 35.5q94 0 164 -57l5 46h121l5 -40
q71 52 165 52q78 0 139.5 -35t96 -97.5t34.5 -141.5q0 -30 -4 -54h-389zM851 316q-11 36 -40 56.5t-73 20.5q-41 0 -70 -20.5t-41 -56.5h224zM403.5 181.5q32.5 32.5 32.5 83.5t-32.5 83.5t-82.5 32.5q-51 0 -83.5 -32.5t-32.5 -83.5t32.5 -83.5t83.5 -32.5q50 0 82.5 32.5z
" />
    <glyph glyph-name="aeacute" unicode="&#x1fd;" horiz-adv-x="1047" 
d="M627 214q11 -37 39.5 -56.5t71.5 -19.5q26 0 48.5 8.5t37.5 22.5h182q-27 -84 -96 -132.5t-160 -48.5q-94 0 -164 51l-6 -39h-121l-6 46q-33 -27 -75 -42t-88 -15q-77 0 -136 36.5t-91.5 99.5t-32.5 140q0 79 33.5 142t92.5 98.5t134 35.5q94 0 164 -57l5 46h121l5 -40
q71 52 165 52q78 0 139.5 -35t96 -97.5t34.5 -141.5q0 -30 -4 -54h-389zM851 316q-11 36 -40 56.5t-73 20.5q-41 0 -70 -20.5t-41 -56.5h224zM403.5 181.5q32.5 32.5 32.5 83.5t-32.5 83.5t-82.5 32.5q-51 0 -83.5 -32.5t-32.5 -83.5t32.5 -83.5t83.5 -32.5q50 0 82.5 32.5z
M579 582h-147v8l86 143h178v-8z" />
    <glyph glyph-name="b" unicode="b" horiz-adv-x="675" 
d="M518.5 505.5q59.5 -35.5 93 -98.5t33.5 -142q0 -77 -32.5 -140t-92 -99.5t-136.5 -36.5q-93 0 -164 58l-7 -47h-149v700h177v-201q62 42 143 42q75 0 134.5 -35.5zM436.5 181.5q32.5 32.5 32.5 83.5t-32.5 83.5t-82.5 32.5t-82.5 -32.5t-32.5 -83.5t32.5 -83.5
t82.5 -32.5t82.5 32.5z" />
    <glyph glyph-name="c" unicode="c" horiz-adv-x="616" 
d="M167 23.5q-65 35.5 -101.5 98.5t-36.5 143t36.5 143t101.5 98.5t147 35.5q74 0 133.5 -29t97.5 -81.5t47 -120.5h-170q-13 32 -41 51t-64 19q-50 0 -81 -32t-31 -84t31 -84t81 -32q37 0 64 19t41 52h171q-9 -69 -47 -121.5t-98 -81.5t-134 -29q-82 0 -147 35.5z" />
    <glyph glyph-name="cacute" unicode="&#x107;" horiz-adv-x="616" 
d="M167 23.5q-65 35.5 -101.5 98.5t-36.5 143t36.5 143t101.5 98.5t147 35.5q74 0 133.5 -29t97.5 -81.5t47 -120.5h-170q-13 32 -41 51t-64 19q-50 0 -81 -32t-31 -84t31 -84t81 -32q37 0 64 19t41 52h171q-9 -69 -47 -121.5t-98 -81.5t-134 -29q-82 0 -147 35.5zM373 582
h-147v8l86 143h178v-8z" />
    <glyph glyph-name="ccaron" unicode="&#x10d;" horiz-adv-x="616" 
d="M167 23.5q-65 35.5 -101.5 98.5t-36.5 143t36.5 143t101.5 98.5t147 35.5q74 0 133.5 -29t97.5 -81.5t47 -120.5h-170q-13 32 -41 51t-64 19q-50 0 -81 -32t-31 -84t31 -84t81 -32q37 0 64 19t41 52h171q-9 -69 -47 -121.5t-98 -81.5t-134 -29q-82 0 -147 35.5zM314 669
l68 67h145v-15l-131 -140h-163l-131 140v15h145z" />
    <glyph glyph-name="ccedilla" unicode="&#xe7;" horiz-adv-x="616" 
d="M593 220q-12 -90 -71.5 -150.5t-149.5 -76.5l-14 -27q91 -10 91 -84q0 -53 -36 -79t-105 -26q-55 0 -105 12v91q40 -10 79 -10q51 0 51 22q0 23 -39 23q-13 0 -33 -4l-17 21l28 58q-71 9 -126.5 46.5t-86 96.5t-30.5 132q0 80 36.5 143t101.5 98.5t147 35.5
q74 0 133.5 -29t97.5 -81.5t47 -120.5h-170q-13 32 -41 51t-64 19q-50 0 -81 -32t-31 -84t31 -84t81 -32q37 0 64 19t41 52h171z" />
    <glyph glyph-name="ccircumflex" unicode="&#x109;" horiz-adv-x="616" 
d="M167 23.5q-65 35.5 -101.5 98.5t-36.5 143t36.5 143t101.5 98.5t147 35.5q74 0 133.5 -29t97.5 -81.5t47 -120.5h-170q-13 32 -41 51t-64 19q-50 0 -81 -32t-31 -84t31 -84t81 -32q37 0 64 19t41 52h171q-9 -69 -47 -121.5t-98 -81.5t-134 -29q-82 0 -147 35.5zM232 736
h164l131 -139v-16h-146l-67 67l-67 -67h-146v16z" />
    <glyph glyph-name="cdotaccent" unicode="&#x10b;" horiz-adv-x="616" 
d="M167 23.5q-65 35.5 -101.5 98.5t-36.5 143t36.5 143t101.5 98.5t147 35.5q74 0 133.5 -29t97.5 -81.5t47 -120.5h-170q-13 32 -41 51t-64 19q-50 0 -81 -32t-31 -84t31 -84t81 -32q37 0 64 19t41 52h171q-9 -69 -47 -121.5t-98 -81.5t-134 -29q-82 0 -147 35.5z
M247 598.5q-26 25.5 -26 65.5t26 65.5t68 25.5q41 0 67.5 -25.5t26.5 -65.5t-26.5 -65.5t-67.5 -25.5q-42 0 -68 25.5z" />
    <glyph glyph-name="d" unicode="d" horiz-adv-x="675" 
d="M434 700h177v-700h-149l-7 48q-70 -59 -165 -59q-77 0 -136 36.5t-91.5 99.5t-32.5 140q0 79 33.5 142t92.5 98.5t134 35.5q79 0 144 -43v202zM403.5 181.5q32.5 32.5 32.5 83.5t-32.5 83.5t-82.5 32.5q-51 0 -83.5 -32.5t-32.5 -83.5t32.5 -83.5t83.5 -32.5
q50 0 82.5 32.5z" />
    <glyph glyph-name="eth" unicode="&#xf0;" horiz-adv-x="636" 
d="M532 466q40 -51 57 -100t17 -100q0 -80 -37 -143.5t-102.5 -99.5t-148.5 -36t-149 35.5t-103 99t-37 142.5q0 75 34 134.5t95 94.5t138 39l-29 37l-121 -34v74l75 21l-54 70v17h174l33 -43l125 35v-74l-79 -22zM398.5 182.5q31.5 33.5 31.5 83.5t-31.5 83t-80.5 33
t-81 -33t-32 -83t32 -83.5t81 -33.5t80.5 33.5z" />
    <glyph glyph-name="dcaron" unicode="&#x10f;" horiz-adv-x="744" 
d="M434 700h177v-700h-149l-7 48q-70 -59 -165 -59q-77 0 -136 36.5t-91.5 99.5t-32.5 140q0 79 33.5 142t92.5 98.5t134 35.5q79 0 144 -43v202zM403.5 181.5q32.5 32.5 32.5 83.5t-32.5 83.5t-82.5 32.5q-51 0 -83.5 -32.5t-32.5 -83.5t32.5 -83.5t83.5 -32.5
q50 0 82.5 32.5zM640 520v9l18 171h141v-33l-29 -147h-130z" />
    <glyph glyph-name="dcroat" unicode="&#x111;" horiz-adv-x="669" 
d="M676 659v-89h-75v-570h-149l-7 45q-69 -56 -160 -56q-73 0 -131 35t-91 97t-33 140t33 140t91 96.5t131 34.5q75 0 139 -40v79h-132v88h132v41h177v-41h75zM395 180.5q31 31.5 31 80.5t-31 80.5t-80 31.5q-48 0 -79 -31.5t-31 -80.5t31 -80.5t79 -31.5q49 0 80 31.5z" />
    <glyph glyph-name="e" unicode="e" horiz-adv-x="624" 
d="M204 214q11 -37 39.5 -56.5t71.5 -19.5q26 0 48.5 8.5t37.5 22.5h182q-28 -84 -100.5 -132.5t-168.5 -48.5q-81 0 -146 35.5t-102 99t-37 142.5q0 80 36.5 143t101.5 98.5t147 35.5t147 -35t101 -97.5t36 -140.5q0 -23 -5 -55h-389zM428 316q-11 36 -40 56.5t-72 20.5
q-42 0 -71 -20t-41 -57h224z" />
    <glyph glyph-name="eacute" unicode="&#xe9;" horiz-adv-x="624" 
d="M204 214q11 -37 39.5 -56.5t71.5 -19.5q26 0 48.5 8.5t37.5 22.5h182q-28 -84 -100.5 -132.5t-168.5 -48.5q-81 0 -146 35.5t-102 99t-37 142.5q0 80 36.5 143t101.5 98.5t147 35.5t147 -35t101 -97.5t36 -140.5q0 -23 -5 -55h-389zM428 316q-11 36 -40 56.5t-72 20.5
q-42 0 -71 -20t-41 -57h224zM373 582h-147v8l86 143h178v-8z" />
    <glyph glyph-name="ebreve" unicode="&#x115;" horiz-adv-x="624" 
d="M204 214q11 -37 39.5 -56.5t71.5 -19.5q26 0 48.5 8.5t37.5 22.5h182q-28 -84 -100.5 -132.5t-168.5 -48.5q-81 0 -146 35.5t-102 99t-37 142.5q0 80 36.5 143t101.5 98.5t147 35.5t147 -35t101 -97.5t36 -140.5q0 -23 -5 -55h-389zM428 316q-11 36 -40 56.5t-72 20.5
q-42 0 -71 -20t-41 -57h224zM174 616.5q-52 43.5 -52 119.5h126q0 -26 18.5 -41t48.5 -15t48 15t18 41h126q0 -75 -51.5 -119t-140.5 -44t-141 43.5z" />
    <glyph glyph-name="ecaron" unicode="&#x11b;" horiz-adv-x="624" 
d="M204 214q11 -37 39.5 -56.5t71.5 -19.5q26 0 48.5 8.5t37.5 22.5h182q-28 -84 -100.5 -132.5t-168.5 -48.5q-81 0 -146 35.5t-102 99t-37 142.5q0 80 36.5 143t101.5 98.5t147 35.5t147 -35t101 -97.5t36 -140.5q0 -23 -5 -55h-389zM428 316q-11 36 -40 56.5t-72 20.5
q-42 0 -71 -20t-41 -57h224zM314 669l68 67h145v-15l-131 -140h-163l-131 140v15h145z" />
    <glyph glyph-name="ecircumflex" unicode="&#xea;" horiz-adv-x="624" 
d="M204 214q11 -37 39.5 -56.5t71.5 -19.5q26 0 48.5 8.5t37.5 22.5h182q-28 -84 -100.5 -132.5t-168.5 -48.5q-81 0 -146 35.5t-102 99t-37 142.5q0 80 36.5 143t101.5 98.5t147 35.5t147 -35t101 -97.5t36 -140.5q0 -23 -5 -55h-389zM428 316q-11 36 -40 56.5t-72 20.5
q-42 0 -71 -20t-41 -57h224zM232 736h164l131 -139v-16h-146l-67 67l-67 -67h-146v16z" />
    <glyph glyph-name="edieresis" unicode="&#xeb;" horiz-adv-x="624" 
d="M204 214q11 -37 39.5 -56.5t71.5 -19.5q26 0 48.5 8.5t37.5 22.5h182q-28 -84 -100.5 -132.5t-168.5 -48.5q-81 0 -146 35.5t-102 99t-37 142.5q0 80 36.5 143t101.5 98.5t147 35.5t147 -35t101 -97.5t36 -140.5q0 -23 -5 -55h-389zM428 316q-11 36 -40 56.5t-72 20.5
q-42 0 -71 -20t-41 -57h224zM121 603q-26 24 -26 62q0 39 26 62.5t67 23.5q42 0 67.5 -23.5t25.5 -62.5q0 -38 -25.5 -62t-67.5 -24q-41 0 -67 24zM373 603q-26 24 -26 62q0 39 26 62.5t67 23.5q42 0 67.5 -23.5t25.5 -62.5q0 -38 -25.5 -62t-67.5 -24q-41 0 -67 24z" />
    <glyph glyph-name="edotaccent" unicode="&#x117;" horiz-adv-x="624" 
d="M204 214q11 -37 39.5 -56.5t71.5 -19.5q26 0 48.5 8.5t37.5 22.5h182q-28 -84 -100.5 -132.5t-168.5 -48.5q-81 0 -146 35.5t-102 99t-37 142.5q0 80 36.5 143t101.5 98.5t147 35.5t147 -35t101 -97.5t36 -140.5q0 -23 -5 -55h-389zM428 316q-11 36 -40 56.5t-72 20.5
q-42 0 -71 -20t-41 -57h224zM246 598.5q-26 25.5 -26 65.5t26 65.5t68 25.5q41 0 67.5 -25.5t26.5 -65.5t-26.5 -65.5t-67.5 -25.5q-42 0 -68 25.5z" />
    <glyph glyph-name="egrave" unicode="&#xe8;" horiz-adv-x="624" 
d="M204 214q11 -37 39.5 -56.5t71.5 -19.5q26 0 48.5 8.5t37.5 22.5h182q-28 -84 -100.5 -132.5t-168.5 -48.5q-81 0 -146 35.5t-102 99t-37 142.5q0 80 36.5 143t101.5 98.5t147 35.5t147 -35t101 -97.5t36 -140.5q0 -23 -5 -55h-389zM428 316q-11 36 -40 56.5t-72 20.5
q-42 0 -71 -20t-41 -57h224zM400 590v-8h-147l-117 143v8h178z" />
    <glyph glyph-name="emacron" unicode="&#x113;" horiz-adv-x="624" 
d="M204 214q11 -37 39.5 -56.5t71.5 -19.5q26 0 48.5 8.5t37.5 22.5h182q-28 -84 -100.5 -132.5t-168.5 -48.5q-81 0 -146 35.5t-102 99t-37 142.5q0 80 36.5 143t101.5 98.5t147 35.5t147 -35t101 -97.5t36 -140.5q0 -23 -5 -55h-389zM428 316q-11 36 -40 56.5t-72 20.5
q-42 0 -71 -20t-41 -57h224zM485 599h-342v112h342v-112z" />
    <glyph glyph-name="eogonek" unicode="&#x119;" horiz-adv-x="624" 
d="M204 214q11 -37 39.5 -56.5t71.5 -19.5q26 0 48.5 8.5t37.5 22.5h182q-25 -71 -78 -115q-50 -50 -70.5 -79.5t-20.5 -49.5q0 -13 8 -19t21 -6q14 0 40 7v-116q-58 -16 -98 -16q-62 0 -97 25t-35 71q0 53 48 117q-78 3 -140 39.5t-97 98.5t-35 139q0 80 36.5 143
t101.5 98.5t147 35.5t147 -35t101 -97.5t36 -140.5q0 -23 -5 -55h-389zM428 316q-11 36 -40 56.5t-72 20.5q-42 0 -71 -20t-41 -57h224z" />
    <glyph glyph-name="uni1EBD" unicode="&#x1ebd;" horiz-adv-x="624" 
d="M204 214q11 -37 39.5 -56.5t71.5 -19.5q26 0 48.5 8.5t37.5 22.5h182q-28 -84 -100.5 -132.5t-168.5 -48.5q-81 0 -146 35.5t-102 99t-37 142.5q0 80 36.5 143t101.5 98.5t147 35.5t147 -35t101 -97.5t36 -140.5q0 -23 -5 -55h-389zM428 316q-11 36 -40 56.5t-72 20.5
q-42 0 -71 -20t-41 -57h224zM320 596q-9 4 -22 10t-22.5 9t-19.5 3q-14 0 -22.5 -11t-8.5 -29h-131q0 78 36 121.5t99 43.5q26 0 45 -6.5t45 -19.5q34 -17 56 -17q15 0 22.5 9t7.5 29h129q1 -78 -32.5 -121t-93.5 -43q-38 0 -88 22z" />
    <glyph glyph-name="uni0259" unicode="&#x259;" horiz-adv-x="624" 
d="M457 506.5q65 -35.5 101.5 -98.5t36.5 -143q0 -79 -37 -142.5t-102 -99t-146 -35.5q-82 0 -147 35t-101 97.5t-36 140.5q0 23 5 55h389q-11 37 -39.5 57t-71.5 20q-25 0 -48 -9t-38 -23h-182q28 84 100.5 132.5t168.5 48.5q82 0 147 -35.5zM379 157q29 20 41 57h-224
q11 -36 40 -56.5t72 -20.5q42 0 71 20z" />
    <glyph glyph-name="f" unicode="f" horiz-adv-x="424" 
d="M299.5 571.5q-18.5 -15.5 -18.5 -48.5v-4h120v-143h-115v-376h-177v376h-87v146h87v21q0 85 54.5 127.5t151.5 42.5q39 0 92 -8v-122q-21 4 -49 4q-40 0 -58.5 -15.5z" />
    <glyph glyph-name="g" unicode="g" horiz-adv-x="661" 
d="M449 530h149v-443q0 -86 -36 -146t-100.5 -90.5t-147.5 -30.5q-113 0 -185 49t-82 146h171q6 -24 30.5 -36t59.5 -12q51 0 82.5 24t31.5 70v13q-61 -39 -140 -39q-71 0 -128.5 32t-90.5 89t-33 130q0 72 33 130.5t90.5 92t128.5 33.5q94 0 161 -56zM393 206.5
q30 29.5 30 75.5t-30 75t-79 29t-78.5 -29t-29.5 -75t29.5 -75.5t78.5 -29.5t79 29.5z" />
    <glyph glyph-name="gbreve" unicode="&#x11f;" horiz-adv-x="661" 
d="M449 530h149v-443q0 -86 -36 -146t-100.5 -90.5t-147.5 -30.5q-113 0 -185 49t-82 146h171q6 -24 30.5 -36t59.5 -12q51 0 82.5 24t31.5 70v13q-61 -39 -140 -39q-71 0 -128.5 32t-90.5 89t-33 130q0 72 33 130.5t90.5 92t128.5 33.5q94 0 161 -56zM393 206.5
q30 29.5 30 75.5t-30 75t-79 29t-78.5 -29t-29.5 -75t29.5 -75.5t78.5 -29.5t79 29.5zM191 616.5q-52 43.5 -52 119.5h126q0 -26 18.5 -41t48.5 -15t48 15t18 41h126q0 -75 -51.5 -119t-140.5 -44t-141 43.5z" />
    <glyph glyph-name="gcaron" unicode="&#x1e7;" horiz-adv-x="661" 
d="M449 530h149v-443q0 -86 -36 -146t-100.5 -90.5t-147.5 -30.5q-113 0 -185 49t-82 146h171q6 -24 30.5 -36t59.5 -12q51 0 82.5 24t31.5 70v13q-61 -39 -140 -39q-71 0 -128.5 32t-90.5 89t-33 130q0 72 33 130.5t90.5 92t128.5 33.5q94 0 161 -56zM393 206.5
q30 29.5 30 75.5t-30 75t-79 29t-78.5 -29t-29.5 -75t29.5 -75.5t78.5 -29.5t79 29.5zM331 669l68 67h145v-15l-131 -140h-163l-131 140v15h145z" />
    <glyph glyph-name="gcircumflex" unicode="&#x11d;" horiz-adv-x="661" 
d="M449 530h149v-443q0 -86 -36 -146t-100.5 -90.5t-147.5 -30.5q-113 0 -185 49t-82 146h171q6 -24 30.5 -36t59.5 -12q51 0 82.5 24t31.5 70v13q-61 -39 -140 -39q-71 0 -128.5 32t-90.5 89t-33 130q0 72 33 130.5t90.5 92t128.5 33.5q94 0 161 -56zM393 206.5
q30 29.5 30 75.5t-30 75t-79 29t-78.5 -29t-29.5 -75t29.5 -75.5t78.5 -29.5t79 29.5zM249 736h164l131 -139v-16h-146l-67 67l-67 -67h-146v16z" />
    <glyph glyph-name="uni0123" unicode="&#x123;" horiz-adv-x="661" 
d="M449 530h149v-443q0 -86 -36 -146t-100.5 -90.5t-147.5 -30.5q-113 0 -185 49t-82 146h171q6 -24 30.5 -36t59.5 -12q51 0 82.5 24t31.5 70v13q-61 -39 -140 -39q-71 0 -128.5 32t-90.5 89t-33 130q0 72 33 130.5t90.5 92t128.5 33.5q94 0 161 -56zM393 206.5
q30 29.5 30 75.5t-30 75t-79 29t-78.5 -29t-29.5 -75t29.5 -75.5t78.5 -29.5t79 29.5zM386 580h-151v34l52 161h138v-12z" />
    <glyph glyph-name="gdotaccent" unicode="&#x121;" horiz-adv-x="661" 
d="M449 530h149v-443q0 -86 -36 -146t-100.5 -90.5t-147.5 -30.5q-113 0 -185 49t-82 146h171q6 -24 30.5 -36t59.5 -12q51 0 82.5 24t31.5 70v13q-61 -39 -140 -39q-71 0 -128.5 32t-90.5 89t-33 130q0 72 33 130.5t90.5 92t128.5 33.5q94 0 161 -56zM393 206.5
q30 29.5 30 75.5t-30 75t-79 29t-78.5 -29t-29.5 -75t29.5 -75.5t78.5 -29.5t79 29.5zM263 598.5q-26 25.5 -26 65.5t26 65.5t68 25.5q41 0 67.5 -25.5t26.5 -65.5t-26.5 -65.5t-67.5 -25.5q-42 0 -68 25.5z" />
    <glyph glyph-name="h" unicode="h" horiz-adv-x="651" 
d="M545.5 479q50.5 -61 50.5 -168v-311h-178v291q0 44 -21 67.5t-60 23.5q-44 0 -70 -25t-26 -69v-288h-177v700h177v-221q29 30 68.5 45.5t85.5 15.5q100 0 150.5 -61z" />
    <glyph glyph-name="hbar" unicode="&#x127;" horiz-adv-x="651" 
d="M544.5 474q50.5 -61 50.5 -168v-306h-177v285q0 44 -21.5 68t-60.5 24q-43 0 -69.5 -25.5t-26.5 -69.5v-282h-177v571h-71v87h71v42h177v-42h148v-87h-148v-97q29 30 68.5 45.5t85.5 15.5q100 0 150.5 -61z" />
    <glyph glyph-name="hcircumflex" unicode="&#x125;" horiz-adv-x="651" 
d="M545.5 479q50.5 -61 50.5 -168v-311h-178v291q0 44 -21 67.5t-60 23.5q-44 0 -70 -25t-26 -69v-288h-177v700h177v-221q29 30 68.5 45.5t85.5 15.5q100 0 150.5 -61zM70 906h164l131 -139v-16h-146l-67 67l-67 -67h-146v16z" />
    <glyph glyph-name="i" unicode="i" horiz-adv-x="304" 
d="M80 600.5q-28 26.5 -28 67.5t28 67.5t72 26.5t72 -26.5t28 -67.5t-28 -67.5t-72 -26.5t-72 26.5zM241 0h-177v530h177v-530z" />
    <glyph glyph-name="dotlessi" unicode="&#x131;" horiz-adv-x="304" 
d="M241 0h-177v530h177v-530z" />
    <glyph glyph-name="iacute" unicode="&#xed;" horiz-adv-x="304" 
d="M241 0h-177v530h177v-530zM212 580h-131v8l44 140h162v-9z" />
    <glyph glyph-name="ibreve" unicode="&#x12d;" horiz-adv-x="304" 
d="M241 0h-177v530h177v-530zM33.5 618q-43.5 40 -43.5 110h114q0 -25 13 -38.5t36 -13.5t35.5 13.5t12.5 38.5h114q0 -70 -43 -110t-119 -40t-119.5 40z" />
    <glyph glyph-name="icircumflex" unicode="&#xee;" horiz-adv-x="304" 
d="M241 0h-177v530h177v-530zM88 728h128l104 -131v-17h-134l-34 49l-34 -49h-134v17z" />
    <glyph glyph-name="idieresis" unicode="&#xef;" horiz-adv-x="304" 
d="M241 0h-177v530h177v-530zM-21 601q-24 24 -24 62q0 39 24 62.5t63 23.5t63.5 -23.5t24.5 -62.5q0 -38 -24.5 -62t-63.5 -24t-63 24zM197.5 601q-24.5 24 -24.5 62q0 39 24.5 62.5t63.5 23.5t63.5 -23.5t24.5 -62.5q0 -38 -24.5 -62t-63.5 -24t-63.5 24z" />
    <glyph glyph-name="i.loclTRK" horiz-adv-x="304" 
d="M241 0h-177v530h177v-530zM84 598.5q-26 25.5 -26 65.5t26 65.5t68 25.5q41 0 67.5 -25.5t26.5 -65.5t-26.5 -65.5t-67.5 -25.5q-42 0 -68 25.5z" />
    <glyph glyph-name="igrave" unicode="&#xec;" horiz-adv-x="304" 
d="M241 0h-177v530h177v-530zM224 580h-131l-75 139v9h162l44 -140v-8z" />
    <glyph glyph-name="ij" unicode="&#x133;" horiz-adv-x="614" 
d="M80 600.5q-28 26.5 -28 67.5t28 67.5t72 26.5t72 -26.5t28 -67.5t-28 -67.5t-72 -26.5t-72 26.5zM241 0h-177v530h177v-530zM387 600.5q-28 26.5 -28 67.5t28 67.5t72 26.5t72 -26.5t28 -67.5t-28 -67.5t-72 -26.5t-72 26.5zM266 -172v140q32 -4 42 -4q33 0 49 16t16 54
v496h177v-515q0 -100 -52 -147.5t-145 -47.5q-37 0 -87 8z" />
    <glyph glyph-name="ijacute" horiz-adv-x="614" 
d="M241 0h-177v530h177v-530zM266 -172v140q32 -4 42 -4q33 0 49 16t16 54v496h177v-515q0 -100 -52 -147.5t-145 -47.5q-37 0 -87 8zM519 580h-131v8l44 140h162v-9zM212 580h-131v8l44 140h162v-9z" />
    <glyph glyph-name="imacron" unicode="&#x12b;" horiz-adv-x="304" 
d="M241 0h-177v530h177v-530zM299 586h-294v109h294v-109z" />
    <glyph glyph-name="iogonek" unicode="&#x12f;" horiz-adv-x="304" 
d="M80 600.5q-28 26.5 -28 67.5t28 67.5t72 26.5t72 -26.5t28 -67.5t-28 -67.5t-72 -26.5t-72 26.5zM267 -94v-116q-54 -15 -104 -15q-59 0 -93 22.5t-34 69.5q0 34 15 65t50 68h-37v530h177v-530q-23 -27 -33.5 -44.5t-10.5 -32.5q1 -24 29 -24q15 0 41 7z" />
    <glyph glyph-name="itilde" unicode="&#x129;" horiz-adv-x="304" 
d="M241 0h-177v530h177v-530zM173.5 584q-17.5 7 -35.5 20q-25 18 -43 18q-17 0 -25.5 -11t-8.5 -30h-94q0 75 31.5 113.5t88.5 38.5q25 0 43 -7.5t36 -20.5q14 -9 23.5 -13.5t19.5 -4.5q16 0 25 10.5t9 30.5h94q0 -73 -31 -112t-89 -39q-26 0 -43.5 7z" />
    <glyph glyph-name="j" unicode="j" horiz-adv-x="310" 
d="M83 600.5q-28 26.5 -28 67.5t28 67.5t72 26.5t72 -26.5t28 -67.5t-28 -67.5t-72 -26.5t-72 26.5zM-38 -172v140q32 -4 42 -4q33 0 49 16t16 54v496h177v-515q0 -100 -52 -147.5t-145 -47.5q-37 0 -87 8z" />
    <glyph glyph-name="uni0237" unicode="&#x237;" horiz-adv-x="310" 
d="M-38 -172v140q32 -4 42 -4q33 0 49 16t16 54v496h177v-515q0 -100 -52 -147.5t-145 -47.5q-37 0 -87 8z" />
    <glyph glyph-name="uni006A0301" horiz-adv-x="310" 
d="M-38 -172v140q32 -4 42 -4q33 0 49 16t16 54v496h177v-515q0 -100 -52 -147.5t-145 -47.5q-37 0 -87 8zM215 580h-131v8l44 140h162v-9z" />
    <glyph glyph-name="jcircumflex" unicode="&#x135;" horiz-adv-x="310" 
d="M-38 -172v140q32 -4 42 -4q33 0 49 16t16 54v496h177v-515q0 -100 -52 -147.5t-145 -47.5q-37 0 -87 8zM91 728h128l104 -131v-17h-134l-34 49l-34 -49h-134v17z" />
    <glyph glyph-name="k" unicode="k" horiz-adv-x="577" 
d="M551 513l-157 -238l173 -258v-17h-201l-125 201v-201h-177v700h177v-364l116 194h194v-17z" />
    <glyph glyph-name="uni0137" unicode="&#x137;" horiz-adv-x="577" 
d="M551 513l-157 -238l173 -258v-17h-201l-125 201v-201h-177v700h177v-364l116 194h194v-17zM324 -241h-143l41 196h154v-34z" />
    <glyph glyph-name="kgreenlandic" unicode="&#x138;" horiz-adv-x="577" 
d="M551 513l-157 -238l173 -258v-17h-201l-125 201v-201h-177v530h177v-194l116 194h194v-17z" />
    <glyph glyph-name="l" unicode="l" horiz-adv-x="305" 
d="M242 0h-178v700h178v-700z" />
    <glyph glyph-name="lacute" unicode="&#x13a;" horiz-adv-x="305" 
d="M242 0h-178v700h178v-700zM211 752h-147v8l86 143h178v-8z" />
    <glyph glyph-name="lcaron" unicode="&#x13e;" horiz-adv-x="376" 
d="M242 0h-178v700h178v-700zM271 520v9l18 171h141v-33l-29 -147h-130z" />
    <glyph glyph-name="uni013C" unicode="&#x13c;" horiz-adv-x="305" 
d="M242 0h-178v700h178v-700zM188 -241h-143l41 196h154v-34z" />
    <glyph glyph-name="ldot" unicode="&#x140;" horiz-adv-x="481" 
d="M242 0h-178v700h178v-700zM317 317q-27 26 -27 68q0 41 27.5 67.5t68.5 26.5q42 0 70 -26.5t28 -67.5q0 -42 -28 -68t-70 -26t-69 26z" />
    <glyph glyph-name="lslash" unicode="&#x142;" horiz-adv-x="363" 
d="M271 472l82 42v-138l-82 -42v-334h-178v243l-83 -43v137l83 43v320h178v-228z" />
    <glyph glyph-name="m" unicode="m" horiz-adv-x="997" 
d="M889 481q52 -59 52 -170v-311h-177v290q0 44 -21 68t-59 24q-43 0 -68 -25t-25 -67v-290h-177v290q0 44 -20.5 68t-59.5 24q-43 0 -68 -25t-25 -67v-290h-177v530h163l6 -59q27 33 68.5 51t91.5 18q56 0 97 -22t64 -65q72 87 186 87q97 0 149 -59z" />
    <glyph glyph-name="n" unicode="n" horiz-adv-x="651" 
d="M545.5 479q50.5 -61 50.5 -168v-311h-178v291q0 44 -21 67.5t-60 23.5q-44 0 -70 -25t-26 -69v-288h-177v530h163l6 -60q29 34 71 52t91 18q100 0 150.5 -61z" />
    <glyph glyph-name="nacute" unicode="&#x144;" horiz-adv-x="651" 
d="M545.5 479q50.5 -61 50.5 -168v-311h-178v291q0 44 -21 67.5t-60 23.5q-44 0 -70 -25t-26 -69v-288h-177v530h163l6 -60q29 34 71 52t91 18q100 0 150.5 -61zM385 582h-147v8l86 143h178v-8z" />
    <glyph glyph-name="napostrophe" unicode="&#x149;" horiz-adv-x="785" 
d="M-14 435v17l44 248h162v-53l-64 -212h-142zM678.5 472q50.5 -60 50.5 -166v-306h-177v287q0 43 -21.5 66t-60.5 23q-44 0 -70 -24.5t-26 -68.5v-283h-177v522h163l6 -58q29 33 71 50.5t91 17.5q100 0 150.5 -60z" />
    <glyph glyph-name="ncaron" unicode="&#x148;" horiz-adv-x="651" 
d="M545.5 479q50.5 -61 50.5 -168v-311h-178v291q0 44 -21 67.5t-60 23.5q-44 0 -70 -25t-26 -69v-288h-177v530h163l6 -60q29 34 71 52t91 18q100 0 150.5 -61zM326 669l68 67h145v-15l-131 -140h-163l-131 140v15h145z" />
    <glyph glyph-name="uni0146" unicode="&#x146;" horiz-adv-x="651" 
d="M545.5 479q50.5 -61 50.5 -168v-311h-178v291q0 44 -21 67.5t-60 23.5q-44 0 -70 -25t-26 -69v-288h-177v530h163l6 -60q29 34 71 52t91 18q100 0 150.5 -61zM361 -241h-143l41 196h154v-34z" />
    <glyph glyph-name="eng" unicode="&#x14b;" horiz-adv-x="651" 
d="M544 480.5q52 -59.5 52 -169.5v-316q0 -102 -54.5 -158t-149.5 -56q-49 0 -108 10v145q24 -5 54 -5q40 0 60 18t20 59v283q0 44 -21 67.5t-60 23.5q-44 0 -70 -25.5t-26 -68.5v-288h-177v530h163l6 -59q28 34 70 51.5t92 17.5q97 0 149 -59.5z" />
    <glyph glyph-name="ntilde" unicode="&#xf1;" horiz-adv-x="651" 
d="M545.5 479q50.5 -61 50.5 -168v-311h-178v291q0 44 -21 67.5t-60 23.5q-44 0 -70 -25t-26 -69v-288h-177v530h163l6 -60q29 34 71 52t91 18q100 0 150.5 -61zM332 596q-9 4 -22 10t-22.5 9t-19.5 3q-14 0 -22.5 -11t-8.5 -29h-131q0 78 36 121.5t99 43.5q26 0 45 -6.5
t45 -19.5q34 -17 56 -17q15 0 22.5 9t7.5 29h129q1 -78 -32.5 -121t-93.5 -43q-38 0 -88 22z" />
    <glyph glyph-name="o" unicode="o" horiz-adv-x="640" 
d="M170.5 23.5q-66.5 35.5 -104 99t-37.5 142.5q0 80 37.5 143t103.5 98.5t150 35.5t150 -35.5t103.5 -98.5t37.5 -143q0 -79 -37.5 -142.5t-104 -99t-149.5 -35.5t-149.5 35.5zM402 181.5q32 32.5 32 83.5t-32 83.5t-82 32.5q-49 0 -81.5 -32.5t-32.5 -83.5t32.5 -83.5
t81.5 -32.5q50 0 82 32.5z" />
    <glyph glyph-name="oacute" unicode="&#xf3;" horiz-adv-x="640" 
d="M170.5 23.5q-66.5 35.5 -104 99t-37.5 142.5q0 80 37.5 143t103.5 98.5t150 35.5t150 -35.5t103.5 -98.5t37.5 -143q0 -79 -37.5 -142.5t-104 -99t-149.5 -35.5t-149.5 35.5zM402 181.5q32 32.5 32 83.5t-32 83.5t-82 32.5q-49 0 -81.5 -32.5t-32.5 -83.5t32.5 -83.5
t81.5 -32.5q50 0 82 32.5zM379 582h-147v8l86 143h178v-8z" />
    <glyph glyph-name="obreve" unicode="&#x14f;" horiz-adv-x="640" 
d="M170.5 23.5q-66.5 35.5 -104 99t-37.5 142.5q0 80 37.5 143t103.5 98.5t150 35.5t150 -35.5t103.5 -98.5t37.5 -143q0 -79 -37.5 -142.5t-104 -99t-149.5 -35.5t-149.5 35.5zM402 181.5q32 32.5 32 83.5t-32 83.5t-82 32.5q-49 0 -81.5 -32.5t-32.5 -83.5t32.5 -83.5
t81.5 -32.5q50 0 82 32.5zM180 616.5q-52 43.5 -52 119.5h126q0 -26 18.5 -41t48.5 -15t48 15t18 41h126q0 -75 -51.5 -119t-140.5 -44t-141 43.5z" />
    <glyph glyph-name="ocircumflex" unicode="&#xf4;" horiz-adv-x="640" 
d="M170.5 23.5q-66.5 35.5 -104 99t-37.5 142.5q0 80 37.5 143t103.5 98.5t150 35.5t150 -35.5t103.5 -98.5t37.5 -143q0 -79 -37.5 -142.5t-104 -99t-149.5 -35.5t-149.5 35.5zM402 181.5q32 32.5 32 83.5t-32 83.5t-82 32.5q-49 0 -81.5 -32.5t-32.5 -83.5t32.5 -83.5
t81.5 -32.5q50 0 82 32.5zM238 736h164l131 -139v-16h-146l-67 67l-67 -67h-146v16z" />
    <glyph glyph-name="odieresis" unicode="&#xf6;" horiz-adv-x="640" 
d="M170.5 23.5q-66.5 35.5 -104 99t-37.5 142.5q0 80 37.5 143t103.5 98.5t150 35.5t150 -35.5t103.5 -98.5t37.5 -143q0 -79 -37.5 -142.5t-104 -99t-149.5 -35.5t-149.5 35.5zM402 181.5q32 32.5 32 83.5t-32 83.5t-82 32.5q-49 0 -81.5 -32.5t-32.5 -83.5t32.5 -83.5
t81.5 -32.5q50 0 82 32.5zM127 603q-26 24 -26 62q0 39 26 62.5t67 23.5q42 0 67.5 -23.5t25.5 -62.5q0 -38 -25.5 -62t-67.5 -24q-41 0 -67 24zM379 603q-26 24 -26 62q0 39 26 62.5t67 23.5q42 0 67.5 -23.5t25.5 -62.5q0 -38 -25.5 -62t-67.5 -24q-41 0 -67 24z" />
    <glyph glyph-name="ograve" unicode="&#xf2;" horiz-adv-x="640" 
d="M170.5 23.5q-66.5 35.5 -104 99t-37.5 142.5q0 80 37.5 143t103.5 98.5t150 35.5t150 -35.5t103.5 -98.5t37.5 -143q0 -79 -37.5 -142.5t-104 -99t-149.5 -35.5t-149.5 35.5zM402 181.5q32 32.5 32 83.5t-32 83.5t-82 32.5q-49 0 -81.5 -32.5t-32.5 -83.5t32.5 -83.5
t81.5 -32.5q50 0 82 32.5zM406 590v-8h-147l-117 143v8h178z" />
    <glyph glyph-name="ohungarumlaut" unicode="&#x151;" horiz-adv-x="640" 
d="M170.5 23.5q-66.5 35.5 -104 99t-37.5 142.5q0 80 37.5 143t103.5 98.5t150 35.5t150 -35.5t103.5 -98.5t37.5 -143q0 -79 -37.5 -142.5t-104 -99t-149.5 -35.5t-149.5 35.5zM402 181.5q32 32.5 32 83.5t-32 83.5t-82 32.5q-49 0 -81.5 -32.5t-32.5 -83.5t32.5 -83.5
t81.5 -32.5q50 0 82 32.5zM279 582h-145v8l78 144h168v-8zM478 582h-139v8l101 144h167v-8z" />
    <glyph glyph-name="omacron" unicode="&#x14d;" horiz-adv-x="640" 
d="M170.5 23.5q-66.5 35.5 -104 99t-37.5 142.5q0 80 37.5 143t103.5 98.5t150 35.5t150 -35.5t103.5 -98.5t37.5 -143q0 -79 -37.5 -142.5t-104 -99t-149.5 -35.5t-149.5 35.5zM402 181.5q32 32.5 32 83.5t-32 83.5t-82 32.5q-49 0 -81.5 -32.5t-32.5 -83.5t32.5 -83.5
t81.5 -32.5q50 0 82 32.5zM491 599h-342v112h342v-112z" />
    <glyph glyph-name="oslash" unicode="&#xf8;" horiz-adv-x="642" 
d="M521 472q43 -37 67 -90.5t24 -116.5q0 -79 -37.5 -142.5t-104 -99t-149.5 -35.5q-45 0 -82 10l-49 -81h-143v18l74 123q-43 38 -67 91t-24 116q0 80 37.5 143t103.5 98.5t150 35.5q45 0 82 -10l48 81h144v-17zM403.5 180.5q32.5 33.5 32.5 84.5t-33 85t-82 34t-82 -34
t-33 -85t32.5 -84.5t82.5 -33.5t82.5 33.5z" />
    <glyph glyph-name="oslashacute" unicode="&#x1ff;" horiz-adv-x="642" 
d="M521 472q43 -37 67 -90.5t24 -116.5q0 -79 -37.5 -142.5t-104 -99t-149.5 -35.5q-45 0 -82 10l-49 -81h-143v18l74 123q-43 38 -67 91t-24 116q0 80 37.5 143t103.5 98.5t150 35.5q45 0 82 -10l48 81h144v-17zM403.5 180.5q32.5 33.5 32.5 84.5t-33 85t-82 34t-82 -34
t-33 -85t32.5 -84.5t82.5 -33.5t82.5 33.5zM380 582h-147v8l86 143h178v-8z" />
    <glyph glyph-name="otilde" unicode="&#xf5;" horiz-adv-x="640" 
d="M170.5 23.5q-66.5 35.5 -104 99t-37.5 142.5q0 80 37.5 143t103.5 98.5t150 35.5t150 -35.5t103.5 -98.5t37.5 -143q0 -79 -37.5 -142.5t-104 -99t-149.5 -35.5t-149.5 35.5zM402 181.5q32 32.5 32 83.5t-32 83.5t-82 32.5q-49 0 -81.5 -32.5t-32.5 -83.5t32.5 -83.5
t81.5 -32.5q50 0 82 32.5zM326 596q-9 4 -22 10t-22.5 9t-19.5 3q-14 0 -22.5 -11t-8.5 -29h-131q0 78 36 121.5t99 43.5q26 0 45 -6.5t45 -19.5q34 -17 56 -17q15 0 22.5 9t7.5 29h129q1 -78 -32.5 -121t-93.5 -43q-38 0 -88 22z" />
    <glyph glyph-name="oe" unicode="&#x153;" horiz-adv-x="1026" 
d="M607 214q11 -37 39.5 -56.5t70.5 -19.5q25 0 48.5 8.5t37.5 22.5h182q-27 -83 -97 -132t-162 -49q-63 0 -116 23t-90 64q-38 -41 -92 -64t-118 -23q-81 0 -145 35.5t-100 98.5t-36 143t36 143t100 98.5t145 35.5q64 0 118 -23t92 -64q37 41 90 64t116 23q80 0 142 -35
t96.5 -97.5t34.5 -140.5q0 -30 -4 -55h-388zM830 316q-11 36 -40.5 56.5t-72.5 20.5q-42 0 -70.5 -20t-39.5 -57h223zM402 181.5q32 32.5 32 83.5t-32 83.5t-82 32.5q-49 0 -81.5 -32.5t-32.5 -83.5t32.5 -83.5t81.5 -32.5q50 0 82 32.5z" />
    <glyph glyph-name="p" unicode="p" horiz-adv-x="675" 
d="M518.5 505.5q59.5 -35.5 93 -98.5t33.5 -142q0 -77 -32.5 -140t-92 -99.5t-136.5 -36.5q-79 0 -143 42v-198h-177v697h149l6 -47q34 28 76 43t89 15q75 0 134.5 -35.5zM436.5 181.5q32.5 32.5 32.5 83.5t-32.5 83.5t-82.5 32.5t-82.5 -32.5t-32.5 -83.5t32.5 -83.5
t82.5 -32.5t82.5 32.5z" />
    <glyph glyph-name="thorn" unicode="&#xfe;" horiz-adv-x="675" 
d="M518.5 505.5q59.5 -35.5 93 -98.5t33.5 -142q0 -77 -32.5 -140t-92 -99.5t-136.5 -36.5q-79 0 -143 42v-198h-177v867h177v-201q62 42 143 42q75 0 134.5 -35.5zM436.5 181.5q32.5 32.5 32.5 83.5t-32.5 83.5t-82.5 32.5t-82.5 -32.5t-32.5 -83.5t32.5 -83.5t82.5 -32.5
t82.5 32.5z" />
    <glyph glyph-name="q" unicode="q" horiz-adv-x="675" 
d="M462 530h149v-697h-177v199q-63 -43 -144 -43q-77 0 -136 36.5t-91.5 99.5t-32.5 140q0 79 33.5 142t93 98.5t134.5 35.5q47 0 89 -15t76 -43zM403.5 181.5q32.5 32.5 32.5 83.5t-32.5 83.5t-82.5 32.5q-51 0 -83.5 -32.5t-32.5 -83.5t32.5 -83.5t83.5 -32.5
q50 0 82.5 32.5z" />
    <glyph glyph-name="r" unicode="r" horiz-adv-x="449" 
d="M432 530v-163q-34 7 -65 7q-61 0 -93.5 -32t-32.5 -94v-248h-177v530h162l6 -54q24 30 60 46t79 16q27 0 61 -8z" />
    <glyph glyph-name="racute" unicode="&#x155;" horiz-adv-x="449" 
d="M432 530v-163q-34 7 -65 7q-61 0 -93.5 -32t-32.5 -94v-248h-177v530h162l6 -54q24 30 60 46t79 16q27 0 61 -8zM298 582h-147v8l86 143h178v-8z" />
    <glyph glyph-name="rcaron" unicode="&#x159;" horiz-adv-x="449" 
d="M432 530v-163q-34 7 -65 7q-61 0 -93.5 -32t-32.5 -94v-248h-177v530h162l6 -54q24 30 60 46t79 16q27 0 61 -8zM239 669l68 67h145v-15l-131 -140h-163l-131 140v15h145z" />
    <glyph glyph-name="uni0157" unicode="&#x157;" horiz-adv-x="449" 
d="M432 530v-163q-34 7 -65 7q-61 0 -93.5 -32t-32.5 -94v-248h-177v530h162l6 -54q24 30 60 46t79 16q27 0 61 -8zM187 -241h-143l41 196h154v-34z" />
    <glyph glyph-name="s" unicode="s" horiz-adv-x="529" 
d="M95 36.5q-64 48.5 -68 131.5h174q1 -22 19 -33.5t49 -11.5q28 0 44.5 10t16.5 27q0 19 -19.5 28t-74.5 16q-203 24 -203 164q0 52 28.5 91.5t80.5 61t121 21.5q64 0 115 -22t81 -61.5t33 -89.5h-167q-4 39 -64 39q-26 0 -40.5 -8.5t-14.5 -24.5q0 -19 21.5 -29t75.5 -16
q202 -22 202 -167q0 -52 -29.5 -91.5t-83.5 -61.5t-125 -22q-108 0 -172 48.5z" />
    <glyph glyph-name="sacute" unicode="&#x15b;" horiz-adv-x="529" 
d="M95 36.5q-64 48.5 -68 131.5h174q1 -22 19 -33.5t49 -11.5q28 0 44.5 10t16.5 27q0 19 -19.5 28t-74.5 16q-203 24 -203 164q0 52 28.5 91.5t80.5 61t121 21.5q64 0 115 -22t81 -61.5t33 -89.5h-167q-4 39 -64 39q-26 0 -40.5 -8.5t-14.5 -24.5q0 -19 21.5 -29t75.5 -16
q202 -22 202 -167q0 -52 -29.5 -91.5t-83.5 -61.5t-125 -22q-108 0 -172 48.5zM323 582h-147v8l86 143h178v-8z" />
    <glyph glyph-name="scaron" unicode="&#x161;" horiz-adv-x="529" 
d="M95 36.5q-64 48.5 -68 131.5h174q1 -22 19 -33.5t49 -11.5q28 0 44.5 10t16.5 27q0 19 -19.5 28t-74.5 16q-203 24 -203 164q0 52 28.5 91.5t80.5 61t121 21.5q64 0 115 -22t81 -61.5t33 -89.5h-167q-4 39 -64 39q-26 0 -40.5 -8.5t-14.5 -24.5q0 -19 21.5 -29t75.5 -16
q202 -22 202 -167q0 -52 -29.5 -91.5t-83.5 -61.5t-125 -22q-108 0 -172 48.5zM264 669l68 67h145v-15l-131 -140h-163l-131 140v15h145z" />
    <glyph glyph-name="scedilla" unicode="&#x15f;" horiz-adv-x="529" 
d="M455 48q-50 -46 -136 -57l-13 -25q91 -10 91 -84q0 -53 -36 -79t-105 -26q-55 0 -105 12v91q40 -10 79 -10q51 0 51 22q0 23 -39 23q-13 0 -33 -4l-17 21l28 59q-87 10 -138.5 57t-54.5 120h174q1 -22 19 -33.5t49 -11.5q28 0 44.5 10t16.5 27q0 19 -19.5 28t-74.5 16
q-203 24 -203 164q0 52 28.5 91.5t80.5 61t121 21.5q64 0 115 -22t81 -61.5t33 -89.5h-167q-4 39 -64 39q-26 0 -40.5 -8.5t-14.5 -24.5q0 -19 21.5 -29t75.5 -16q202 -22 202 -167q0 -69 -50 -115z" />
    <glyph glyph-name="scircumflex" unicode="&#x15d;" horiz-adv-x="529" 
d="M95 36.5q-64 48.5 -68 131.5h174q1 -22 19 -33.5t49 -11.5q28 0 44.5 10t16.5 27q0 19 -19.5 28t-74.5 16q-203 24 -203 164q0 52 28.5 91.5t80.5 61t121 21.5q64 0 115 -22t81 -61.5t33 -89.5h-167q-4 39 -64 39q-26 0 -40.5 -8.5t-14.5 -24.5q0 -19 21.5 -29t75.5 -16
q202 -22 202 -167q0 -52 -29.5 -91.5t-83.5 -61.5t-125 -22q-108 0 -172 48.5zM182 736h164l131 -139v-16h-146l-67 67l-67 -67h-146v16z" />
    <glyph glyph-name="uni0219" unicode="&#x219;" horiz-adv-x="529" 
d="M95 36.5q-64 48.5 -68 131.5h174q1 -22 19 -33.5t49 -11.5q28 0 44.5 10t16.5 27q0 19 -19.5 28t-74.5 16q-203 24 -203 164q0 52 28.5 91.5t80.5 61t121 21.5q64 0 115 -22t81 -61.5t33 -89.5h-167q-4 39 -64 39q-26 0 -40.5 -8.5t-14.5 -24.5q0 -19 21.5 -29t75.5 -16
q202 -22 202 -167q0 -52 -29.5 -91.5t-83.5 -61.5t-125 -22q-108 0 -172 48.5zM302 -241h-143l41 196h154v-34z" />
    <glyph glyph-name="germandbls" unicode="&#xdf;" horiz-adv-x="641" 
d="M615 207q0 -103 -61 -160.5t-168 -57.5q-48 0 -103 11v144q36 -9 66 -9q47 0 68.5 22t21.5 68q0 88 -98 88h-50v135h48q37 0 60 22t23 58q0 35 -23.5 56.5t-60.5 21.5q-47 0 -73.5 -30.5t-26.5 -86.5v-489h-174v479q0 83 33 144t94.5 94t144.5 33q73 0 130 -25t89.5 -71
t32.5 -106q0 -104 -80 -160q107 -54 107 -181z" />
    <glyph glyph-name="longs" unicode="&#x17f;" horiz-adv-x="379" 
d="M64 534q0 87 56 133t152 46q41 0 89 -8v-144q-19 4 -46 4q-40 0 -57 -15t-17 -50v-500h-177v534z" />
    <glyph glyph-name="t" unicode="t" horiz-adv-x="441" 
d="M407 144v-144q-57 -11 -100 -11q-95 0 -148.5 49t-53.5 147v199h-87v146h87v108l178 18v-126h117v-146h-117v-174q0 -38 18.5 -53.5t56.5 -15.5q23 0 49 3z" />
    <glyph glyph-name="tbar" unicode="&#x167;" horiz-adv-x="443" 
d="M407 144v-144q-57 -11 -100 -11q-95 0 -148.5 49t-53.5 147v37h-81v108h81v68h-87v132h87v114l178 18v-132h117v-132h-117v-68h112v-105h-112v-15q0 -38 18.5 -53.5t56.5 -15.5q23 0 49 3z" />
    <glyph glyph-name="tcaron" unicode="&#x165;" horiz-adv-x="441" 
d="M407 144v-144q-57 -11 -100 -11q-95 0 -148.5 49t-53.5 147v199h-87v146h87v108l178 18v-126h117v-146h-117v-174q0 -38 18.5 -53.5t56.5 -15.5q23 0 49 3zM342 586v9l18 171h141v-33l-29 -147h-130z" />
    <glyph glyph-name="uni0163" unicode="&#x163;" horiz-adv-x="441" 
d="M407 0q-50 -10 -87 -11l-12 -23q91 -10 91 -84q0 -53 -36 -79t-105 -26q-55 0 -105 12v91q40 -10 79 -10q51 0 51 22q0 23 -39 23q-13 0 -33 -4l-17 21l33 68q-59 18 -90.5 64t-31.5 121v199h-87v146h87v108l178 18v-126h117v-146h-117v-174q0 -38 18.5 -53.5t56.5 -15.5
q23 0 49 3v-144z" />
    <glyph glyph-name="uni021B" unicode="&#x21b;" horiz-adv-x="441" 
d="M407 144v-144q-57 -11 -100 -11q-95 0 -148.5 49t-53.5 147v199h-87v146h87v108l178 18v-126h117v-146h-117v-174q0 -38 18.5 -53.5t56.5 -15.5q23 0 49 3zM303 -241h-143l41 196h154v-34z" />
    <glyph glyph-name="u" unicode="u" horiz-adv-x="639" 
d="M406 530h177v-530h-164l-5 57q-29 -33 -70 -50t-89 -17q-95 0 -147 59.5t-52 169.5v311h177v-289q0 -45 20.5 -69t56.5 -24q44 0 70 26t26 71v285z" />
    <glyph glyph-name="uacute" unicode="&#xfa;" horiz-adv-x="639" 
d="M406 530h177v-530h-164l-5 57q-29 -33 -70 -50t-89 -17q-95 0 -147 59.5t-52 169.5v311h177v-289q0 -45 20.5 -69t56.5 -24q44 0 70 26t26 71v285zM381 582h-147v8l86 143h178v-8z" />
    <glyph glyph-name="ubreve" unicode="&#x16d;" horiz-adv-x="639" 
d="M406 530h177v-530h-164l-5 57q-29 -33 -70 -50t-89 -17q-95 0 -147 59.5t-52 169.5v311h177v-289q0 -45 20.5 -69t56.5 -24q44 0 70 26t26 71v285zM182 616.5q-52 43.5 -52 119.5h126q0 -26 18.5 -41t48.5 -15t48 15t18 41h126q0 -75 -51.5 -119t-140.5 -44t-141 43.5z
" />
    <glyph glyph-name="ucircumflex" unicode="&#xfb;" horiz-adv-x="639" 
d="M406 530h177v-530h-164l-5 57q-29 -33 -70 -50t-89 -17q-95 0 -147 59.5t-52 169.5v311h177v-289q0 -45 20.5 -69t56.5 -24q44 0 70 26t26 71v285zM241 736h164l131 -139v-16h-146l-67 67l-67 -67h-146v16z" />
    <glyph glyph-name="udieresis" unicode="&#xfc;" horiz-adv-x="639" 
d="M406 530h177v-530h-164l-5 57q-29 -33 -70 -50t-89 -17q-95 0 -147 59.5t-52 169.5v311h177v-289q0 -45 20.5 -69t56.5 -24q44 0 70 26t26 71v285zM129 603q-26 24 -26 62q0 39 26 62.5t67 23.5q42 0 67.5 -23.5t25.5 -62.5q0 -38 -25.5 -62t-67.5 -24q-41 0 -67 24z
M381 603q-26 24 -26 62q0 39 26 62.5t67 23.5q42 0 67.5 -23.5t25.5 -62.5q0 -38 -25.5 -62t-67.5 -24q-41 0 -67 24z" />
    <glyph glyph-name="ugrave" unicode="&#xf9;" horiz-adv-x="639" 
d="M406 530h177v-530h-164l-5 57q-29 -33 -70 -50t-89 -17q-95 0 -147 59.5t-52 169.5v311h177v-289q0 -45 20.5 -69t56.5 -24q44 0 70 26t26 71v285zM409 590v-8h-147l-117 143v8h178z" />
    <glyph glyph-name="uhungarumlaut" unicode="&#x171;" horiz-adv-x="639" 
d="M406 530h177v-530h-164l-5 57q-29 -33 -70 -50t-89 -17q-95 0 -147 59.5t-52 169.5v311h177v-289q0 -45 20.5 -69t56.5 -24q44 0 70 26t26 71v285zM282 582h-145v8l78 144h168v-8zM481 582h-139v8l101 144h167v-8z" />
    <glyph glyph-name="umacron" unicode="&#x16b;" horiz-adv-x="639" 
d="M406 530h177v-530h-164l-5 57q-29 -33 -70 -50t-89 -17q-95 0 -147 59.5t-52 169.5v311h177v-289q0 -45 20.5 -69t56.5 -24q44 0 70 26t26 71v285zM494 599h-342v112h342v-112z" />
    <glyph glyph-name="uogonek" unicode="&#x173;" horiz-adv-x="639" 
d="M586 -94v-116q-54 -15 -99 -15q-62 0 -97 24.5t-35 69.5q0 33 18 65t60 66h-14l-5 57q-29 -33 -70 -50t-89 -17q-95 0 -147 59.5t-52 169.5v311h177v-289q0 -45 20.5 -69t56.5 -24q44 0 70 26t26 71v285h177v-530q-36 -25 -51.5 -43.5t-15.5 -33.5q1 -24 29 -24
q15 0 41 7z" />
    <glyph glyph-name="uring" unicode="&#x16f;" horiz-adv-x="639" 
d="M406 530h177v-530h-164l-5 57q-29 -33 -70 -50t-89 -17q-95 0 -147 59.5t-52 169.5v311h177v-289q0 -45 20.5 -69t56.5 -24q44 0 70 26t26 71v285zM227 607q-37 35 -37 91t37 91t96 35t95.5 -35t36.5 -91t-36.5 -91t-95.5 -35t-96 35zM356.5 664q13.5 13 13.5 34
t-13.5 34t-33.5 13q-21 0 -34.5 -13t-13.5 -34t13.5 -34t34.5 -13q20 0 33.5 13z" />
    <glyph glyph-name="utilde" unicode="&#x169;" horiz-adv-x="639" 
d="M406 530h177v-530h-164l-5 57q-29 -33 -70 -50t-89 -17q-95 0 -147 59.5t-52 169.5v311h177v-289q0 -45 20.5 -69t56.5 -24q44 0 70 26t26 71v285zM328 596q-9 4 -22 10t-22.5 9t-19.5 3q-14 0 -22.5 -11t-8.5 -29h-131q0 78 36 121.5t99 43.5q26 0 45 -6.5t45 -19.5
q34 -17 56 -17q15 0 22.5 9t7.5 29h129q1 -78 -32.5 -121t-93.5 -43q-38 0 -88 22z" />
    <glyph glyph-name="v" unicode="v" horiz-adv-x="584" 
d="M333 358l57 172h185v-18l-205 -512h-157l-204 512v18h185l58 -172l40 -127z" />
    <glyph glyph-name="w" unicode="w" horiz-adv-x="889" 
d="M656 382l42 148h181v-17l-166 -513h-173l-38 104l-57 161l-57 -161l-40 -104h-172l-166 513v17h182l43 -148l41 -148l103 271h131l106 -272z" />
    <glyph glyph-name="wacute" unicode="&#x1e83;" horiz-adv-x="889" 
d="M656 382l42 148h181v-17l-166 -513h-173l-38 104l-57 161l-57 -161l-40 -104h-172l-166 513v17h182l43 -148l41 -148l103 271h131l106 -272zM503 582h-147v8l86 143h178v-8z" />
    <glyph glyph-name="wcircumflex" unicode="&#x175;" horiz-adv-x="889" 
d="M656 382l42 148h181v-17l-166 -513h-173l-38 104l-57 161l-57 -161l-40 -104h-172l-166 513v17h182l43 -148l41 -148l103 271h131l106 -272zM363 736h164l131 -139v-16h-146l-67 67l-67 -67h-146v16z" />
    <glyph glyph-name="wdieresis" unicode="&#x1e85;" horiz-adv-x="889" 
d="M656 382l42 148h181v-17l-166 -513h-173l-38 104l-57 161l-57 -161l-40 -104h-172l-166 513v17h182l43 -148l41 -148l103 271h131l106 -272zM251 603q-26 24 -26 62q0 39 26 62.5t67 23.5q42 0 67.5 -23.5t25.5 -62.5q0 -38 -25.5 -62t-67.5 -24q-41 0 -67 24zM503 603
q-26 24 -26 62q0 39 26 62.5t67 23.5q42 0 67.5 -23.5t25.5 -62.5q0 -38 -25.5 -62t-67.5 -24q-41 0 -67 24z" />
    <glyph glyph-name="wgrave" unicode="&#x1e81;" horiz-adv-x="889" 
d="M656 382l42 148h181v-17l-166 -513h-173l-38 104l-57 161l-57 -161l-40 -104h-172l-166 513v17h182l43 -148l41 -148l103 271h131l106 -272zM530 590v-8h-147l-117 143v8h178z" />
    <glyph glyph-name="x" unicode="x" horiz-adv-x="591" 
d="M560 512l-152 -244l159 -250v-18h-192l-84 145l-84 -145h-194v18l160 252l-153 242v18h190l46 -80l35 -62l36 62l45 80h188v-18z" />
    <glyph glyph-name="y" unicode="y" horiz-adv-x="585" 
d="M331 368l61 162h184v-18l-274 -679h-186v16l83 193l-190 470v18h184l60 -162l39 -123z" />
    <glyph glyph-name="yacute" unicode="&#xfd;" horiz-adv-x="585" 
d="M331 368l61 162h184v-18l-274 -679h-186v16l83 193l-190 470v18h184l60 -162l39 -123zM351 582h-147v8l86 143h178v-8z" />
    <glyph glyph-name="ycircumflex" unicode="&#x177;" horiz-adv-x="585" 
d="M331 368l61 162h184v-18l-274 -679h-186v16l83 193l-190 470v18h184l60 -162l39 -123zM210 736h164l131 -139v-16h-146l-67 67l-67 -67h-146v16z" />
    <glyph glyph-name="ydieresis" unicode="&#xff;" horiz-adv-x="585" 
d="M331 368l61 162h184v-18l-274 -679h-186v16l83 193l-190 470v18h184l60 -162l39 -123zM99 603q-26 24 -26 62q0 39 26 62.5t67 23.5q42 0 67.5 -23.5t25.5 -62.5q0 -38 -25.5 -62t-67.5 -24q-41 0 -67 24zM351 603q-26 24 -26 62q0 39 26 62.5t67 23.5q42 0 67.5 -23.5
t25.5 -62.5q0 -38 -25.5 -62t-67.5 -24q-41 0 -67 24z" />
    <glyph glyph-name="ygrave" unicode="&#x1ef3;" horiz-adv-x="585" 
d="M331 368l61 162h184v-18l-274 -679h-186v16l83 193l-190 470v18h184l60 -162l39 -123zM378 590v-8h-147l-117 143v8h178z" />
    <glyph glyph-name="uni0233" unicode="&#x233;" horiz-adv-x="585" 
d="M331 368l61 162h184v-18l-274 -679h-186v16l83 193l-190 470v18h184l60 -162l39 -123zM463 599h-342v112h342v-112z" />
    <glyph glyph-name="uni1EF9" unicode="&#x1ef9;" horiz-adv-x="585" 
d="M331 368l61 162h184v-18l-274 -679h-186v16l83 193l-190 470v18h184l60 -162l39 -123zM298 596q-9 4 -22 10t-22.5 9t-19.5 3q-14 0 -22.5 -11t-8.5 -29h-131q0 78 36 121.5t99 43.5q26 0 45 -6.5t45 -19.5q34 -17 56 -17q15 0 22.5 9t7.5 29h129q1 -78 -32.5 -121
t-93.5 -43q-38 0 -88 22z" />
    <glyph glyph-name="z" unicode="z" horiz-adv-x="504" 
d="M266 157l73 1h139v-158h-452v84l201 291h-189v155h436v-76z" />
    <glyph glyph-name="zacute" unicode="&#x17a;" horiz-adv-x="504" 
d="M266 157l73 1h139v-158h-452v84l201 291h-189v155h436v-76zM316 582h-147v8l86 143h178v-8z" />
    <glyph glyph-name="zcaron" unicode="&#x17e;" horiz-adv-x="504" 
d="M266 157l73 1h139v-158h-452v84l201 291h-189v155h436v-76zM257 669l68 67h145v-15l-131 -140h-163l-131 140v15h145z" />
    <glyph glyph-name="zdotaccent" unicode="&#x17c;" horiz-adv-x="504" 
d="M266 157l73 1h139v-158h-452v84l201 291h-189v155h436v-76zM190 598.5q-26 25.5 -26 65.5t26 65.5t68 25.5q41 0 67.5 -25.5t26.5 -65.5t-26.5 -65.5t-67.5 -25.5q-42 0 -68 25.5z" />
    <glyph glyph-name="germandbls.calt" horiz-adv-x="713" 
d="M538 453q72 -27 111 -83t39 -135q0 -115 -67.5 -179.5t-188.5 -64.5q-51 0 -99 8v173q36 -7 66 -7q44 0 70 18t26 56q0 35 -25 53t-71 18h-32l-32 61l83 158h-111q-28 0 -43 -15t-15 -42v-472h-188v477q0 105 60.5 164t169.5 59h339v-75z" />
    <glyph glyph-name="f_j" horiz-adv-x="728" 
d="M496 585.5q-28 26.5 -28 69.5t28.5 69.5t74.5 26.5t74 -26.5t28 -69.5q0 -44 -28 -70t-74 -26q-47 0 -75 26.5zM660 520v-505q0 -100 -52 -147.5t-145 -47.5q-39 0 -87 8v142q21 -4 42 -4q33 0 48.5 16t15.5 54v341h-196v-377h-177v374h-87v146h87v23q0 85 54.5 127.5
t151.5 42.5q47 0 90 -8v-122q-24 4 -48 4q-39 0 -57.5 -13.5t-18.5 -41.5v-12h379z" />
    <glyph glyph-name="f_t" horiz-adv-x="863" 
d="M829 144v-144q-57 -11 -100 -11q-95 0 -148.5 49t-53.5 147v188h-241v-373h-177v373h-87v148h87v22q0 85 54.5 127.5t151.5 42.5q39 0 92 -8v-122q-21 4 -49 4q-40 0 -58.5 -15.5t-18.5 -48.5v-4h246v125l178 18v-143h119v-149h-119v-160q0 -38 18.5 -53.5t57.5 -15.5
q23 0 48 3z" />
    <glyph glyph-name="ijacute.sc" horiz-adv-x="896" 
d="M306 418v-273h87v-145h-355v145h87v273h-85v142h351v-142h-85zM459 1v161q44 -9 78 -9q66 0 93 28.5t27 78.5v148h-127v152h308v-325q0 -246 -263 -246q-51 0 -116 12zM743 610h-131v8l44 140h162v-9zM275 610h-131v8l44 140h162v-9z" />
    <glyph glyph-name="a.sc" horiz-adv-x="621" 
d="M221 560h179l214 -541v-19h-182l-24 78h-195l-26 -78h-180v19zM253 203h117l-59 153z" />
    <glyph glyph-name="aacute.sc" horiz-adv-x="621" 
d="M221 560h179l214 -541v-19h-182l-24 78h-195l-26 -78h-180v19zM253 203h117l-59 153zM369 612h-147v8l86 143h178v-8z" />
    <glyph glyph-name="abreve.sc" horiz-adv-x="621" 
d="M221 560h179l214 -541v-19h-182l-24 78h-195l-26 -78h-180v19zM253 203h117l-59 153zM170 646.5q-52 43.5 -52 119.5h126q0 -26 18.5 -41t48.5 -15t48 15t18 41h126q0 -75 -51.5 -119t-140.5 -44t-141 43.5z" />
    <glyph glyph-name="acircumflex.sc" horiz-adv-x="621" 
d="M221 560h179l214 -541v-19h-182l-24 78h-195l-26 -78h-180v19zM253 203h117l-59 153zM229 766h164l131 -139v-16h-146l-67 67l-67 -67h-146v16z" />
    <glyph glyph-name="adieresis.sc" horiz-adv-x="621" 
d="M221 560h179l214 -541v-19h-182l-24 78h-195l-26 -78h-180v19zM253 203h117l-59 153zM117 633q-26 24 -26 62q0 39 26 62.5t67 23.5q42 0 67.5 -23.5t25.5 -62.5q0 -38 -25.5 -62t-67.5 -24q-41 0 -67 24zM369 633q-26 24 -26 62q0 39 26 62.5t67 23.5q42 0 67.5 -23.5
t25.5 -62.5q0 -38 -25.5 -62t-67.5 -24q-41 0 -67 24z" />
    <glyph glyph-name="agrave.sc" horiz-adv-x="621" 
d="M221 560h179l214 -541v-19h-182l-24 78h-195l-26 -78h-180v19zM253 203h117l-59 153zM396 620v-8h-147l-117 143v8h178z" />
    <glyph glyph-name="amacron.sc" horiz-adv-x="621" 
d="M221 560h179l214 -541v-19h-182l-24 78h-195l-26 -78h-180v19zM253 203h117l-59 153zM481 629h-342v112h342v-112z" />
    <glyph glyph-name="aogonek.sc" horiz-adv-x="621" 
d="M617 -94v-116q-54 -15 -99 -15q-62 0 -97 24.5t-35 69.5q0 33 18 65t60 66h-32l-24 78h-195l-26 -78h-180v19l214 541h179l214 -541v-19q-36 -25 -51.5 -43.5t-15.5 -33.5q1 -24 29 -24q15 0 41 7zM253 203h117l-59 153z" />
    <glyph glyph-name="aring.sc" horiz-adv-x="621" 
d="M221 560h179l214 -541v-19h-182l-24 78h-195l-26 -78h-180v19zM253 203h117l-59 153zM215 637q-37 35 -37 91t37 91t96 35t95.5 -35t36.5 -91t-36.5 -91t-95.5 -35t-96 35zM344.5 694q13.5 13 13.5 34t-13.5 34t-33.5 13q-21 0 -34.5 -13t-13.5 -34t13.5 -34t34.5 -13
q20 0 33.5 13z" />
    <glyph glyph-name="atilde.sc" horiz-adv-x="621" 
d="M221 560h179l214 -541v-19h-182l-24 78h-195l-26 -78h-180v19zM253 203h117l-59 153zM316 626q-9 4 -22 10t-22.5 9t-19.5 3q-14 0 -22.5 -11t-8.5 -29h-131q0 78 36 121.5t99 43.5q26 0 45 -6.5t45 -19.5q34 -17 56 -17q15 0 22.5 9t7.5 29h129q1 -78 -32.5 -121
t-93.5 -43q-38 0 -88 22z" />
    <glyph glyph-name="ae.sc" horiz-adv-x="860" 
d="M579 217v-79h238v-138h-410v79h-166l-43 -79h-192v19l334 541h471v-136h-232v-77h214v-130h-214zM407 376l-97 -173h97v173z" />
    <glyph glyph-name="aeacute.sc" horiz-adv-x="860" 
d="M579 217v-79h238v-138h-410v79h-166l-43 -79h-192v19l334 541h471v-136h-232v-77h214v-130h-214zM407 376l-97 -173h97v173zM551 612h-147v8l86 143h178v-8z" />
    <glyph glyph-name="b.sc" horiz-adv-x="575" 
d="M530.5 237.5q19.5 -36.5 19.5 -77.5q0 -73 -52 -116.5t-136 -43.5h-298v560h294q77 0 124 -41t47 -108q0 -34 -14 -64.5t-40 -51.5q36 -21 55.5 -57.5zM239 434v-89h69q48 0 48 44q0 45 -48 45h-69zM318 129q26 0 40 13.5t14 35.5t-14 35t-40 13h-79v-97h79z" />
    <glyph glyph-name="c.sc" horiz-adv-x="652" 
d="M175 25q-68 37 -106 103.5t-38 151.5t38 151.5t106 103.5t155 37q118 0 198 -66t97 -178h-176q-12 36 -42.5 56.5t-71.5 20.5q-54 0 -87.5 -34.5t-33.5 -90.5t33.5 -90.5t87.5 -34.5q43 0 73.5 22.5t42.5 58.5h175q-10 -75 -50 -131t-103.5 -86.5t-142.5 -30.5
q-87 0 -155 37z" />
    <glyph glyph-name="cacute.sc" horiz-adv-x="652" 
d="M175 25q-68 37 -106 103.5t-38 151.5t38 151.5t106 103.5t155 37q118 0 198 -66t97 -178h-176q-12 36 -42.5 56.5t-71.5 20.5q-54 0 -87.5 -34.5t-33.5 -90.5t33.5 -90.5t87.5 -34.5q43 0 73.5 22.5t42.5 58.5h175q-10 -75 -50 -131t-103.5 -86.5t-142.5 -30.5
q-87 0 -155 37zM388 612h-147v8l86 143h178v-8z" />
    <glyph glyph-name="ccaron.sc" horiz-adv-x="652" 
d="M175 25q-68 37 -106 103.5t-38 151.5t38 151.5t106 103.5t155 37q118 0 198 -66t97 -178h-176q-12 36 -42.5 56.5t-71.5 20.5q-54 0 -87.5 -34.5t-33.5 -90.5t33.5 -90.5t87.5 -34.5q43 0 73.5 22.5t42.5 58.5h175q-10 -75 -50 -131t-103.5 -86.5t-142.5 -30.5
q-87 0 -155 37zM329 699l68 67h145v-15l-131 -140h-163l-131 140v15h145z" />
    <glyph glyph-name="ccedilla.sc" horiz-adv-x="652" 
d="M626 236q-14 -100 -78.5 -165t-163.5 -79l-13 -26q91 -10 91 -84q0 -53 -36 -79t-105 -26q-55 0 -105 12v91q40 -10 79 -10q51 0 51 22q0 23 -39 23q-13 0 -33 -4l-17 21l28 59q-75 9 -132.5 48t-89.5 101.5t-32 139.5q0 85 38 151.5t106 103.5t155 37q118 0 198 -66
t97 -178h-176q-12 36 -42.5 56.5t-71.5 20.5q-54 0 -87.5 -34.5t-33.5 -90.5t33.5 -90.5t87.5 -34.5q43 0 73.5 22.5t42.5 58.5h175z" />
    <glyph glyph-name="ccircumflex.sc" horiz-adv-x="652" 
d="M175 25q-68 37 -106 103.5t-38 151.5t38 151.5t106 103.5t155 37q118 0 198 -66t97 -178h-176q-12 36 -42.5 56.5t-71.5 20.5q-54 0 -87.5 -34.5t-33.5 -90.5t33.5 -90.5t87.5 -34.5q43 0 73.5 22.5t42.5 58.5h175q-10 -75 -50 -131t-103.5 -86.5t-142.5 -30.5
q-87 0 -155 37zM248 766h164l131 -139v-16h-146l-67 67l-67 -67h-146v16z" />
    <glyph glyph-name="cdotaccent.sc" horiz-adv-x="652" 
d="M175 25q-68 37 -106 103.5t-38 151.5t38 151.5t106 103.5t155 37q118 0 198 -66t97 -178h-176q-12 36 -42.5 56.5t-71.5 20.5q-54 0 -87.5 -34.5t-33.5 -90.5t33.5 -90.5t87.5 -34.5q43 0 73.5 22.5t42.5 58.5h175q-10 -75 -50 -131t-103.5 -86.5t-142.5 -30.5
q-87 0 -155 37zM262 628.5q-26 25.5 -26 65.5t26 65.5t68 25.5q41 0 67.5 -25.5t26.5 -65.5t-26.5 -65.5t-67.5 -25.5q-42 0 -68 25.5z" />
    <glyph glyph-name="d.sc" horiz-adv-x="662" 
d="M64 0v560h268q89 0 156.5 -35t104.5 -98.5t37 -146.5t-37 -146.5t-104.5 -98.5t-156.5 -35h-268zM317 156q63 0 97.5 33.5t34.5 90.5q0 58 -34 91t-98 33h-73v-248h73z" />
    <glyph glyph-name="eth.sc" horiz-adv-x="666" 
d="M336 560q90 0 157.5 -35t104.5 -98.5t37 -146.5t-37 -146.5t-104.5 -98.5t-157.5 -35h-267v218h-59v127h59v215h267zM322 154q64 0 98.5 33.5t34.5 92.5t-34.5 92.5t-98.5 33.5h-74v-69h108v-111h-108v-72h74z" />
    <glyph glyph-name="dcaron.sc" horiz-adv-x="662" 
d="M64 0v560h268q89 0 156.5 -35t104.5 -98.5t37 -146.5t-37 -146.5t-104.5 -98.5t-156.5 -35h-268zM317 156q63 0 97.5 33.5t34.5 90.5q0 58 -34 91t-98 33h-73v-248h73zM302 699l68 67h145v-15l-131 -140h-163l-131 140v15h145z" />
    <glyph glyph-name="dcroat.sc" horiz-adv-x="666" 
d="M336 560q90 0 157.5 -35t104.5 -98.5t37 -146.5t-37 -146.5t-104.5 -98.5t-157.5 -35h-267v218h-59v127h59v215h267zM322 154q64 0 98.5 33.5t34.5 92.5t-34.5 92.5t-98.5 33.5h-74v-69h108v-111h-108v-72h74z" />
    <glyph glyph-name="e.sc" horiz-adv-x="518" 
d="M237 217v-79h238v-138h-411v560h405v-136h-232v-77h214v-130h-214z" />
    <glyph glyph-name="eacute.sc" horiz-adv-x="518" 
d="M237 217v-79h238v-138h-411v560h405v-136h-232v-77h214v-130h-214zM325 612h-147v8l86 143h178v-8z" />
    <glyph glyph-name="ebreve.sc" horiz-adv-x="518" 
d="M237 217v-79h238v-138h-411v560h405v-136h-232v-77h214v-130h-214zM125 646.5q-52 43.5 -52 119.5h126q0 -26 18.5 -41t48.5 -15t48 15t18 41h126q0 -75 -51.5 -119t-140.5 -44t-141 43.5z" />
    <glyph glyph-name="ecaron.sc" horiz-adv-x="518" 
d="M237 217v-79h238v-138h-411v560h405v-136h-232v-77h214v-130h-214zM265 699l68 67h145v-15l-131 -140h-163l-131 140v15h145z" />
    <glyph glyph-name="ecircumflex.sc" horiz-adv-x="518" 
d="M237 217v-79h238v-138h-411v560h405v-136h-232v-77h214v-130h-214zM184 766h164l131 -139v-16h-146l-67 67l-67 -67h-146v16z" />
    <glyph glyph-name="edieresis.sc" horiz-adv-x="518" 
d="M237 217v-79h238v-138h-411v560h405v-136h-232v-77h214v-130h-214zM73 633q-26 24 -26 62q0 39 26 62.5t67 23.5q42 0 67.5 -23.5t25.5 -62.5q0 -38 -25.5 -62t-67.5 -24q-41 0 -67 24zM325 633q-26 24 -26 62q0 39 26 62.5t67 23.5q42 0 67.5 -23.5t25.5 -62.5
q0 -38 -25.5 -62t-67.5 -24q-41 0 -67 24z" />
    <glyph glyph-name="edotaccent.sc" horiz-adv-x="518" 
d="M237 217v-79h238v-138h-411v560h405v-136h-232v-77h214v-130h-214zM198 628.5q-26 25.5 -26 65.5t26 65.5t68 25.5q41 0 67.5 -25.5t26.5 -65.5t-26.5 -65.5t-67.5 -25.5q-42 0 -68 25.5z" />
    <glyph glyph-name="egrave.sc" horiz-adv-x="518" 
d="M237 217v-79h238v-138h-411v560h405v-136h-232v-77h214v-130h-214zM352 620v-8h-147l-117 143v8h178z" />
    <glyph glyph-name="emacron.sc" horiz-adv-x="518" 
d="M237 217v-79h238v-138h-411v560h405v-136h-232v-77h214v-130h-214zM437 629h-342v112h342v-112z" />
    <glyph glyph-name="eogonek.sc" horiz-adv-x="518" 
d="M478 -94v-116q-54 -15 -99 -15q-62 0 -97 24.5t-35 69.5q0 33 18 65t60 66h-261v560h405v-136h-232v-77h214v-130h-214v-79h238v-138q-36 -25 -51.5 -43.5t-15.5 -33.5q1 -24 29 -24q15 0 41 7z" />
    <glyph glyph-name="uni1EBD.sc" horiz-adv-x="518" 
d="M237 217v-79h238v-138h-411v560h405v-136h-232v-77h214v-130h-214zM272 626q-9 4 -22 10t-22.5 9t-19.5 3q-14 0 -22.5 -11t-8.5 -29h-131q0 78 36 121.5t99 43.5q26 0 45 -6.5t45 -19.5q34 -17 56 -17q15 0 22.5 9t7.5 29h129q1 -78 -32.5 -121t-93.5 -43q-38 0 -88 22z
" />
    <glyph glyph-name="uni0259.sc" horiz-adv-x="657" 
d="M482 534q68 -37 106 -103.5t38 -150.5t-38 -150t-106 -102.5t-155 -36.5t-155 36.5t-105.5 101.5t-37.5 148q0 24 3 49h412q-11 47 -40.5 72.5t-75.5 25.5q-33 0 -60 -13t-42 -37h-184q30 92 106 144.5t179 52.5q87 0 155 -37zM398 158q30 22 43 62h-231q12 -39 42 -61.5
t73 -22.5t73 22z" />
    <glyph glyph-name="f.sc" horiz-adv-x="493" 
d="M455 560v-151h-209v-83h191v-145h-190v-181h-181v560h389z" />
    <glyph glyph-name="g.sc" horiz-adv-x="655" 
d="M625 310q1 -9 1 -26q0 -86 -38 -153.5t-105.5 -105t-153.5 -37.5q-87 0 -154.5 37t-105.5 103.5t-38 151.5t37.5 151t105.5 103.5t154 37.5q113 0 190.5 -59t100.5 -158h-173q-35 59 -111 59q-59 0 -96 -38t-37 -97q0 -61 37 -98.5t97 -37.5q39 0 69 16t45 47h-139v104
h314z" />
    <glyph glyph-name="gbreve.sc" horiz-adv-x="655" 
d="M625 310q1 -9 1 -26q0 -86 -38 -153.5t-105.5 -105t-153.5 -37.5q-87 0 -154.5 37t-105.5 103.5t-38 151.5t37.5 151t105.5 103.5t154 37.5q113 0 190.5 -59t100.5 -158h-173q-35 59 -111 59q-59 0 -96 -38t-37 -97q0 -61 37 -98.5t97 -37.5q39 0 69 16t45 47h-139v104
h314zM188 646.5q-52 43.5 -52 119.5h126q0 -26 18.5 -41t48.5 -15t48 15t18 41h126q0 -75 -51.5 -119t-140.5 -44t-141 43.5z" />
    <glyph glyph-name="gcaron.sc" horiz-adv-x="655" 
d="M625 310q1 -9 1 -26q0 -86 -38 -153.5t-105.5 -105t-153.5 -37.5q-87 0 -154.5 37t-105.5 103.5t-38 151.5t37.5 151t105.5 103.5t154 37.5q113 0 190.5 -59t100.5 -158h-173q-35 59 -111 59q-59 0 -96 -38t-37 -97q0 -61 37 -98.5t97 -37.5q39 0 69 16t45 47h-139v104
h314zM328 699l68 67h145v-15l-131 -140h-163l-131 140v15h145z" />
    <glyph glyph-name="gcircumflex.sc" horiz-adv-x="655" 
d="M625 310q1 -9 1 -26q0 -86 -38 -153.5t-105.5 -105t-153.5 -37.5q-87 0 -154.5 37t-105.5 103.5t-38 151.5t37.5 151t105.5 103.5t154 37.5q113 0 190.5 -59t100.5 -158h-173q-35 59 -111 59q-59 0 -96 -38t-37 -97q0 -61 37 -98.5t97 -37.5q39 0 69 16t45 47h-139v104
h314zM247 766h164l131 -139v-16h-146l-67 67l-67 -67h-146v16z" />
    <glyph glyph-name="uni0123.sc" horiz-adv-x="655" 
d="M625 310q1 -9 1 -26q0 -86 -38 -153.5t-105.5 -105t-153.5 -37.5q-87 0 -154.5 37t-105.5 103.5t-38 151.5t37.5 151t105.5 103.5t154 37.5q113 0 190.5 -59t100.5 -158h-173q-35 59 -111 59q-59 0 -96 -38t-37 -97q0 -61 37 -98.5t97 -37.5q39 0 69 16t45 47h-139v104
h314zM364 -241h-143l41 196h154v-34z" />
    <glyph glyph-name="gdotaccent.sc" horiz-adv-x="655" 
d="M625 310q1 -9 1 -26q0 -86 -38 -153.5t-105.5 -105t-153.5 -37.5q-87 0 -154.5 37t-105.5 103.5t-38 151.5t37.5 151t105.5 103.5t154 37.5q113 0 190.5 -59t100.5 -158h-173q-35 59 -111 59q-59 0 -96 -38t-37 -97q0 -61 37 -98.5t97 -37.5q39 0 69 16t45 47h-139v104
h314zM261 628.5q-26 25.5 -26 65.5t26 65.5t68 25.5q41 0 67.5 -25.5t26.5 -65.5t-26.5 -65.5t-67.5 -25.5q-42 0 -68 25.5z" />
    <glyph glyph-name="h.sc" horiz-adv-x="654" 
d="M409 370v190h181v-560h-181v198h-164v-198h-181v560h181v-190h164z" />
    <glyph glyph-name="hbar.sc" horiz-adv-x="663" 
d="M595 502h62v-87h-62v-415h-181v193h-164v-193h-181v415h-62v87h62v58h181v-58h164v58h181v-58zM250 418v-56h164v56h-164z" />
    <glyph glyph-name="hcircumflex.sc" horiz-adv-x="654" 
d="M409 370v190h181v-560h-181v198h-164v-198h-181v560h181v-190h164zM245 766h164l131 -139v-16h-146l-67 67l-67 -67h-146v16z" />
    <glyph glyph-name="i.sc" horiz-adv-x="431" 
d="M306 418v-273h87v-145h-355v145h87v273h-85v142h351v-142h-85z" />
    <glyph glyph-name="dotlessi.sc" horiz-adv-x="431" 
d="M306 418v-273h87v-145h-355v145h87v273h-85v142h351v-142h-85z" />
    <glyph glyph-name="iacute.sc" horiz-adv-x="431" 
d="M306 418v-273h87v-145h-355v145h87v273h-85v142h351v-142h-85zM275 610h-131v8l44 140h162v-9z" />
    <glyph glyph-name="ibreve.sc" horiz-adv-x="431" 
d="M306 418v-273h87v-145h-355v145h87v273h-85v142h351v-142h-85zM96.5 648q-43.5 40 -43.5 110h114q0 -25 13 -38.5t36 -13.5t35.5 13.5t12.5 38.5h114q0 -70 -43 -110t-119 -40t-119.5 40z" />
    <glyph glyph-name="icircumflex.sc" horiz-adv-x="431" 
d="M306 418v-273h87v-145h-355v145h87v273h-85v142h351v-142h-85zM152 758h128l104 -131v-17h-134l-34 49l-34 -49h-134v17z" />
    <glyph glyph-name="idieresis.sc" horiz-adv-x="431" 
d="M306 418v-273h87v-145h-355v145h87v273h-85v142h351v-142h-85zM43 631q-24 24 -24 62q0 39 24 62.5t63 23.5t63.5 -23.5t24.5 -62.5q0 -38 -24.5 -62t-63.5 -24t-63 24zM261.5 631q-24.5 24 -24.5 62q0 39 24.5 62.5t63.5 23.5t63.5 -23.5t24.5 -62.5q0 -38 -24.5 -62
t-63.5 -24t-63.5 24z" />
    <glyph glyph-name="i.sc.loclTRK" horiz-adv-x="431" 
d="M306 418v-273h87v-145h-355v145h87v273h-85v142h351v-142h-85zM148 628.5q-26 25.5 -26 65.5t26 65.5t68 25.5q41 0 67.5 -25.5t26.5 -65.5t-26.5 -65.5t-67.5 -25.5q-42 0 -68 25.5z" />
    <glyph glyph-name="igrave.sc" horiz-adv-x="431" 
d="M306 418v-273h87v-145h-355v145h87v273h-85v142h351v-142h-85zM287 610h-131l-75 139v9h162l44 -140v-8z" />
    <glyph glyph-name="ij.sc" horiz-adv-x="896" 
d="M306 418v-273h87v-145h-355v145h87v273h-85v142h351v-142h-85zM459 1v161q44 -9 78 -9q66 0 93 28.5t27 78.5v148h-127v152h308v-325q0 -246 -263 -246q-51 0 -116 12z" />
    <glyph glyph-name="imacron.sc" horiz-adv-x="431" 
d="M306 418v-273h87v-145h-355v145h87v273h-85v142h351v-142h-85zM362 616h-294v109h294v-109z" />
    <glyph glyph-name="iogonek.sc" horiz-adv-x="431" 
d="M393 0h-94q-23 -27 -33.5 -44.5t-10.5 -32.5q1 -24 29 -24q15 0 41 7v-116q-54 -15 -104 -15q-59 0 -93 22.5t-34 69.5q0 34 15 65t50 68h-121v145h87v273h-85v142h351v-142h-85v-273h87v-145z" />
    <glyph glyph-name="itilde.sc" horiz-adv-x="431" 
d="M306 418v-273h87v-145h-355v145h87v273h-85v142h351v-142h-85zM237.5 614q-17.5 7 -35.5 20q-25 18 -43 18q-17 0 -25.5 -11t-8.5 -30h-94q0 75 31.5 113.5t88.5 38.5q25 0 43 -7.5t36 -20.5q14 -9 23.5 -13.5t19.5 -4.5q16 0 25 10.5t9 30.5h94q0 -73 -31 -112t-89 -39
q-26 0 -43.5 7z" />
    <glyph glyph-name="j.sc" horiz-adv-x="465" 
d="M28 1v161q44 -9 78 -9q66 0 93 28.5t27 78.5v148h-127v152h308v-325q0 -246 -263 -246q-51 0 -116 12z" />
    <glyph glyph-name="uni0237.sc" horiz-adv-x="465" 
d="M28 1v161q44 -9 78 -9q66 0 93 28.5t27 78.5v148h-127v152h308v-325q0 -246 -263 -246q-51 0 -116 12z" />
    <glyph glyph-name="uni006A0301.sc" horiz-adv-x="465" 
d="M28 1v161q44 -9 78 -9q66 0 93 28.5t27 78.5v148h-127v152h308v-325q0 -246 -263 -246q-51 0 -116 12zM313 610h-131v8l44 140h162v-9z" />
    <glyph glyph-name="jcircumflex.sc" horiz-adv-x="465" 
d="M28 1v161q44 -9 78 -9q66 0 93 28.5t27 78.5v148h-127v152h308v-325q0 -246 -263 -246q-51 0 -116 12zM189 758h128l104 -131v-17h-134l-34 49l-34 -49h-134v17z" />
    <glyph glyph-name="k.sc" horiz-adv-x="601" 
d="M574 542l-175 -256l191 -267v-19h-202l-144 220v-220h-180v560h180v-223l138 223h192v-18z" />
    <glyph glyph-name="uni0137.sc" horiz-adv-x="601" 
d="M574 542l-175 -256l191 -267v-19h-202l-144 220v-220h-180v560h180v-223l138 223h192v-18zM344 -241h-143l41 196h154v-34z" />
    <glyph glyph-name="kgreenlandic.sc" horiz-adv-x="601" 
d="M574 542l-175 -256l191 -267v-19h-202l-144 220v-220h-180v560h180v-223l138 223h192v-18z" />
    <glyph glyph-name="l.sc" horiz-adv-x="499" 
d="M474 0h-410v560h181v-403h229v-157z" />
    <glyph glyph-name="lacute.sc" horiz-adv-x="499" 
d="M474 0h-410v560h181v-403h229v-157zM213 612h-147v8l86 143h178v-8z" />
    <glyph glyph-name="lcaron.sc" horiz-adv-x="499" 
d="M474 0h-410v560h181v-403h229v-157zM303 380v9l18 171h141v-33l-29 -147h-130z" />
    <glyph glyph-name="uni013C.sc" horiz-adv-x="499" 
d="M474 0h-410v560h181v-403h229v-157zM309 -241h-143l41 196h154v-34z" />
    <glyph glyph-name="ldot.sc" horiz-adv-x="500" 
d="M474 0h-410v560h181v-403h229v-157zM315.5 270.5q-23.5 22.5 -23.5 59.5t23.5 59.5t62.5 22.5t62.5 -22.5t23.5 -59.5t-23.5 -59.5t-62.5 -22.5t-62.5 22.5z" />
    <glyph glyph-name="lslash.sc" horiz-adv-x="496" 
d="M242 266v-109h229v-157h-410v180l-61 -29v134l61 29v246h181v-160l110 52v-134z" />
    <glyph glyph-name="m.sc" horiz-adv-x="775" 
d="M388 334l167 226h156v-560h-182v140l8 138l-115 -148h-69l-115 148l7 -138v-140h-181v560h157z" />
    <glyph glyph-name="n.sc" horiz-adv-x="646" 
d="M406 424v136h176v-560h-134l-214 256l6 -135v-121h-176v560h134l214 -255z" />
    <glyph glyph-name="nacute.sc" horiz-adv-x="646" 
d="M406 424v136h176v-560h-134l-214 256l6 -135v-121h-176v560h134l214 -255zM382 612h-147v8l86 143h178v-8z" />
    <glyph glyph-name="napostrophe.sc" horiz-adv-x="772" 
d="M4 466v15l38 209h136v-45l-53 -179h-121zM536 424v136h175v-560h-134l-214 256l6 -135v-121h-176v560h134l214 -255z" />
    <glyph glyph-name="ncaron.sc" horiz-adv-x="646" 
d="M406 424v136h176v-560h-134l-214 256l6 -135v-121h-176v560h134l214 -255zM323 699l68 67h145v-15l-131 -140h-163l-131 140v15h145z" />
    <glyph glyph-name="uni0146.sc" horiz-adv-x="646" 
d="M406 424v136h176v-560h-134l-214 256l6 -135v-121h-176v560h134l214 -255zM358 -241h-143l41 196h154v-34z" />
    <glyph glyph-name="eng.sc" horiz-adv-x="646" 
d="M406 560h176v-571q0 -92 -50 -135.5t-139 -43.5q-45 0 -92 8v137q36 -4 50 -4q31 0 46.5 11.5t15.5 39.5v39l-179 214l6 -134v-121h-176v560h133l215 -256l-6 120v136z" />
    <glyph glyph-name="ntilde.sc" horiz-adv-x="646" 
d="M406 424v136h176v-560h-134l-214 256l6 -135v-121h-176v560h134l214 -255zM329 626q-9 4 -22 10t-22.5 9t-19.5 3q-14 0 -22.5 -11t-8.5 -29h-131q0 78 36 121.5t99 43.5q26 0 45 -6.5t45 -19.5q34 -17 56 -17q15 0 22.5 9t7.5 29h129q1 -78 -32.5 -121t-93.5 -43
q-38 0 -88 22z" />
    <glyph glyph-name="o.sc" horiz-adv-x="664" 
d="M176.5 25.5q-68.5 37.5 -107 103.5t-38.5 151t38.5 151t107 103.5t155.5 37.5q88 0 156.5 -37t107 -103.5t38.5 -151.5t-38.5 -151.5t-107 -103.5t-156.5 -37q-87 0 -155.5 37.5zM418.5 190.5q33.5 34.5 33.5 89.5t-33.5 89.5t-86.5 34.5t-86.5 -34.5t-33.5 -89.5
t33.5 -89.5t86.5 -34.5t86.5 34.5z" />
    <glyph glyph-name="oacute.sc" horiz-adv-x="664" 
d="M176.5 25.5q-68.5 37.5 -107 103.5t-38.5 151t38.5 151t107 103.5t155.5 37.5q88 0 156.5 -37t107 -103.5t38.5 -151.5t-38.5 -151.5t-107 -103.5t-156.5 -37q-87 0 -155.5 37.5zM418.5 190.5q33.5 34.5 33.5 89.5t-33.5 89.5t-86.5 34.5t-86.5 -34.5t-33.5 -89.5
t33.5 -89.5t86.5 -34.5t86.5 34.5zM391 612h-147v8l86 143h178v-8z" />
    <glyph glyph-name="obreve.sc" horiz-adv-x="664" 
d="M176.5 25.5q-68.5 37.5 -107 103.5t-38.5 151t38.5 151t107 103.5t155.5 37.5q88 0 156.5 -37t107 -103.5t38.5 -151.5t-38.5 -151.5t-107 -103.5t-156.5 -37q-87 0 -155.5 37.5zM418.5 190.5q33.5 34.5 33.5 89.5t-33.5 89.5t-86.5 34.5t-86.5 -34.5t-33.5 -89.5
t33.5 -89.5t86.5 -34.5t86.5 34.5zM192 646.5q-52 43.5 -52 119.5h126q0 -26 18.5 -41t48.5 -15t48 15t18 41h126q0 -75 -51.5 -119t-140.5 -44t-141 43.5z" />
    <glyph glyph-name="ocircumflex.sc" horiz-adv-x="664" 
d="M176.5 25.5q-68.5 37.5 -107 103.5t-38.5 151t38.5 151t107 103.5t155.5 37.5q88 0 156.5 -37t107 -103.5t38.5 -151.5t-38.5 -151.5t-107 -103.5t-156.5 -37q-87 0 -155.5 37.5zM418.5 190.5q33.5 34.5 33.5 89.5t-33.5 89.5t-86.5 34.5t-86.5 -34.5t-33.5 -89.5
t33.5 -89.5t86.5 -34.5t86.5 34.5zM251 766h164l131 -139v-16h-146l-67 67l-67 -67h-146v16z" />
    <glyph glyph-name="odieresis.sc" horiz-adv-x="664" 
d="M176.5 25.5q-68.5 37.5 -107 103.5t-38.5 151t38.5 151t107 103.5t155.5 37.5q88 0 156.5 -37t107 -103.5t38.5 -151.5t-38.5 -151.5t-107 -103.5t-156.5 -37q-87 0 -155.5 37.5zM418.5 190.5q33.5 34.5 33.5 89.5t-33.5 89.5t-86.5 34.5t-86.5 -34.5t-33.5 -89.5
t33.5 -89.5t86.5 -34.5t86.5 34.5zM139 633q-26 24 -26 62q0 39 26 62.5t67 23.5q42 0 67.5 -23.5t25.5 -62.5q0 -38 -25.5 -62t-67.5 -24q-41 0 -67 24zM391 633q-26 24 -26 62q0 39 26 62.5t67 23.5q42 0 67.5 -23.5t25.5 -62.5q0 -38 -25.5 -62t-67.5 -24q-41 0 -67 24z
" />
    <glyph glyph-name="ograve.sc" horiz-adv-x="664" 
d="M176.5 25.5q-68.5 37.5 -107 103.5t-38.5 151t38.5 151t107 103.5t155.5 37.5q88 0 156.5 -37t107 -103.5t38.5 -151.5t-38.5 -151.5t-107 -103.5t-156.5 -37q-87 0 -155.5 37.5zM418.5 190.5q33.5 34.5 33.5 89.5t-33.5 89.5t-86.5 34.5t-86.5 -34.5t-33.5 -89.5
t33.5 -89.5t86.5 -34.5t86.5 34.5zM418 620v-8h-147l-117 143v8h178z" />
    <glyph glyph-name="ohungarumlaut.sc" horiz-adv-x="664" 
d="M176.5 25.5q-68.5 37.5 -107 103.5t-38.5 151t38.5 151t107 103.5t155.5 37.5q88 0 156.5 -37t107 -103.5t38.5 -151.5t-38.5 -151.5t-107 -103.5t-156.5 -37q-87 0 -155.5 37.5zM418.5 190.5q33.5 34.5 33.5 89.5t-33.5 89.5t-86.5 34.5t-86.5 -34.5t-33.5 -89.5
t33.5 -89.5t86.5 -34.5t86.5 34.5zM292 612h-145v8l78 144h168v-8zM491 612h-139v8l101 144h167v-8z" />
    <glyph glyph-name="omacron.sc" horiz-adv-x="664" 
d="M176.5 25.5q-68.5 37.5 -107 103.5t-38.5 151t38.5 151t107 103.5t155.5 37.5q88 0 156.5 -37t107 -103.5t38.5 -151.5t-38.5 -151.5t-107 -103.5t-156.5 -37q-87 0 -155.5 37.5zM418.5 190.5q33.5 34.5 33.5 89.5t-33.5 89.5t-86.5 34.5t-86.5 -34.5t-33.5 -89.5
t33.5 -89.5t86.5 -34.5t86.5 34.5zM503 629h-342v112h342v-112z" />
    <glyph glyph-name="oslash.sc" horiz-adv-x="664" 
d="M533 505q48 -39 74 -97t26 -128q0 -85 -38 -151.5t-106.5 -103.5t-156.5 -37q-47 0 -84 10l-33 -59h-137v20l54 96q-48 40 -74.5 98t-26.5 127q0 84 38.5 150.5t107 104t155.5 37.5q48 0 85 -10l33 58h137v-20zM424 182q36 38 36 98t-36 98t-92 38t-92 -38t-36 -98
t36 -98t92 -38t92 38z" />
    <glyph glyph-name="oslashacute.sc" horiz-adv-x="664" 
d="M533 505q48 -39 74 -97t26 -128q0 -85 -38 -151.5t-106.5 -103.5t-156.5 -37q-47 0 -84 10l-33 -59h-137v20l54 96q-48 40 -74.5 98t-26.5 127q0 84 38.5 150.5t107 104t155.5 37.5q48 0 85 -10l33 58h137v-20zM424 182q36 38 36 98t-36 98t-92 38t-92 -38t-36 -98
t36 -98t92 -38t92 38zM386 612h-147v8l86 143h178v-8z" />
    <glyph glyph-name="otilde.sc" horiz-adv-x="664" 
d="M176.5 25.5q-68.5 37.5 -107 103.5t-38.5 151t38.5 151t107 103.5t155.5 37.5q88 0 156.5 -37t107 -103.5t38.5 -151.5t-38.5 -151.5t-107 -103.5t-156.5 -37q-87 0 -155.5 37.5zM418.5 190.5q33.5 34.5 33.5 89.5t-33.5 89.5t-86.5 34.5t-86.5 -34.5t-33.5 -89.5
t33.5 -89.5t86.5 -34.5t86.5 34.5zM338 626q-9 4 -22 10t-22.5 9t-19.5 3q-14 0 -22.5 -11t-8.5 -29h-131q0 78 36 121.5t99 43.5q26 0 45 -6.5t45 -19.5q34 -17 56 -17q15 0 22.5 9t7.5 29h129q1 -78 -32.5 -121t-93.5 -43q-38 0 -88 22z" />
    <glyph glyph-name="oe.sc" horiz-adv-x="844" 
d="M801 138v-138h-376q-43 -12 -90 -12q-90 0 -159 36.5t-107 103t-38 152.5t38 152.5t107 103t159 36.5q46 0 91 -12h370v-136h-232v-77h214v-130h-214v-79h237zM247 189q34 -34 92 -34q30 0 57 9v232q-27 9 -57 9q-58 0 -92 -34t-34 -91t34 -91z" />
    <glyph glyph-name="p.sc" horiz-adv-x="557" 
d="M311 560q106 0 168 -56t62 -152t-62 -152t-168 -56h-66v-144h-181v560h247zM307 287q29 0 46 17.5t17 45.5t-17.5 45t-45.5 17h-68v-125h68z" />
    <glyph glyph-name="thorn.sc" horiz-adv-x="557" 
d="M311 492q106 0 168 -56t62 -152t-62 -152t-168 -56h-66v-76h-181v560h181v-68h66zM307 222q29 0 46 17t17 45q0 29 -17 46t-46 17h-67v-125h67z" />
    <glyph glyph-name="q.sc" horiz-adv-x="667" 
d="M663 -22v-19h-160l-45 52q-58 -23 -126 -23q-87 0 -155.5 37.5t-107 104t-38.5 150.5t38.5 150.5t107 104t155.5 37.5q88 0 156.5 -37t107 -103.5t38.5 -151.5q0 -55 -17 -103.5t-48 -85.5zM240.5 184q35.5 -37 91.5 -37q9 0 14 1l-89 95v18h147l43 -43q13 29 13 62
q0 59 -35.5 96t-92.5 37q-56 0 -91.5 -37t-35.5 -96t35.5 -96z" />
    <glyph glyph-name="r.sc" horiz-adv-x="570" 
d="M561 19v-19h-188l-131 191v-191h-178v560h237q110 0 173.5 -51.5t63.5 -141.5q0 -56 -27.5 -97t-78.5 -61zM239 299h65q63 0 63 57q0 58 -63 58h-65v-115z" />
    <glyph glyph-name="racute.sc" horiz-adv-x="570" 
d="M561 19v-19h-188l-131 191v-191h-178v560h237q110 0 173.5 -51.5t63.5 -141.5q0 -56 -27.5 -97t-78.5 -61zM239 299h65q63 0 63 57q0 58 -63 58h-65v-115zM350 612h-147v8l86 143h178v-8z" />
    <glyph glyph-name="rcaron.sc" horiz-adv-x="570" 
d="M561 19v-19h-188l-131 191v-191h-178v560h237q110 0 173.5 -51.5t63.5 -141.5q0 -56 -27.5 -97t-78.5 -61zM239 299h65q63 0 63 57q0 58 -63 58h-65v-115zM291 699l68 67h145v-15l-131 -140h-163l-131 140v15h145z" />
    <glyph glyph-name="uni0157.sc" horiz-adv-x="570" 
d="M561 19v-19h-188l-131 191v-191h-178v560h237q110 0 173.5 -51.5t63.5 -141.5q0 -56 -27.5 -97t-78.5 -61zM239 299h65q63 0 63 57q0 58 -63 58h-65v-115zM342 -241h-143l41 196h154v-34z" />
    <glyph glyph-name="s.sc" horiz-adv-x="549" 
d="M98.5 38.5q-66.5 49.5 -70.5 142.5h175q3 -25 23 -37t52 -12t50.5 10.5t18.5 29.5q0 21 -23 33t-80 16q-100 8 -154.5 51t-54.5 119q0 83 65.5 131.5t170.5 48.5q106 0 169.5 -48t70.5 -134h-170q-4 20 -23 32t-47 12q-29 0 -46 -10.5t-17 -28.5q0 -19 21.5 -29.5
t83.5 -17.5q102 -11 157 -53.5t55 -119.5q0 -87 -68.5 -136t-179.5 -49q-112 0 -178.5 49.5z" />
    <glyph glyph-name="sacute.sc" horiz-adv-x="549" 
d="M98.5 38.5q-66.5 49.5 -70.5 142.5h175q3 -25 23 -37t52 -12t50.5 10.5t18.5 29.5q0 21 -23 33t-80 16q-100 8 -154.5 51t-54.5 119q0 83 65.5 131.5t170.5 48.5q106 0 169.5 -48t70.5 -134h-170q-4 20 -23 32t-47 12q-29 0 -46 -10.5t-17 -28.5q0 -19 21.5 -29.5
t83.5 -17.5q102 -11 157 -53.5t55 -119.5q0 -87 -68.5 -136t-179.5 -49q-112 0 -178.5 49.5zM333 612h-147v8l86 143h178v-8z" />
    <glyph glyph-name="scaron.sc" horiz-adv-x="549" 
d="M98.5 38.5q-66.5 49.5 -70.5 142.5h175q3 -25 23 -37t52 -12t50.5 10.5t18.5 29.5q0 21 -23 33t-80 16q-100 8 -154.5 51t-54.5 119q0 83 65.5 131.5t170.5 48.5q106 0 169.5 -48t70.5 -134h-170q-4 20 -23 32t-47 12q-29 0 -46 -10.5t-17 -28.5q0 -19 21.5 -29.5
t83.5 -17.5q102 -11 157 -53.5t55 -119.5q0 -87 -68.5 -136t-179.5 -49q-112 0 -178.5 49.5zM273 699l68 67h145v-15l-131 -140h-163l-131 140v15h145z" />
    <glyph glyph-name="scedilla.sc" horiz-adv-x="549" 
d="M473 52q-52 -47 -139 -59l-14 -27q91 -10 91 -84q0 -53 -36 -79t-105 -26q-55 0 -105 12v91q40 -10 79 -10q51 0 51 22q0 23 -39 23q-13 0 -33 -4l-17 21l29 59q-94 9 -148.5 58t-58.5 132h175q3 -25 23 -37t52 -12t50.5 10.5t18.5 29.5q0 21 -23 33t-80 16
q-100 8 -154.5 51t-54.5 119q0 83 65.5 131.5t170.5 48.5q106 0 169.5 -48t70.5 -134h-170q-4 20 -23 32t-47 12q-29 0 -46 -10.5t-17 -28.5q0 -19 21.5 -29.5t83.5 -17.5q102 -11 157 -53.5t55 -119.5q0 -75 -52 -122z" />
    <glyph glyph-name="scircumflex.sc" horiz-adv-x="549" 
d="M98.5 38.5q-66.5 49.5 -70.5 142.5h175q3 -25 23 -37t52 -12t50.5 10.5t18.5 29.5q0 21 -23 33t-80 16q-100 8 -154.5 51t-54.5 119q0 83 65.5 131.5t170.5 48.5q106 0 169.5 -48t70.5 -134h-170q-4 20 -23 32t-47 12q-29 0 -46 -10.5t-17 -28.5q0 -19 21.5 -29.5
t83.5 -17.5q102 -11 157 -53.5t55 -119.5q0 -87 -68.5 -136t-179.5 -49q-112 0 -178.5 49.5zM192 766h164l131 -139v-16h-146l-67 67l-67 -67h-146v16z" />
    <glyph glyph-name="uni0219.sc" horiz-adv-x="549" 
d="M98.5 38.5q-66.5 49.5 -70.5 142.5h175q3 -25 23 -37t52 -12t50.5 10.5t18.5 29.5q0 21 -23 33t-80 16q-100 8 -154.5 51t-54.5 119q0 83 65.5 131.5t170.5 48.5q106 0 169.5 -48t70.5 -134h-170q-4 20 -23 32t-47 12q-29 0 -46 -10.5t-17 -28.5q0 -19 21.5 -29.5
t83.5 -17.5q102 -11 157 -53.5t55 -119.5q0 -87 -68.5 -136t-179.5 -49q-112 0 -178.5 49.5zM316 -241h-143l41 196h154v-34z" />
    <glyph glyph-name="germandbls.sc" horiz-adv-x="613" 
d="M471 354q60 -23 89.5 -64.5t29.5 -106.5q0 -90 -56 -140.5t-155 -50.5q-28 0 -45.5 1.5t-41.5 6.5v146q26 -6 53 -6q68 0 68 54q0 26 -16.5 39.5t-48.5 13.5h-28l-23 42l62 120h-83q-40 0 -40 -41v-368h-178v362q0 96 52 147t149 51h282v-77z" />
    <glyph glyph-name="t.sc" horiz-adv-x="534" 
d="M20 560h493v-156h-155v-404h-182v404h-156v156z" />
    <glyph glyph-name="tbar.sc" horiz-adv-x="534" 
d="M513 560v-156h-155v-100h93v-121h-93v-183h-182v183h-93v121h93v100h-156v156h493z" />
    <glyph glyph-name="tcaron.sc" horiz-adv-x="534" 
d="M20 560h493v-156h-155v-404h-182v404h-156v156zM266 699l68 67h145v-15l-131 -140h-163l-131 140v15h145z" />
    <glyph glyph-name="uni0163.sc" horiz-adv-x="534" 
d="M358 0h-35l-17 -34q91 -10 91 -84q0 -53 -36 -79t-105 -26q-55 0 -105 12v91q40 -10 79 -10q51 0 51 22q0 23 -39 23q-13 0 -33 -4l-17 21l33 68h-49v404h-156v156h493v-156h-155v-404z" />
    <glyph glyph-name="uni021B.sc" horiz-adv-x="534" 
d="M20 560h493v-156h-155v-404h-182v404h-156v156zM302 -241h-143l41 196h154v-34z" />
    <glyph glyph-name="u.sc" horiz-adv-x="655" 
d="M128.5 54.5q-70.5 65.5 -70.5 190.5v315h181v-305q0 -100 88 -100t88 100v305h182v-315q0 -125 -71 -190.5t-199 -65.5t-198.5 65.5z" />
    <glyph glyph-name="uacute.sc" horiz-adv-x="655" 
d="M128.5 54.5q-70.5 65.5 -70.5 190.5v315h181v-305q0 -100 88 -100t88 100v305h182v-315q0 -125 -71 -190.5t-199 -65.5t-198.5 65.5zM386 612h-147v8l86 143h178v-8z" />
    <glyph glyph-name="ubreve.sc" horiz-adv-x="655" 
d="M128.5 54.5q-70.5 65.5 -70.5 190.5v315h181v-305q0 -100 88 -100t88 100v305h182v-315q0 -125 -71 -190.5t-199 -65.5t-198.5 65.5zM187 646.5q-52 43.5 -52 119.5h126q0 -26 18.5 -41t48.5 -15t48 15t18 41h126q0 -75 -51.5 -119t-140.5 -44t-141 43.5z" />
    <glyph glyph-name="ucircumflex.sc" horiz-adv-x="655" 
d="M128.5 54.5q-70.5 65.5 -70.5 190.5v315h181v-305q0 -100 88 -100t88 100v305h182v-315q0 -125 -71 -190.5t-199 -65.5t-198.5 65.5zM245 766h164l131 -139v-16h-146l-67 67l-67 -67h-146v16z" />
    <glyph glyph-name="udieresis.sc" horiz-adv-x="655" 
d="M128.5 54.5q-70.5 65.5 -70.5 190.5v315h181v-305q0 -100 88 -100t88 100v305h182v-315q0 -125 -71 -190.5t-199 -65.5t-198.5 65.5zM134 633q-26 24 -26 62q0 39 26 62.5t67 23.5q42 0 67.5 -23.5t25.5 -62.5q0 -38 -25.5 -62t-67.5 -24q-41 0 -67 24zM386 633
q-26 24 -26 62q0 39 26 62.5t67 23.5q42 0 67.5 -23.5t25.5 -62.5q0 -38 -25.5 -62t-67.5 -24q-41 0 -67 24z" />
    <glyph glyph-name="ugrave.sc" horiz-adv-x="655" 
d="M128.5 54.5q-70.5 65.5 -70.5 190.5v315h181v-305q0 -100 88 -100t88 100v305h182v-315q0 -125 -71 -190.5t-199 -65.5t-198.5 65.5zM413 620v-8h-147l-117 143v8h178z" />
    <glyph glyph-name="uhungarumlaut.sc" horiz-adv-x="655" 
d="M128.5 54.5q-70.5 65.5 -70.5 190.5v315h181v-305q0 -100 88 -100t88 100v305h182v-315q0 -125 -71 -190.5t-199 -65.5t-198.5 65.5zM286 612h-145v8l78 144h168v-8zM485 612h-139v8l101 144h167v-8z" />
    <glyph glyph-name="umacron.sc" horiz-adv-x="655" 
d="M128.5 54.5q-70.5 65.5 -70.5 190.5v315h181v-305q0 -100 88 -100t88 100v305h182v-315q0 -125 -71 -190.5t-199 -65.5t-198.5 65.5zM498 629h-342v112h342v-112z" />
    <glyph glyph-name="uogonek.sc" horiz-adv-x="656" 
d="M597 560v-315q0 -118 -65 -185h1q-91 -88 -91 -137q0 -12 8 -18t22 -6t40 7v-116q-54 -15 -99 -15q-62 0 -97 24.5t-35 69.5q0 59 56 120h-9q-128 0 -199 65.5t-71 190.5v315h182v-305q0 -100 88 -100t88 100v305h181z" />
    <glyph glyph-name="uring.sc" horiz-adv-x="655" 
d="M128.5 54.5q-70.5 65.5 -70.5 190.5v315h181v-305q0 -100 88 -100t88 100v305h182v-315q0 -125 -71 -190.5t-199 -65.5t-198.5 65.5zM232 637q-37 35 -37 91t37 91t96 35t95.5 -35t36.5 -91t-36.5 -91t-95.5 -35t-96 35zM361.5 694q13.5 13 13.5 34t-13.5 34t-33.5 13
q-21 0 -34.5 -13t-13.5 -34t13.5 -34t34.5 -13q20 0 33.5 13z" />
    <glyph glyph-name="utilde.sc" horiz-adv-x="655" 
d="M128.5 54.5q-70.5 65.5 -70.5 190.5v315h181v-305q0 -100 88 -100t88 100v305h182v-315q0 -125 -71 -190.5t-199 -65.5t-198.5 65.5zM333 626q-9 4 -22 10t-22.5 9t-19.5 3q-14 0 -22.5 -11t-8.5 -29h-131q0 78 36 121.5t99 43.5q26 0 45 -6.5t45 -19.5q34 -17 56 -17
q15 0 22.5 9t7.5 29h129q1 -78 -32.5 -121t-93.5 -43q-38 0 -88 22z" />
    <glyph glyph-name="v.sc" horiz-adv-x="617" 
d="M379 435l43 125h186v-19l-214 -541h-171l-214 541v19h187l43 -125l70 -202z" />
    <glyph glyph-name="w.sc" horiz-adv-x="890" 
d="M658 431l41 129h181v-19l-171 -541h-159l-63 123l-42 93l-40 -93l-62 -123h-160l-173 541v19h185l40 -129l49 -195l96 215h132l95 -214z" />
    <glyph glyph-name="wacute.sc" horiz-adv-x="890" 
d="M658 431l41 129h181v-19l-171 -541h-159l-63 123l-42 93l-40 -93l-62 -123h-160l-173 541v19h185l40 -129l49 -195l96 215h132l95 -214zM504 612h-147v8l86 143h178v-8z" />
    <glyph glyph-name="wcircumflex.sc" horiz-adv-x="890" 
d="M658 431l41 129h181v-19l-171 -541h-159l-63 123l-42 93l-40 -93l-62 -123h-160l-173 541v19h185l40 -129l49 -195l96 215h132l95 -214zM363 766h164l131 -139v-16h-146l-67 67l-67 -67h-146v16z" />
    <glyph glyph-name="wdieresis.sc" horiz-adv-x="890" 
d="M658 431l41 129h181v-19l-171 -541h-159l-63 123l-42 93l-40 -93l-62 -123h-160l-173 541v19h185l40 -129l49 -195l96 215h132l95 -214zM252 633q-26 24 -26 62q0 39 26 62.5t67 23.5q42 0 67.5 -23.5t25.5 -62.5q0 -38 -25.5 -62t-67.5 -24q-41 0 -67 24zM504 633
q-26 24 -26 62q0 39 26 62.5t67 23.5q42 0 67.5 -23.5t25.5 -62.5q0 -38 -25.5 -62t-67.5 -24q-41 0 -67 24z" />
    <glyph glyph-name="wgrave.sc" horiz-adv-x="890" 
d="M658 431l41 129h181v-19l-171 -541h-159l-63 123l-42 93l-40 -93l-62 -123h-160l-173 541v19h185l40 -129l49 -195l96 215h132l95 -214zM531 620v-8h-147l-117 143v8h178z" />
    <glyph glyph-name="x.sc" horiz-adv-x="623" 
d="M597 541l-168 -254l180 -269v-18h-194l-72 110l-32 51l-32 -51l-72 -110h-193v19l180 267l-167 256v18h189l61 -95l34 -59l35 59l61 95h190v-19z" />
    <glyph glyph-name="y.sc" horiz-adv-x="594" 
d="M392 560h195v-19l-200 -337v-204h-180v203l-200 339v18h194l52 -94l44 -84l44 84z" />
    <glyph glyph-name="yacute.sc" horiz-adv-x="594" 
d="M392 560h195v-19l-200 -337v-204h-180v203l-200 339v18h194l52 -94l44 -84l44 84zM356 612h-147v8l86 143h178v-8z" />
    <glyph glyph-name="ycircumflex.sc" horiz-adv-x="594" 
d="M392 560h195v-19l-200 -337v-204h-180v203l-200 339v18h194l52 -94l44 -84l44 84zM215 766h164l131 -139v-16h-146l-67 67l-67 -67h-146v16z" />
    <glyph glyph-name="ydieresis.sc" horiz-adv-x="594" 
d="M392 560h195v-19l-200 -337v-204h-180v203l-200 339v18h194l52 -94l44 -84l44 84zM104 633q-26 24 -26 62q0 39 26 62.5t67 23.5q42 0 67.5 -23.5t25.5 -62.5q0 -38 -25.5 -62t-67.5 -24q-41 0 -67 24zM356 633q-26 24 -26 62q0 39 26 62.5t67 23.5q42 0 67.5 -23.5
t25.5 -62.5q0 -38 -25.5 -62t-67.5 -24q-41 0 -67 24z" />
    <glyph glyph-name="ygrave.sc" horiz-adv-x="594" 
d="M392 560h195v-19l-200 -337v-204h-180v203l-200 339v18h194l52 -94l44 -84l44 84zM383 620v-8h-147l-117 143v8h178z" />
    <glyph glyph-name="uni0233.sc" horiz-adv-x="594" 
d="M392 560h195v-19l-200 -337v-204h-180v203l-200 339v18h194l52 -94l44 -84l44 84zM468 629h-342v112h342v-112z" />
    <glyph glyph-name="uni1EF9.sc" horiz-adv-x="594" 
d="M392 560h195v-19l-200 -337v-204h-180v203l-200 339v18h194l52 -94l44 -84l44 84zM303 626q-9 4 -22 10t-22.5 9t-19.5 3q-14 0 -22.5 -11t-8.5 -29h-131q0 78 36 121.5t99 43.5q26 0 45 -6.5t45 -19.5q34 -17 56 -17q15 0 22.5 9t7.5 29h129q1 -78 -32.5 -121t-93.5 -43
q-38 0 -88 22z" />
    <glyph glyph-name="z.sc" horiz-adv-x="536" 
d="M271 153l95 2h144v-155h-484v98l232 312l-90 -2h-132v152h466v-97z" />
    <glyph glyph-name="zacute.sc" horiz-adv-x="536" 
d="M271 153l95 2h144v-155h-484v98l232 312l-90 -2h-132v152h466v-97zM331 612h-147v8l86 143h178v-8z" />
    <glyph glyph-name="zcaron.sc" horiz-adv-x="536" 
d="M271 153l95 2h144v-155h-484v98l232 312l-90 -2h-132v152h466v-97zM272 699l68 67h145v-15l-131 -140h-163l-131 140v15h145z" />
    <glyph glyph-name="zdotaccent.sc" horiz-adv-x="536" 
d="M271 153l95 2h144v-155h-484v98l232 312l-90 -2h-132v152h466v-97zM205 628.5q-26 25.5 -26 65.5t26 65.5t68 25.5q41 0 67.5 -25.5t26.5 -65.5t-26.5 -65.5t-67.5 -25.5q-42 0 -68 25.5z" />
    <glyph glyph-name="ordfeminine" unicode="&#xaa;" horiz-adv-x="358" 
d="M237 680h94v-280h-94l-3 19q-34 -25 -80 -25q-64 0 -102.5 42t-38.5 104q0 64 39.5 105t101.5 41q45 0 81 -25zM209.5 500.5q15.5 15.5 15.5 39.5q0 25 -15.5 40.5t-39.5 15.5q-23 0 -38.5 -15.5t-15.5 -40.5q0 -24 15.5 -39.5t38.5 -15.5q24 0 39.5 15.5z" />
    <glyph glyph-name="ordmasculine" unicode="&#xba;" horiz-adv-x="340" 
d="M56 435q-43 41 -43 105q0 65 43 106t114 41t114.5 -41t43.5 -106q0 -64 -43.5 -105t-114.5 -41t-114 41zM208.5 500.5q15.5 15.5 15.5 39.5q0 25 -15.5 40.5t-38.5 15.5t-38.5 -15.5t-15.5 -40.5q0 -24 15.5 -39.5t38.5 -15.5t38.5 15.5z" />
    <glyph glyph-name="a.sups" horiz-adv-x="358" 
d="M237 680h94v-280h-94l-3 19q-34 -25 -80 -25q-64 0 -102.5 42t-38.5 104q0 64 39.5 105t101.5 41q45 0 81 -25zM209.5 500.5q15.5 15.5 15.5 39.5q0 25 -15.5 40.5t-39.5 15.5q-23 0 -38.5 -15.5t-15.5 -40.5q0 -24 15.5 -39.5t38.5 -15.5q24 0 39.5 15.5z" />
    <glyph glyph-name="b.sups" horiz-adv-x="358" 
d="M305.5 646q39.5 -41 39.5 -106q0 -62 -39 -104t-103 -42q-44 0 -80 25l-3 -19h-93v370h108v-100q31 17 68 17q63 0 102.5 -41zM226.5 500.5q15.5 15.5 15.5 39.5q0 25 -15.5 40.5t-39.5 15.5q-23 0 -38.5 -15.5t-15.5 -40.5q0 -24 15.5 -39.5t38.5 -15.5q24 0 39.5 15.5z
" />
    <glyph glyph-name="c.sups" horiz-adv-x="326" 
d="M55.5 435q-42.5 41 -42.5 105q0 65 42.5 106t112.5 41q59 0 99.5 -33.5t48.5 -88.5h-97q-6 14 -19.5 22.5t-30.5 8.5q-24 0 -38.5 -15.5t-14.5 -40.5q0 -24 14.5 -39.5t38.5 -15.5q17 0 30.5 8.5t19.5 22.5h97q-8 -55 -48 -88.5t-100 -33.5q-70 0 -112.5 41z" />
    <glyph glyph-name="d.sups" horiz-adv-x="358" 
d="M223 770h108v-370h-93l-3 18q-35 -24 -81 -24q-64 0 -102.5 42t-38.5 104q0 65 39 105.5t102 40.5q37 0 69 -16v100zM209.5 500.5q15.5 15.5 15.5 39.5q0 25 -15.5 40.5t-39.5 15.5t-39.5 -15.5t-15.5 -40.5q0 -24 15.5 -39.5t39.5 -15.5t39.5 15.5z" />
    <glyph glyph-name="e.sups" horiz-adv-x="333" 
d="M118 514q6 -17 19.5 -26.5t31.5 -9.5q23 0 39 12h102q-14 -45 -53 -70.5t-90 -25.5q-68 0 -111 41t-43 105q0 65 43 106t111 41q67 0 110.5 -42t43.5 -105q0 -8 -2 -26h-201zM138 591q-13 -8 -19 -23h99q-5 15 -18 23t-31 8t-31 -8z" />
    <glyph glyph-name="f.sups" horiz-adv-x="222" 
d="M163 702.5q-9 -7.5 -9 -18.5v-4h57v-89h-55v-191h-108v191h-39v89h39v15q0 46 30.5 70.5t87.5 24.5q25 0 48 -4v-78q-20 2 -26 2q-16 0 -25 -7.5z" />
    <glyph glyph-name="g.sups" horiz-adv-x="351" 
d="M231 680h93v-255q0 -65 -44 -104.5t-115 -39.5q-60 0 -97 28.5t-43 81.5h95q10 -23 47 -23q25 0 37 14.5t12 40.5v4q-29 -17 -66 -17q-60 0 -98.5 39t-38.5 99t38.5 99.5t98.5 39.5q45 0 79 -25zM202.5 510q13.5 14 13.5 36t-13.5 36t-35.5 14t-35.5 -14t-13.5 -36
t13.5 -36t35.5 -14t35.5 14z" />
    <glyph glyph-name="h.sups" horiz-adv-x="346" 
d="M293.5 654q29.5 -33 29.5 -90v-164h-109v148q0 48 -38 48q-18 0 -29.5 -13t-11.5 -36v-147h-108v370h107v-109q31 26 75 26q55 0 84.5 -33z" />
    <glyph glyph-name="i.sups" horiz-adv-x="163" 
d="M38 713q-16 15 -16 40q0 26 16 41t44 15q26 0 42.5 -15.5t16.5 -40.5t-16.5 -40t-42.5 -15q-28 0 -44 15zM136 400h-108v280h108v-280z" />
    <glyph glyph-name="j.sups" horiz-adv-x="166" 
d="M40 713q-16 15 -16 40q0 26 16 41t44 15q27 0 43 -15t16 -41q0 -25 -16 -40t-43 -15q-28 0 -44 15zM-20 293v88q12 -2 22 -2q15 0 21 9t6 29v263h109v-288q0 -53 -31 -78.5t-81 -25.5q-19 0 -46 5z" />
    <glyph glyph-name="k.sups" horiz-adv-x="322" 
d="M309 671l-82 -125l91 -137v-9h-126l-58 101v-101h-107v370h107v-186l53 96h122v-9z" />
    <glyph glyph-name="l.sups" horiz-adv-x="162" 
d="M135 400h-108v370h108v-370z" />
    <glyph glyph-name="m.sups" horiz-adv-x="527" 
d="M473.5 654.5q30.5 -32.5 30.5 -90.5v-164h-108v147q0 49 -35 49q-20 0 -31.5 -13.5t-11.5 -35.5v-147h-106v147q0 49 -36 49q-19 0 -30.5 -13.5t-11.5 -35.5v-147h-107v280h100l2 -23q32 30 78 30q59 0 86 -47q38 47 97 47q53 0 83.5 -32.5z" />
    <glyph glyph-name="n.sups" horiz-adv-x="346" 
d="M293.5 654q29.5 -33 29.5 -90v-164h-109v146q0 24 -8.5 36t-27.5 12q-21 0 -32 -13t-11 -36v-145h-108v280h94l3 -27q16 16 38.5 25t46.5 9q55 0 84.5 -33z" />
    <glyph glyph-name="o.sups" horiz-adv-x="340" 
d="M56 435q-43 41 -43 105q0 65 43 106t114 41t114.5 -41t43.5 -106q0 -64 -43.5 -105t-114.5 -41t-114 41zM208.5 500.5q15.5 15.5 15.5 39.5q0 25 -15.5 40.5t-38.5 15.5t-38.5 -15.5t-15.5 -40.5q0 -24 15.5 -39.5t38.5 -15.5t38.5 15.5z" />
    <glyph glyph-name="p.sups" horiz-adv-x="359" 
d="M307 646q40 -41 40 -106q0 -62 -39.5 -104t-104.5 -42q-40 0 -72 20v-102h-104v368h89l3 -21q36 28 84 28q64 0 104 -41zM226.5 500.5q15.5 15.5 15.5 39.5q0 25 -15.5 40.5t-39.5 15.5q-23 0 -38.5 -15.5t-15.5 -40.5q0 -24 15.5 -39.5t38.5 -15.5q24 0 39.5 15.5z" />
    <glyph glyph-name="q.sups" horiz-adv-x="359" 
d="M239 680h93v-368h-108v100q-30 -18 -69 -18q-64 0 -103 42t-39 104q0 65 39.5 106t103.5 41q46 0 80 -26zM210.5 500.5q15.5 15.5 15.5 39.5q0 25 -15.5 40.5t-39.5 15.5q-23 0 -38.5 -15.5t-15.5 -40.5q0 -24 15.5 -39.5t38.5 -15.5q24 0 39.5 15.5z" />
    <glyph glyph-name="r.sups" horiz-adv-x="236" 
d="M229 682v-93q-24 4 -35 4q-59 0 -59 -67v-126h-108v280h100l2 -18q27 25 67 25q13 0 33 -5z" />
    <glyph glyph-name="s.sups" horiz-adv-x="286" 
d="M49.5 419.5q-35.5 25.5 -38.5 69.5h104q1 -11 9 -17.5t22 -6.5t21 5.5t7 13.5q0 9 -9.5 14t-36.5 8q-113 13 -113 89q0 42 34 67t94 25q53 0 88.5 -26t37.5 -66h-96q-1 20 -31 20q-11 0 -18 -4t-7 -11q0 -10 9.5 -14.5t37.5 -7.5q54 -5 83 -29t29 -62q0 -42 -36 -67.5
t-95 -25.5q-60 0 -95.5 25.5z" />
    <glyph glyph-name="t.sups" horiz-adv-x="228" 
d="M214 488v-84q-27 -7 -54 -7q-59 0 -86.5 25.5t-27.5 78.5v90h-38v89h38v61l109 9v-70h55v-89h-55v-74q0 -31 32 -31q17 0 27 2z" />
    <glyph glyph-name="u.sups" horiz-adv-x="346" 
d="M211 680h108v-280h-94l-3 27q-16 -16 -38.5 -25t-46.5 -9q-55 0 -84.5 33t-29.5 90v164h109v-146q0 -24 8.5 -36t27.5 -12q43 0 43 50v144z" />
    <glyph glyph-name="v.sups" horiz-adv-x="322" 
d="M176 589l29 91h113v-9l-108 -271h-98l-108 271v9h113l29 -91l15 -46z" />
    <glyph glyph-name="w.sups" horiz-adv-x="482" 
d="M347 602l20 78h112v-9l-88 -271h-107l-19 54l-24 66l-24 -66l-20 -54h-105l-88 271v9h111l22 -78l16 -56l46 121h84l47 -122z" />
    <glyph glyph-name="x.sups" horiz-adv-x="323" 
d="M309 670l-80 -127l84 -133v-10h-115l-25 45l-13 22l-13 -22l-25 -45h-117v10l85 133l-80 127v10h113l24 -42l13 -22l13 22l23 42h113v-10z" />
    <glyph glyph-name="y.sups" horiz-adv-x="322" 
d="M173 582l33 98h112v-10l-143 -358h-115v8l44 102l-100 248v10h113l32 -98l12 -38z" />
    <glyph glyph-name="z.sups" horiz-adv-x="261" 
d="M151 490h99v-90h-240v50l94 141h-87v89h230v-46z" />
    <glyph glyph-name="uni0410" unicode="&#x410;" horiz-adv-x="696" 
d="M261 700h173l255 -679v-21h-195l-33 108h-226l-35 -108h-193v21zM279 257h138l-69 198z" />
    <glyph glyph-name="uni0411" unicode="&#x411;" horiz-adv-x="625" 
d="M358 442q113 0 177 -56t64 -159q0 -69 -29.5 -120t-84 -79t-127.5 -28h-290v700h475v-171h-295v-87h110zM346 167q32 0 50.5 17t18.5 46t-18.5 45t-50.5 16h-99v-124h99z" />
    <glyph glyph-name="uni0412" unicode="&#x412;" horiz-adv-x="635" 
d="M584.5 298.5q24.5 -44.5 24.5 -97.5q0 -60 -28.5 -105.5t-81 -70.5t-122.5 -25h-309v700h304q61 0 108.5 -23.5t74 -67t26.5 -99.5q0 -43 -17 -79.5t-48 -61.5q44 -26 68.5 -70.5zM247 546v-112h95q29 0 45 14.5t16 40.5q0 27 -16 42t-45 15h-95zM361 161q29 0 45.5 17
t16.5 46t-16.5 46t-45.5 17h-114v-126h114z" />
    <glyph glyph-name="uni0413" unicode="&#x413;" horiz-adv-x="513" 
d="M256 0h-188v700h438v-178h-250v-522z" />
    <glyph glyph-name="uni0403" unicode="&#x403;" horiz-adv-x="513" 
d="M256 0h-188v700h438v-178h-250v-522zM354 758h-149v8l88 142h181v-9z" />
    <glyph glyph-name="uni0490" unicode="&#x490;" horiz-adv-x="513" 
d="M344 700v97h162v-267h-250v-530h-188v700h276z" />
    <glyph glyph-name="uni0414" unicode="&#x414;" horiz-adv-x="785" 
d="M674 178h87v-305h-176v127h-391v-127h-175v305h70q29 28 42 75t19 143l23 304h501v-522zM345 527l-11 -147q-5 -66 -13.5 -114.5t-28.5 -88.5h196v350h-143z" />
    <glyph glyph-name="uni0415" unicode="&#x415;" horiz-adv-x="579" 
d="M254 270v-103h280v-167h-466v700h458v-164h-272v-105h251v-161h-251z" />
    <glyph glyph-name="uni0400" unicode="&#x400;" horiz-adv-x="579" 
d="M254 270v-103h280v-167h-466v700h458v-164h-272v-105h251v-161h-251zM378 766v-8h-149l-118 141v9h180z" />
    <glyph glyph-name="uni0401" unicode="&#x401;" horiz-adv-x="579" 
d="M254 270v-103h280v-167h-466v700h458v-164h-272v-105h251v-161h-251zM115.5 771q-24.5 24 -24.5 62t24.5 61.5t64.5 23.5t64.5 -23.5t24.5 -61.5t-24.5 -62t-64.5 -24t-64.5 24zM349.5 771q-24.5 24 -24.5 62t24.5 61.5t64.5 23.5t64.5 -23.5t24.5 -61.5t-24.5 -62
t-64.5 -24t-64.5 24z" />
    <glyph glyph-name="uni0416" unicode="&#x416;" horiz-adv-x="962" 
d="M937 679l-205 -322l219 -336v-21h-211l-167 276v-276h-184v276l-167 -276h-211v21l219 336l-204 322v21h202l161 -274v274h184v-274l161 274h203v-21z" />
    <glyph glyph-name="uni0417" unicode="&#x417;" horiz-adv-x="596" 
d="M544.5 295q25.5 -43 25.5 -97q0 -64 -35 -112t-97 -73.5t-141 -25.5q-126 0 -199.5 62t-73.5 172h182q1 -30 24.5 -47.5t63.5 -17.5q38 0 60.5 17t22.5 46t-24 46t-65 17h-75v156h75q36 0 57 15.5t21 42.5q0 26 -21 42t-56 16q-33 0 -53 -16t-22 -44h-175q0 65 31.5 115
t89.5 77t135 27q75 0 132 -24t88.5 -68.5t31.5 -102.5q0 -49 -19.5 -88t-57.5 -64q49 -28 74.5 -71z" />
    <glyph glyph-name="uni0418" unicode="&#x418;" horiz-adv-x="720" 
d="M250 344l260 356h143v-700h-189v171l7 184l-258 -355h-145v700h188v-195z" />
    <glyph glyph-name="uni0419" unicode="&#x419;" horiz-adv-x="720" 
d="M250 344l260 356h143v-700h-189v171l7 184l-258 -355h-145v700h188v-195zM536 761h-348v128h348v-128z" />
    <glyph glyph-name="uni040D" unicode="&#x40d;" horiz-adv-x="720" 
d="M250 344l260 356h143v-700h-189v171l7 184l-258 -355h-145v700h188v-195zM444 766v-8h-149l-118 141v9h180z" />
    <glyph glyph-name="uni041A" unicode="&#x41a;" horiz-adv-x="660" 
d="M635 679l-217 -322l231 -336v-21h-214l-178 272v-272h-189v700h189v-270l173 270h205v-21z" />
    <glyph glyph-name="uni040C" unicode="&#x40c;" horiz-adv-x="660" 
d="M635 679l-217 -322l231 -336v-21h-214l-178 272v-272h-189v700h189v-270l173 270h205v-21zM398 758h-149v8l88 142h181v-9z" />
    <glyph glyph-name="uni041B" unicode="&#x41b;" horiz-adv-x="740" 
d="M170 700h502v-700h-189v526h-139l-21 -272q-10 -131 -67 -193.5t-175 -62.5q-33 0 -59 2v170q9 -1 34 -1q40 0 58.5 23t22.5 77z" />
    <glyph glyph-name="uni041C" unicode="&#x41c;" horiz-adv-x="855" 
d="M429 398l206 302h152v-700h-188v202l2 165l-129 -188h-89l-130 189l3 -166v-202h-188v700h153z" />
    <glyph glyph-name="uni041D" unicode="&#x41d;" horiz-adv-x="720" 
d="M464 444v256h189v-700h-189v263h-208v-263h-188v700h188v-256h208z" />
    <glyph glyph-name="uni041E" unicode="&#x41e;" horiz-adv-x="805" 
d="M212 33.5q-84 46.5 -131.5 129.5t-47.5 187t47.5 187t131.5 129.5t191 46.5q106 0 190 -46.5t131.5 -129.5t47.5 -187t-47.5 -187t-131.5 -129.5t-190 -46.5q-107 0 -191 46.5zM493.5 190.5q40.5 23.5 63 65t22.5 94.5t-22.5 94.5t-63 65t-90.5 23.5t-90.5 -23.5
t-63.5 -65t-23 -94.5t23 -94.5t63.5 -65t90.5 -23.5t90.5 23.5z" />
    <glyph glyph-name="uni041F" unicode="&#x41f;" horiz-adv-x="706" 
d="M256 0h-188v700h571v-700h-189v526h-194v-526z" />
    <glyph glyph-name="uni0420" unicode="&#x420;" horiz-adv-x="619" 
d="M347 700q77 0 134.5 -31t89 -88.5t31.5 -133.5t-31.5 -133t-89 -88t-134.5 -31h-91v-195h-188v700h279zM329 362q40 0 62.5 22.5t22.5 60.5q0 39 -22.5 61.5t-62.5 22.5h-75v-167h75z" />
    <glyph glyph-name="uni0421" unicode="&#x421;" horiz-adv-x="778" 
d="M208 33.5q-82 46.5 -128.5 129.5t-46.5 187t46.5 187t128.5 129.5t186 46.5q91 0 166 -36t124.5 -102t64.5 -153h-190q-17 51 -60.5 81t-100.5 30q-49 0 -88.5 -23.5t-61.5 -65t-22 -94.5t22 -94.5t61.5 -65t88.5 -23.5q59 0 103.5 32t60.5 86h189q-14 -89 -63.5 -156.5
t-125 -104.5t-168.5 -37q-104 0 -186 46.5z" />
    <glyph glyph-name="uni0422" unicode="&#x422;" horiz-adv-x="583" 
d="M21 700h540v-172h-175v-528h-189v528h-176v172z" />
    <glyph glyph-name="uni0423" unicode="&#x423;" horiz-adv-x="652" 
d="M385 527l67 173h192v-21l-299 -679h-193v21l82 174l-225 484v21h192l75 -173l56 -143z" />
    <glyph glyph-name="uni040E" unicode="&#x40e;" horiz-adv-x="652" 
d="M385 527l67 173h192v-21l-299 -679h-193v21l82 174l-225 484v21h192l75 -173l56 -143zM501 761h-348v128h348v-128z" />
    <glyph glyph-name="uni0424" unicode="&#x424;" horiz-adv-x="804" 
d="M749 207.5q-36 -64.5 -102 -104t-154 -43.5v-78h-182v78q-88 5 -154 44t-102 103.5t-36 143.5q0 78 36.5 142.5t102.5 104t153 44.5v79h182v-79q87 -5 153.5 -44.5t102.5 -104t36 -142.5q0 -79 -36 -143.5zM486 219q58 4 88.5 40.5t30.5 90.5q0 56 -31 92.5t-88 40.5
v-264zM229.5 259.5q30.5 -36.5 87.5 -40.5v264q-57 -4 -87.5 -40.5t-30.5 -92.5q0 -54 30.5 -90.5z" />
    <glyph glyph-name="uni0425" unicode="&#x425;" horiz-adv-x="701" 
d="M674 679l-204 -322l216 -336v-21h-205l-94 154l-37 63l-38 -63l-94 -154h-203v21l217 336l-202 322v21h199l85 -142l36 -63l37 63l87 142h200v-21z" />
    <glyph glyph-name="uni0427" unicode="&#x427;" horiz-adv-x="668" 
d="M412 700h189v-700h-189v230q-51 -16 -106 -16q-81 0 -142 34t-94.5 96.5t-33.5 143.5v212h189v-196q0 -111 104 -111q45 0 83 13v294z" />
    <glyph glyph-name="uni0426" unicode="&#x426;" horiz-adv-x="747" 
d="M636 700v-522h87v-305h-175v127h-480v700h188v-524h192v524h188z" />
    <glyph glyph-name="uni0428" unicode="&#x428;" horiz-adv-x="1036" 
d="M782 176v524h186v-700h-900v700h186v-524h173v524h182v-524h173z" />
    <glyph glyph-name="uni0429" unicode="&#x429;" horiz-adv-x="1079" 
d="M968 700v-522h87v-305h-175v127h-812v700h186v-524h173v524h182v-524h173v524h186z" />
    <glyph glyph-name="uni040F" unicode="&#x40f;" horiz-adv-x="704" 
d="M448 700h188v-700h-194v-127h-180v127h-194v700h188v-524h192v524z" />
    <glyph glyph-name="uni042C" unicode="&#x42c;" horiz-adv-x="625" 
d="M350 489q76 0 133.5 -30.5t88.5 -86t31 -129.5q0 -72 -31.5 -127.5t-88.5 -85.5t-133 -30h-282v700h188v-211h94zM332 170q39 0 61 20.5t22 55.5t-22 55t-61 20h-78v-151h78z" />
    <glyph glyph-name="uni042A" unicode="&#x42a;" horiz-adv-x="729" 
d="M455 489q76 0 133 -30.5t88 -86t31 -129.5q0 -72 -31.5 -127t-88.5 -85.5t-132 -30.5h-283v524h-150v176h339v-211h94zM436 170q39 0 61 20.5t22 55.5t-22 55t-61 20h-77v-151h77z" />
    <glyph glyph-name="uni042B" unicode="&#x42b;" horiz-adv-x="927" 
d="M350 489q76 0 133.5 -30.5t88.5 -86t31 -129.5q0 -72 -31.5 -127.5t-88.5 -85.5t-133 -30h-282v700h188v-211h94zM671 0v700h188v-700h-188zM332 170q39 0 61 20.5t22 55.5t-22 55t-61 20h-78v-151h78z" />
    <glyph glyph-name="uni0409" unicode="&#x409;" horiz-adv-x="1041" 
d="M766 489q76 0 133.5 -30.5t88.5 -86t31 -129.5q0 -72 -31.5 -127.5t-88.5 -85.5t-133 -30h-282v526h-141l-20 -272q-10 -131 -68 -193.5t-176 -62.5q-23 0 -57 2v170q11 -1 34 -1q40 0 58.5 23t22.5 77l33 431h502v-211h94zM748 170q39 0 61 20.5t22 55.5t-22 55t-61 20
h-78v-151h78z" />
    <glyph glyph-name="uni040A" unicode="&#x40a;" horiz-adv-x="1017" 
d="M742 480q76 0 133.5 -30t88.5 -84.5t31 -126.5q0 -71 -31.5 -125.5t-88.5 -84t-133 -29.5h-278v279h-208v-279h-188v700h188v-240h208v240h189v-220h89zM724 170q39 0 61 19t22 53q0 33 -22 52t-61 19h-73v-143h73z" />
    <glyph glyph-name="uni0405" unicode="&#x405;" horiz-adv-x="610" 
d="M109.5 51.5q-74.5 61.5 -79.5 175.5h185q6 -71 96 -71q40 0 63 14.5t23 38.5q0 27 -27.5 43t-92.5 26q-115 18 -177 67t-62 144q0 69 34 119t94.5 76.5t138.5 26.5q116 0 188 -61t79 -166h-182q-5 31 -27 47t-60 16t-59 -14t-21 -39t25.5 -38.5t91.5 -24.5
q117 -17 181 -68.5t64 -147.5q0 -71 -35 -122t-97.5 -77t-141.5 -26q-127 0 -201.5 61.5z" />
    <glyph glyph-name="uni0404" unicode="&#x404;" horiz-adv-x="778" 
d="M751 282q-14 -88 -63.5 -155t-125 -103.5t-168.5 -36.5q-104 0 -186 46.5t-128.5 129.5t-46.5 187t46.5 187t128.5 129.5t186 46.5q91 0 166 -35.5t124.5 -101t64.5 -151.5h-186q-17 52 -61.5 82.5t-103.5 30.5q-58 0 -101.5 -30t-62.5 -82h225v-151h-225
q19 -52 62.5 -82.5t101.5 -30.5q60 0 106 32.5t62 87.5h185z" />
    <glyph glyph-name="uni042D" unicode="&#x42d;" horiz-adv-x="778" 
d="M570 666.5q82 -46.5 128.5 -129.5t46.5 -187t-46.5 -187t-128.5 -129.5t-186 -46.5q-93 0 -168.5 36.5t-125 103.5t-63.5 155h185q16 -55 61.5 -87.5t106.5 -32.5q58 0 101.5 30.5t62.5 82.5h-225v151h225q-19 52 -62.5 82t-101.5 30q-59 0 -103.5 -30.5t-61.5 -82.5
h-186q15 86 64.5 151.5t124.5 101t166 35.5q104 0 186 -46.5z" />
    <glyph glyph-name="uni0406" unicode="&#x406;" horiz-adv-x="471" 
d="M330 538v-373h102v-165h-393v165h102v373h-100v162h389v-162h-100z" />
    <glyph glyph-name="uni0407" unicode="&#x407;" horiz-adv-x="471" 
d="M330 538v-373h102v-165h-393v165h102v373h-100v162h389v-162h-100zM54.5 771q-24.5 24 -24.5 62t24.5 61.5t64.5 23.5t64.5 -23.5t24.5 -61.5t-24.5 -62t-64.5 -24t-64.5 24zM288.5 771q-24.5 24 -24.5 62t24.5 61.5t64.5 23.5t64.5 -23.5t24.5 -61.5t-24.5 -62
t-64.5 -24t-64.5 24z" />
    <glyph glyph-name="uni0408" unicode="&#x408;" horiz-adv-x="505" 
d="M107 700h337v-414q0 -296 -294 -296q-57 0 -120 10v175q49 -7 87 -7q75 0 106.5 34t31.5 98v229h-148v171z" />
    <glyph glyph-name="uni040B" unicode="&#x40b;" horiz-adv-x="801" 
d="M621.5 416.5q56.5 -31.5 87.5 -89t31 -133.5v-194h-187v172q0 103 -90 103q-37 0 -77 -17v-258h-189v528h-176v172h550v-168h-187v-101q56 17 106 17q75 0 131.5 -31.5z" />
    <glyph glyph-name="uni042E" unicode="&#x42e;" horiz-adv-x="1076" 
d="M867 666.5q83 -46.5 129.5 -129.5t46.5 -187t-46.5 -187t-129.5 -129.5t-188 -46.5q-89 0 -163.5 34.5t-124 97.5t-67.5 145h-68v-264h-188v700h188v-257h69q19 80 68.5 141t123.5 95t162 34q105 0 188 -46.5zM764.5 190.5q40.5 23.5 63 65t22.5 94.5t-22.5 94.5t-63 65
t-90.5 23.5t-90.5 -23.5t-63 -65t-22.5 -94.5t22.5 -94.5t63 -65t90.5 -23.5t90.5 23.5z" />
    <glyph glyph-name="uni042F" unicode="&#x42f;" horiz-adv-x="634" 
d="M566 700v-700h-188v241l-149 -241h-211v21l155 232q-66 25 -102.5 80t-36.5 132q0 72 32 125t91.5 81.5t139.5 28.5h269zM246 395q21 -20 60 -20h74v156h-74q-39 0 -60 -20t-21 -58t21 -58z" />
    <glyph glyph-name="uni0402" unicode="&#x402;" horiz-adv-x="740" 
d="M656 385.5q62 -58.5 62 -165.5q0 -108 -57.5 -166.5t-155.5 -58.5q-25 0 -62 5v156q22 -2 31 -2q29 0 44.5 17.5t15.5 44.5q0 31 -17.5 48.5t-50.5 17.5q-42 0 -80 -17v-265h-189v528h-176v172h542v-171h-179v-100q51 15 105 15q105 0 167 -58.5z" />
    <glyph glyph-name="uni0462" unicode="&#x462;" horiz-adv-x="631" 
d="M356 487q76 0 133 -30.5t88.5 -85.5t31.5 -128t-31.5 -128t-88.5 -85t-133 -30h-283v552h-70v105h70v43h189v-45h126v-100h-126v-68h94zM337 170q39 0 61.5 20.5t22.5 55.5t-22.5 55t-61.5 20h-77v-151h77z" />
    <glyph glyph-name="uni046A" unicode="&#x46a;" horiz-adv-x="794" 
d="M578 425q82 -23 126.5 -89.5t44.5 -167.5v-168h-170v150q0 64 -24.5 96t-74.5 37v-283h-166v283q-50 -5 -74 -37.5t-24 -95.5v-150h-171v168q0 102 45 168t127 89l-130 174v101h620v-101zM447 510l36 53h-172l37 -53l50 -75z" />
    <glyph glyph-name="uni0472" unicode="&#x472;" horiz-adv-x="805" 
d="M593 666.5q84 -46.5 131.5 -129.5t47.5 -187t-47.5 -187t-131.5 -129.5t-190 -46.5q-107 0 -191 46.5t-131.5 129.5t-47.5 187t47.5 187t131.5 129.5t191 46.5q106 0 190 -46.5zM295 505.5q-46 -33.5 -63 -90.5q33 14 71 14q36 0 62.5 -7.5t52.5 -20.5q23 -11 40 -16.5
t38 -5.5q40 0 82 23q-15 62 -62.5 99.5t-112.5 37.5q-62 0 -108 -33.5zM511.5 196.5q46.5 34.5 63.5 92.5q-34 -18 -74 -18q-35 0 -61 7.5t-54 21.5q-25 11 -41 16t-36 5q-19 0 -40.5 -6t-40.5 -17q15 -62 62 -99t113 -37q62 0 108.5 34.5z" />
    <glyph glyph-name="uni0474" unicode="&#x474;" horiz-adv-x="731" 
d="M717 702v-147q-21 3 -42 3q-20 0 -31.5 -7.5t-18.5 -25.5l-201 -525h-155l-260 679v21h196l52 -150l90 -268l106 309q19 60 59.5 89t114.5 29q51 0 90 -7z" />
    <glyph glyph-name="uni0492" unicode="&#x492;" horiz-adv-x="518" 
d="M511 700v-172h-249v-144h160v-142h-160v-242h-189v242h-66v142h66v316h438z" />
    <glyph glyph-name="uni0494" unicode="&#x494;" horiz-adv-x="617" 
d="M533 373q62 -75 62 -231q0 -161 -52.5 -238t-167.5 -77q-34 0 -72 6v156q12 -2 38 -2q36 0 53.5 33.5t17.5 121.5q0 81 -19.5 110.5t-64.5 29.5q-35 0 -72 -20v-262h-188v700h394v-175h-207v-91q50 14 101 14q115 0 177 -75z" />
    <glyph glyph-name="uni0496" unicode="&#x496;" horiz-adv-x="998" 
d="M732 357l116 -179h139v-305h-170v127h-77l-167 276v-276h-184v276l-167 -276h-211v21l219 336l-204 322v21h202l161 -274v274h184v-274l161 274h203v-21z" />
    <glyph glyph-name="uni0498" unicode="&#x498;" horiz-adv-x="596" 
d="M507 54.5q-63 -55.5 -167 -65.5l-15 -30q48 -4 75 -25.5t27 -58.5q0 -98 -148 -98q-55 0 -107 12v91q41 -10 80 -10q27 0 39.5 5t12.5 15q0 21 -38 21q-11 0 -35 -4l-17 21l29 62q-103 13 -161 73.5t-58 157.5h182q1 -30 24.5 -47.5t63.5 -17.5q38 0 60.5 17t22.5 46
t-24 46t-65 17h-75v156h75q36 0 57 15.5t21 42.5q0 26 -21 42t-56 16q-33 0 -53 -16t-22 -44h-175q0 65 31.5 115t89.5 77t135 27q75 0 132 -24t88.5 -68.5t31.5 -102.5q0 -49 -19.5 -88t-57.5 -64q49 -28 74.5 -71t25.5 -97q0 -88 -63 -143.5z" />
    <glyph glyph-name="uni049A" unicode="&#x49a;" horiz-adv-x="684" 
d="M418 357l123 -179h132v-305h-169v127h-69l-178 272v-272h-189v700h189v-270l173 270h205v-21z" />
    <glyph glyph-name="uni049C" unicode="&#x49c;" horiz-adv-x="745" 
d="M719 679l-151 -321l165 -337v-21h-198l-135 275h-20v-160h-89v160h-35v-275h-188v700h188v-257h35v156h89v-156h21l128 257h190v-21z" />
    <glyph glyph-name="uni04A0" unicode="&#x4a0;" horiz-adv-x="804" 
d="M779 679l-217 -322l231 -336v-21h-214l-178 272v-272h-190v525h-204v175h394v-270l172 270h206v-21z" />
    <glyph glyph-name="uni04A2" unicode="&#x4a2;" horiz-adv-x="764" 
d="M653 700v-522h87v-305h-170v127h-106v263h-208v-263h-188v700h188v-256h208v256h189z" />
    <glyph glyph-name="uni04A4" unicode="&#x4a4;" horiz-adv-x="892" 
d="M456 444v256h429v-178h-240v-522h-189v263h-200v-263h-188v700h188v-256h200z" />
    <glyph glyph-name="uni04AA" unicode="&#x4aa;" horiz-adv-x="778" 
d="M751 285q-20 -124 -104.5 -203.5t-209.5 -92.5l-15 -30q48 -4 75 -25.5t27 -58.5q0 -98 -148 -98q-55 0 -107 12v91q41 -10 80 -10q27 0 39.5 5t12.5 15q0 21 -38 21q-11 0 -35 -4l-17 21l29 62q-90 12 -159.5 61t-108.5 126.5t-39 172.5q0 104 46.5 187t128.5 129.5
t186 46.5q91 0 166 -36t124.5 -102t64.5 -153h-190q-17 51 -60.5 81t-100.5 30q-49 0 -88.5 -23.5t-61.5 -65t-22 -94.5t22 -94.5t61.5 -65t88.5 -23.5q59 0 103.5 32t60.5 86h189z" />
    <glyph glyph-name="uni04AE" unicode="&#x4ae;" horiz-adv-x="669" 
d="M457 700h206v-23l-234 -391v-286h-189v288l-233 391v21h205l62 -113l61 -114l61 114z" />
    <glyph glyph-name="uni04B0" unicode="&#x4b0;" horiz-adv-x="669" 
d="M457 700h206v-23l-216 -360h130v-121h-148v-196h-189v196h-148v121h131l-216 362v21h205l62 -113l61 -114l61 114z" />
    <glyph glyph-name="uni04B2" unicode="&#x4b2;" horiz-adv-x="737" 
d="M470 357l115 -179h141v-305h-170v127h-75l-94 154l-37 63l-38 -63l-94 -154h-203v21l217 336l-202 322v21h199l85 -142l36 -63l37 63l87 142h200v-21z" />
    <glyph glyph-name="uni04B6" unicode="&#x4b6;" horiz-adv-x="712" 
d="M601 178h87v-305h-170v127h-106v230q-51 -16 -106 -16q-81 0 -142 34t-94.5 96.5t-33.5 143.5v212h189v-196q0 -111 104 -111q45 0 83 13v294h189v-522z" />
    <glyph glyph-name="uni04B8" unicode="&#x4b8;" horiz-adv-x="672" 
d="M420 700h185v-700h-187v232q-32 -10 -52 -13v-123h-96v119q-114 10 -174 83t-60 190v212h185v-195q0 -42 12.5 -68t41.5 -37v139h92v-142q27 6 53 15v288z" />
    <glyph glyph-name="uni04BA" unicode="&#x4ba;" horiz-adv-x="669" 
d="M504 452q61 -34 94.5 -96.5t33.5 -143.5v-212h-189v196q0 111 -104 111q-45 0 -83 -13v-294h-188v700h188v-230q51 16 106 16q81 0 142 -34z" />
    <glyph glyph-name="uni04C0" unicode="&#x4c0;" horiz-adv-x="471" 
d="M330 538v-373h102v-165h-393v165h102v373h-100v162h389v-162h-100z" />
    <glyph glyph-name="uni04C1" unicode="&#x4c1;" horiz-adv-x="962" 
d="M937 679l-205 -322l219 -336v-21h-211l-167 276v-276h-184v276l-167 -276h-211v21l219 336l-204 322v21h202l161 -274v274h184v-274l161 274h203v-21zM655 761h-348v128h348v-128z" />
    <glyph glyph-name="uni04CB" unicode="&#x4cb;" horiz-adv-x="668" 
d="M412 700h189v-700h-96v-127h-170v273h77v89q-56 -17 -108 -17q-80 0 -141 34t-94 96.5t-33 143.5v208h189v-196q0 -54 25 -82.5t75 -28.5q39 0 87 18v289z" />
    <glyph glyph-name="uni04D0" unicode="&#x4d0;" horiz-adv-x="696" 
d="M261 700h173l255 -679v-21h-195l-33 108h-226l-35 -108h-193v21zM279 257h138l-69 198zM207.5 791.5q-51.5 42.5 -51.5 118.5h126q0 -26 18 -40t49 -14t48.5 14t17.5 40h126q0 -76 -51.5 -118.5t-140.5 -42.5q-90 0 -141.5 42.5z" />
    <glyph glyph-name="uni04D2" unicode="&#x4d2;" horiz-adv-x="696" 
d="M261 700h173l255 -679v-21h-195l-33 108h-226l-35 -108h-193v21zM279 257h138l-69 198zM166.5 771q-24.5 24 -24.5 62t24.5 61.5t64.5 23.5t64.5 -23.5t24.5 -61.5t-24.5 -62t-64.5 -24t-64.5 24zM400.5 771q-24.5 24 -24.5 62t24.5 61.5t64.5 23.5t64.5 -23.5
t24.5 -61.5t-24.5 -62t-64.5 -24t-64.5 24z" />
    <glyph glyph-name="uni04D4" unicode="&#x4d4;" horiz-adv-x="958" 
d="M634 270v-103h280v-167h-466v109h-183l-55 -109h-204v21l379 679h521v-164h-272v-104h251v-162h-251zM448 475l-111 -217h111v217z" />
    <glyph glyph-name="uni04D6" unicode="&#x4d6;" horiz-adv-x="579" 
d="M254 270v-103h280v-167h-466v700h458v-164h-272v-105h251v-161h-251zM155.5 791.5q-51.5 42.5 -51.5 118.5h126q0 -26 18 -40t49 -14t48.5 14t17.5 40h126q0 -76 -51.5 -118.5t-140.5 -42.5q-90 0 -141.5 42.5z" />
    <glyph glyph-name="uni04D8" unicode="&#x4d8;" horiz-adv-x="784" 
d="M574.5 665.5q82.5 -46.5 129.5 -129t47 -186.5t-47 -186t-129.5 -128.5t-185.5 -46.5q-104 0 -185.5 46.5t-127 129t-45.5 186.5q0 34 4 62h516q-15 60 -57.5 93.5t-103.5 33.5q-41 0 -76.5 -17.5t-55.5 -45.5h-208q36 109 127.5 172t211.5 63q103 0 185.5 -46.5z
M491 193.5q42 32.5 58 89.5h-320q15 -56 57 -89t103 -33q60 0 102 32.5z" />
    <glyph glyph-name="uni04DC" unicode="&#x4dc;" horiz-adv-x="962" 
d="M937 679l-205 -322l219 -336v-21h-211l-167 276v-276h-184v276l-167 -276h-211v21l219 336l-204 322v21h202l161 -274v274h184v-274l161 274h203v-21zM300.5 771q-24.5 24 -24.5 62t24.5 61.5t64.5 23.5t64.5 -23.5t24.5 -61.5t-24.5 -62t-64.5 -24t-64.5 24zM534.5 771
q-24.5 24 -24.5 62t24.5 61.5t64.5 23.5t64.5 -23.5t24.5 -61.5t-24.5 -62t-64.5 -24t-64.5 24z" />
    <glyph glyph-name="uni04DE" unicode="&#x4de;" horiz-adv-x="596" 
d="M544.5 295q25.5 -43 25.5 -97q0 -64 -35 -112t-97 -73.5t-141 -25.5q-126 0 -199.5 62t-73.5 172h182q1 -30 24.5 -47.5t63.5 -17.5q38 0 60.5 17t22.5 46t-24 46t-65 17h-75v156h75q36 0 57 15.5t21 42.5q0 26 -21 42t-56 16q-33 0 -53 -16t-22 -44h-175q0 65 31.5 115
t89.5 77t135 27q75 0 132 -24t88.5 -68.5t31.5 -102.5q0 -49 -19.5 -88t-57.5 -64q49 -28 74.5 -71zM116.5 771q-24.5 24 -24.5 62t24.5 61.5t64.5 23.5t64.5 -23.5t24.5 -61.5t-24.5 -62t-64.5 -24t-64.5 24zM350.5 771q-24.5 24 -24.5 62t24.5 61.5t64.5 23.5t64.5 -23.5
t24.5 -61.5t-24.5 -62t-64.5 -24t-64.5 24z" />
    <glyph glyph-name="uni04E2" unicode="&#x4e2;" horiz-adv-x="720" 
d="M250 344l260 356h143v-700h-189v171l7 184l-258 -355h-145v700h188v-195zM537 771h-349v120h349v-120z" />
    <glyph glyph-name="uni04E4" unicode="&#x4e4;" horiz-adv-x="720" 
d="M250 344l260 356h143v-700h-189v171l7 184l-258 -355h-145v700h188v-195zM181.5 771q-24.5 24 -24.5 62t24.5 61.5t64.5 23.5t64.5 -23.5t24.5 -61.5t-24.5 -62t-64.5 -24t-64.5 24zM415.5 771q-24.5 24 -24.5 62t24.5 61.5t64.5 23.5t64.5 -23.5t24.5 -61.5t-24.5 -62
t-64.5 -24t-64.5 24z" />
    <glyph glyph-name="uni04E6" unicode="&#x4e6;" horiz-adv-x="805" 
d="M212 33.5q-84 46.5 -131.5 129.5t-47.5 187t47.5 187t131.5 129.5t191 46.5q106 0 190 -46.5t131.5 -129.5t47.5 -187t-47.5 -187t-131.5 -129.5t-190 -46.5q-107 0 -191 46.5zM493.5 190.5q40.5 23.5 63 65t22.5 94.5t-22.5 94.5t-63 65t-90.5 23.5t-90.5 -23.5
t-63.5 -65t-23 -94.5t23 -94.5t63.5 -65t90.5 -23.5t90.5 23.5zM221.5 771q-24.5 24 -24.5 62t24.5 61.5t64.5 23.5t64.5 -23.5t24.5 -61.5t-24.5 -62t-64.5 -24t-64.5 24zM455.5 771q-24.5 24 -24.5 62t24.5 61.5t64.5 23.5t64.5 -23.5t24.5 -61.5t-24.5 -62t-64.5 -24
t-64.5 24z" />
    <glyph glyph-name="uni04E8" unicode="&#x4e8;" horiz-adv-x="805" 
d="M593 666.5q84 -46.5 131.5 -129.5t47.5 -187t-47.5 -187t-131.5 -129.5t-190 -46.5q-107 0 -191 46.5t-131.5 129.5t-47.5 187t47.5 187t131.5 129.5t191 46.5q106 0 190 -46.5zM293.5 508q-46.5 -34 -65.5 -91h349q-19 57 -65.5 91t-108.5 34q-63 0 -109.5 -34zM512 192
q47 34 65 92h-349q18 -57 65 -91.5t110 -34.5q62 0 109 34z" />
    <glyph glyph-name="uni04EE" unicode="&#x4ee;" horiz-adv-x="652" 
d="M385 527l67 173h192v-21l-299 -679h-193v21l82 174l-225 484v21h192l75 -173l56 -143zM502 771h-349v120h349v-120z" />
    <glyph glyph-name="uni04F0" unicode="&#x4f0;" horiz-adv-x="652" 
d="M385 527l67 173h192v-21l-299 -679h-193v21l82 174l-225 484v21h192l75 -173l56 -143zM145.5 771q-24.5 24 -24.5 62t24.5 61.5t64.5 23.5t64.5 -23.5t24.5 -61.5t-24.5 -62t-64.5 -24t-64.5 24zM379.5 771q-24.5 24 -24.5 62t24.5 61.5t64.5 23.5t64.5 -23.5t24.5 -61.5
t-24.5 -62t-64.5 -24t-64.5 24z" />
    <glyph glyph-name="uni04F2" unicode="&#x4f2;" horiz-adv-x="652" 
d="M385 527l67 173h192v-21l-299 -679h-193v21l82 174l-225 484v21h192l75 -173l56 -143zM287 758h-145v8l75 142h168v-9zM486 758h-139v8l98 142h167v-9z" />
    <glyph glyph-name="uni04F4" unicode="&#x4f4;" horiz-adv-x="668" 
d="M412 700h189v-700h-189v230q-51 -16 -106 -16q-81 0 -142 34t-94.5 96.5t-33.5 143.5v212h189v-196q0 -111 104 -111q45 0 83 13v294zM138.5 771q-24.5 24 -24.5 62t24.5 61.5t64.5 23.5t64.5 -23.5t24.5 -61.5t-24.5 -62t-64.5 -24t-64.5 24zM372.5 771
q-24.5 24 -24.5 62t24.5 61.5t64.5 23.5t64.5 -23.5t24.5 -61.5t-24.5 -62t-64.5 -24t-64.5 24z" />
    <glyph glyph-name="uni04F8" unicode="&#x4f8;" horiz-adv-x="927" 
d="M350 489q76 0 133.5 -30.5t88.5 -86t31 -129.5q0 -72 -31.5 -127.5t-88.5 -85.5t-133 -30h-282v700h188v-211h94zM671 0v700h188v-700h-188zM332 170q39 0 61 20.5t22 55.5t-22 55t-61 20h-78v-151h78zM282.5 771q-24.5 24 -24.5 62t24.5 61.5t64.5 23.5t64.5 -23.5
t24.5 -61.5t-24.5 -62t-64.5 -24t-64.5 24zM516.5 771q-24.5 24 -24.5 62t24.5 61.5t64.5 23.5t64.5 -23.5t24.5 -61.5t-24.5 -62t-64.5 -24t-64.5 24z" />
    <glyph glyph-name="uni0414.loclBGR" horiz-adv-x="758" 
d="M469 700l190 -522h84v-305h-175v127h-378v-127h-175v305h85l191 522h178zM444 248l-64 209l-65 -209l-24 -74h177z" />
    <glyph glyph-name="uni041B.loclBGR" horiz-adv-x="687" 
d="M262 700h165l253 -678v-22h-197l-58 169l-81 263l-82 -263l-59 -169h-196v22z" />
    <glyph glyph-name="uni0424.loclBGR" horiz-adv-x="921" 
d="M845 175q-43 -79 -120 -126.5t-176 -53.5v-105h-177v105q-99 6 -176 53.5t-120 126.5t-43 175q0 97 43 175.5t120 126t176 53.5v100h177v-100q99 -6 176 -53.5t120 -126t43 -175.5q0 -96 -43 -175zM543 165q69 8 112.5 60t43.5 125q0 74 -43 125.5t-113 59.5v-370z
M265.5 225q43.5 -52 112.5 -60v370q-69 -8 -112.5 -60t-43.5 -125t43.5 -125z" />
    <glyph glyph-name="uni0414.ss01" horiz-adv-x="758" 
d="M469 700l190 -522h84v-305h-175v127h-378v-127h-175v305h85l191 522h178zM444 248l-64 209l-65 -209l-24 -74h177z" />
    <glyph glyph-name="uni041B.ss01" horiz-adv-x="687" 
d="M262 700h165l253 -678v-22h-197l-58 169l-81 263l-82 -263l-59 -169h-196v22z" />
    <glyph glyph-name="uni0424.ss01" horiz-adv-x="921" 
d="M845 175q-43 -79 -120 -126.5t-176 -53.5v-105h-177v105q-99 6 -176 53.5t-120 126.5t-43 175q0 97 43 175.5t120 126t176 53.5v100h177v-100q99 -6 176 -53.5t120 -126t43 -175.5q0 -96 -43 -175zM543 165q69 8 112.5 60t43.5 125q0 74 -43 125.5t-113 59.5v-370z
M265.5 225q43.5 -52 112.5 -60v370q-69 -8 -112.5 -60t-43.5 -125t43.5 -125z" />
    <glyph glyph-name="uni0430" unicode="&#x430;" horiz-adv-x="676" 
d="M464 530h149v-530h-149l-8 47q-69 -58 -163 -58q-77 0 -137 36t-93 99t-33 141q0 81 34 143.5t94 97.5t135 35q47 0 89 -15.5t75 -43.5zM404.5 181.5q32.5 32.5 32.5 83.5t-32.5 83.5t-82.5 32.5t-82.5 -32.5t-32.5 -83.5t32.5 -83.5t82.5 -32.5t82.5 32.5z" />
    <glyph glyph-name="uni0431" unicode="&#x431;" horiz-adv-x="646" 
d="M501.5 446q55.5 -31 85.5 -85t30 -122q0 -73 -36 -130t-101.5 -89.5t-151.5 -32.5q-140 0 -216 84.5t-76 238.5q0 357 312 383l238 20v-163l-228 -17q-72 -6 -107 -31.5t-41 -73.5q32 23 74.5 36t89.5 13q72 0 127.5 -31zM408.5 172q31.5 27 31.5 71q0 45 -31.5 72
t-82.5 27q-50 0 -81 -27t-31 -72q0 -44 31 -71t81 -27q51 0 82.5 27z" />
    <glyph glyph-name="uni0432" unicode="&#x432;" horiz-adv-x="579" 
d="M538 224.5q18 -33.5 18 -73.5q0 -70 -50 -110.5t-136 -40.5h-306v530h305q77 0 122.5 -38t45.5 -103q0 -32 -13 -61t-38 -49q34 -21 52 -54.5zM232 409v-82h95q44 0 44 41t-44 41h-95zM341 124q21 0 33 12t12 32t-12 32t-33 12h-109v-88h109z" />
    <glyph glyph-name="uni0433" unicode="&#x433;" horiz-adv-x="464" 
d="M64 530h386v-159h-209v-371h-177v530z" />
    <glyph glyph-name="uni0453" unicode="&#x453;" horiz-adv-x="464" 
d="M64 530h386v-159h-209v-371h-177v530zM315 582h-147v8l86 143h178v-8z" />
    <glyph glyph-name="uni0491" unicode="&#x491;" horiz-adv-x="455" 
d="M291 530v97h151v-257h-201v-370h-177v530h227z" />
    <glyph glyph-name="uni0434" unicode="&#x434;" horiz-adv-x="665" 
d="M565 163h79v-290h-161v127h-311v-127h-160v290h63q18 21 24.5 47t10.5 81l18 239h437v-367zM287 377l-7 -102q-3 -42 -10 -69t-20 -49h142v220h-105z" />
    <glyph glyph-name="uni0435" unicode="&#x435;" horiz-adv-x="624" 
d="M204 214q11 -37 39.5 -56.5t71.5 -19.5q26 0 48.5 8.5t37.5 22.5h182q-28 -84 -100.5 -132.5t-168.5 -48.5q-81 0 -146 35.5t-102 99t-37 142.5q0 80 36.5 143t101.5 98.5t147 35.5t147 -35t101 -97.5t36 -140.5q0 -23 -5 -55h-389zM428 316q-11 36 -40 56.5t-72 20.5
q-42 0 -71 -20t-41 -57h224z" />
    <glyph glyph-name="uni0450" unicode="&#x450;" horiz-adv-x="624" 
d="M204 214q11 -37 39.5 -56.5t71.5 -19.5q26 0 48.5 8.5t37.5 22.5h182q-28 -84 -100.5 -132.5t-168.5 -48.5q-81 0 -146 35.5t-102 99t-37 142.5q0 80 36.5 143t101.5 98.5t147 35.5t147 -35t101 -97.5t36 -140.5q0 -23 -5 -55h-389zM428 316q-11 36 -40 56.5t-72 20.5
q-42 0 -71 -20t-41 -57h224zM400 590v-8h-147l-117 143v8h178z" />
    <glyph glyph-name="uni0451" unicode="&#x451;" horiz-adv-x="624" 
d="M204 214q11 -37 39.5 -56.5t71.5 -19.5q26 0 48.5 8.5t37.5 22.5h182q-28 -84 -100.5 -132.5t-168.5 -48.5q-81 0 -146 35.5t-102 99t-37 142.5q0 80 36.5 143t101.5 98.5t147 35.5t147 -35t101 -97.5t36 -140.5q0 -23 -5 -55h-389zM428 316q-11 36 -40 56.5t-72 20.5
q-42 0 -71 -20t-41 -57h224zM121 603q-26 24 -26 62q0 39 26 62.5t67 23.5q42 0 67.5 -23.5t25.5 -62.5q0 -38 -25.5 -62t-67.5 -24q-41 0 -67 24zM373 603q-26 24 -26 62q0 39 26 62.5t67 23.5q42 0 67.5 -23.5t25.5 -62.5q0 -38 -25.5 -62t-67.5 -24q-41 0 -67 24z" />
    <glyph glyph-name="uni0436" unicode="&#x436;" horiz-adv-x="830" 
d="M803 513l-147 -237l164 -259v-17h-199l-119 208v-208h-174v208l-119 -208h-199v17l164 259l-147 237v17h189l112 -202v202h174v-202l113 202h188v-17z" />
    <glyph glyph-name="uni0437" unicode="&#x437;" horiz-adv-x="511" 
d="M467 227.5q21 -33.5 21 -74.5q0 -77 -65.5 -121.5t-171.5 -44.5q-105 0 -168 49t-64 136h162q1 -21 19 -32.5t49 -11.5t48 11t17 30q0 20 -16 31t-47 11h-75v120h69q27 0 42 11t15 30q0 18 -15 28.5t-42 10.5q-26 0 -40.5 -11t-15.5 -30h-157q1 82 60 127.5t160 45.5
q98 0 159 -41.5t61 -110.5q0 -35 -15.5 -64t-47.5 -47q37 -19 58 -52.5z" />
    <glyph glyph-name="uni0438" unicode="&#x438;" horiz-adv-x="632" 
d="M236 281l193 249h139v-530h-175v146l3 103l-193 -249h-139v530h175v-147z" />
    <glyph glyph-name="uni0439" unicode="&#x439;" horiz-adv-x="632" 
d="M236 281l193 249h139v-530h-175v146l3 103l-193 -249h-139v530h175v-147zM471 585h-307v120h307v-120z" />
    <glyph glyph-name="uni045D" unicode="&#x45d;" horiz-adv-x="632" 
d="M236 281l193 249h139v-530h-175v146l3 103l-193 -249h-139v530h175v-147zM403 590v-8h-147l-117 143v8h178z" />
    <glyph glyph-name="uni043A" unicode="&#x43a;" horiz-adv-x="577" 
d="M551 513l-157 -238l173 -258v-17h-201l-125 201v-201h-177v530h177v-194l116 194h194v-17z" />
    <glyph glyph-name="uni045C" unicode="&#x45c;" horiz-adv-x="577" 
d="M551 513l-157 -238l173 -258v-17h-201l-125 201v-201h-177v530h177v-194l116 194h194v-17zM363 582h-147v8l86 143h178v-8z" />
    <glyph glyph-name="uni043B" unicode="&#x43b;" horiz-adv-x="621" 
d="M116 530h441v-530h-177v370h-100l-13 -180q-6 -90 -57 -141.5t-148 -51.5q-28 0 -52 3v151q11 -1 23 -1q28 0 43.5 15t17.5 50z" />
    <glyph glyph-name="uni043C" unicode="&#x43c;" horiz-adv-x="739" 
d="M371 317l161 213h144v-530h-176v155l6 103l-104 -137h-63l-106 138l6 -104v-155h-175v530h145z" />
    <glyph glyph-name="uni043D" unicode="&#x43d;" horiz-adv-x="637" 
d="M396 354v176h177v-530h-177v186h-156v-186h-176v530h176v-176h156z" />
    <glyph glyph-name="uni043E" unicode="&#x43e;" horiz-adv-x="640" 
d="M170.5 23.5q-66.5 35.5 -104 99t-37.5 142.5q0 80 37.5 143t103.5 98.5t150 35.5t150 -35.5t103.5 -98.5t37.5 -143q0 -79 -37.5 -142.5t-104 -99t-149.5 -35.5t-149.5 35.5zM402 181.5q32 32.5 32 83.5t-32 83.5t-82 32.5q-49 0 -81.5 -32.5t-32.5 -83.5t32.5 -83.5
t81.5 -32.5q50 0 82 32.5z" />
    <glyph glyph-name="uni043F" unicode="&#x43f;" horiz-adv-x="635" 
d="M64 0v530h507v-530h-176v370h-155v-370h-176z" />
    <glyph glyph-name="uni0440" unicode="&#x440;" horiz-adv-x="675" 
d="M518.5 505.5q59.5 -35.5 93 -98.5t33.5 -142q0 -77 -32.5 -140t-92 -99.5t-136.5 -36.5q-79 0 -143 42v-198h-177v697h149l6 -47q34 28 76 43t89 15q75 0 134.5 -35.5zM436.5 181.5q32.5 32.5 32.5 83.5t-32.5 83.5t-82.5 32.5t-82.5 -32.5t-32.5 -83.5t32.5 -83.5
t82.5 -32.5t82.5 32.5z" />
    <glyph glyph-name="uni0441" unicode="&#x441;" horiz-adv-x="616" 
d="M167 23.5q-65 35.5 -101.5 98.5t-36.5 143t36.5 143t101.5 98.5t147 35.5q74 0 133.5 -29t97.5 -81.5t47 -120.5h-170q-13 32 -41 51t-64 19q-50 0 -81 -32t-31 -84t31 -84t81 -32q37 0 64 19t41 52h171q-9 -69 -47 -121.5t-98 -81.5t-134 -29q-82 0 -147 35.5z" />
    <glyph glyph-name="uni0442" unicode="&#x442;" horiz-adv-x="543" 
d="M14 530h515v-161h-169v-369h-177v369h-169v161z" />
    <glyph glyph-name="uni0443" unicode="&#x443;" horiz-adv-x="585" 
d="M331 368l61 162h184v-18l-274 -679h-186v16l83 193l-190 470v18h184l60 -162l39 -123z" />
    <glyph glyph-name="uni045E" unicode="&#x45e;" horiz-adv-x="585" 
d="M331 368l61 162h184v-18l-274 -679h-186v16l83 193l-190 470v18h184l60 -162l39 -123zM446 585h-307v120h307v-120z" />
    <glyph glyph-name="uni0444" unicode="&#x444;" horiz-adv-x="774" 
d="M710 127.5q-34 -61.5 -95.5 -98t-139.5 -40.5v-156h-176v156q-78 4 -139.5 41t-96 98t-34.5 137t34.5 137.5t96 98t139.5 40.5v159h176v-159q78 -4 139.5 -40.5t95.5 -98t34 -137.5t-34 -137.5zM231 180q28 -34 75 -38v246q-48 -4 -75.5 -38t-27.5 -85t28 -85zM468 142
q47 4 75 38t28 85t-28 85t-75 38v-246z" />
    <glyph glyph-name="uni0445" unicode="&#x445;" horiz-adv-x="591" 
d="M560 512l-152 -244l159 -250v-18h-192l-84 145l-84 -145h-194v18l160 252l-153 242v18h190l46 -80l35 -62l36 62l45 80h188v-18z" />
    <glyph glyph-name="uni0447" unicode="&#x447;" horiz-adv-x="595" 
d="M355 530h176v-530h-176v162q-47 -13 -90 -13q-108 0 -169.5 57t-61.5 157v167h176v-141q0 -81 79 -81q36 0 66 10v212z" />
    <glyph glyph-name="uni0446" unicode="&#x446;" horiz-adv-x="670" 
d="M569 530v-366h80v-291h-165v127h-420v530h176v-369h152v369h177z" />
    <glyph glyph-name="uni0448" unicode="&#x448;" horiz-adv-x="942" 
d="M703 161v369h176v-530h-815v530h175v-369h145v369h174v-369h145z" />
    <glyph glyph-name="uni0449" unicode="&#x449;" horiz-adv-x="980" 
d="M879 530v-366h79v-291h-164v127h-730v530h175v-369h145v369h174v-369h146v369h175z" />
    <glyph glyph-name="uni045F" unicode="&#x45f;" horiz-adv-x="633" 
d="M393 530h177v-530h-171v-127h-165v127h-170v530h176v-369h153v369z" />
    <glyph glyph-name="uni044C" unicode="&#x44c;" horiz-adv-x="547" 
d="M322 396q93 0 149 -54t56 -143q0 -59 -25.5 -104t-72 -70t-107.5 -25h-258v530h176v-134h82zM299 144q27 0 42 14.5t15 40.5q0 25 -15 40t-42 15h-63v-110h63z" />
    <glyph glyph-name="uni044A" unicode="&#x44a;" horiz-adv-x="631" 
d="M406 396q93 0 149 -54t56 -143q0 -90 -56 -144.5t-149 -54.5h-258v379h-128v151h305v-134h81zM384 144q27 0 42 14.5t15 40.5q0 25 -15 40t-42 15h-63v-110h63z" />
    <glyph glyph-name="uni044B" unicode="&#x44b;" horiz-adv-x="851" 
d="M322 396q93 0 149 -54t56 -143q0 -59 -25.5 -104t-72 -70t-107.5 -25h-258v530h176v-134h82zM299 144q27 0 42 14.5t15 40.5q0 25 -15 40t-42 15h-63v-110h63zM788 0h-177v530h177v-530z" />
    <glyph glyph-name="uni0459" unicode="&#x459;" horiz-adv-x="861" 
d="M636 397q93 0 149 -54.5t56 -143.5q0 -90 -56 -144.5t-149 -54.5h-256v370h-100l-13 -185q-6 -91 -55.5 -139.5t-137.5 -48.5q-31 0 -64 3v152q14 -2 23 -2q27 0 43.5 17t18.5 52l21 311h439v-133h81zM614 144q27 0 42 14.5t15 40.5q0 25 -15 39.5t-42 14.5h-61v-109h61z
" />
    <glyph glyph-name="uni045A" unicode="&#x45a;" horiz-adv-x="879" 
d="M654 389q93 0 149.5 -53.5t56.5 -141.5t-56.5 -141t-149.5 -53h-258v194h-156v-194h-176v530h176v-168h156v168h177v-141h81zM632 144q28 0 42.5 13t14.5 37q0 25 -14.5 38t-42.5 13h-63v-101h63z" />
    <glyph glyph-name="uni0455" unicode="&#x455;" horiz-adv-x="529" 
d="M95 36.5q-64 48.5 -68 131.5h174q1 -22 19 -33.5t49 -11.5q28 0 44.5 10t16.5 27q0 19 -19.5 28t-74.5 16q-203 24 -203 164q0 52 28.5 91.5t80.5 61t121 21.5q64 0 115 -22t81 -61.5t33 -89.5h-167q-4 39 -64 39q-26 0 -40.5 -8.5t-14.5 -24.5q0 -19 21.5 -29t75.5 -16
q202 -22 202 -167q0 -52 -29.5 -91.5t-83.5 -61.5t-125 -22q-108 0 -172 48.5z" />
    <glyph glyph-name="uni0454" unicode="&#x454;" horiz-adv-x="616" 
d="M593 218q-9 -68 -47 -120t-98 -81t-134 -29q-82 0 -147 35.5t-101.5 98.5t-36.5 143t36.5 143t101.5 98.5t147 35.5q74 0 133.5 -28.5t97.5 -80.5t47 -120h-163q-15 36 -45.5 56.5t-69.5 20.5t-68 -18t-43 -50h157v-112h-158q14 -33 43.5 -51.5t68.5 -18.5q40 0 70 21
t45 57h164z" />
    <glyph glyph-name="uni044D" unicode="&#x44d;" horiz-adv-x="616" 
d="M450 506.5q65 -35.5 101 -98.5t36 -143t-36 -143t-101 -98.5t-148 -35.5q-74 0 -134 29t-97.5 81t-47.5 120h164q15 -36 45 -57t70 -21q39 0 68.5 18.5t43.5 51.5h-158v112h157q-14 32 -43 50t-68 18t-69.5 -20.5t-45.5 -56.5h-163q10 68 47.5 120t97 80.5t133.5 28.5
q83 0 148 -35.5z" />
    <glyph glyph-name="uni0456" unicode="&#x456;" horiz-adv-x="304" 
d="M80 600.5q-28 26.5 -28 67.5t28 67.5t72 26.5t72 -26.5t28 -67.5t-28 -67.5t-72 -26.5t-72 26.5zM241 0h-177v530h177v-530z" />
    <glyph glyph-name="uni0457" unicode="&#x457;" horiz-adv-x="304" 
d="M241 0h-177v530h177v-530zM-21 601q-24 24 -24 62q0 39 24 62.5t63 23.5t63.5 -23.5t24.5 -62.5q0 -38 -24.5 -62t-63.5 -24t-63 24zM197.5 601q-24.5 24 -24.5 62q0 39 24.5 62.5t63.5 23.5t63.5 -23.5t24.5 -62.5q0 -38 -24.5 -62t-63.5 -24t-63.5 24z" />
    <glyph glyph-name="uni0458" unicode="&#x458;" horiz-adv-x="310" 
d="M83 600.5q-28 26.5 -28 67.5t28 67.5t72 26.5t72 -26.5t28 -67.5t-28 -67.5t-72 -26.5t-72 26.5zM-38 -172v140q32 -4 42 -4q33 0 49 16t16 54v496h177v-515q0 -100 -52 -147.5t-145 -47.5q-37 0 -87 8z" />
    <glyph glyph-name="uni045B" unicode="&#x45b;" horiz-adv-x="651" 
d="M544.5 474q50.5 -61 50.5 -168v-306h-177v285q0 44 -21.5 68t-60.5 24q-43 0 -69.5 -25.5t-26.5 -69.5v-282h-177v571h-71v87h71v42h177v-42h148v-87h-148v-97q29 30 68.5 45.5t85.5 15.5q100 0 150.5 -61z" />
    <glyph glyph-name="uni044E" unicode="&#x44e;" horiz-adv-x="893" 
d="M724.5 506.5q65.5 -35.5 102.5 -99t37 -142.5t-37 -142.5t-102.5 -99t-147.5 -35.5q-103 0 -178 55t-99 146h-60v-189h-176v530h176v-180h63q26 88 99.5 140t174.5 52q82 0 147.5 -35.5zM657 181.5q32 32.5 32 83.5t-32 83.5t-81 32.5q-50 0 -82 -32.5t-32 -83.5
t32 -83.5t82 -32.5q49 0 81 32.5z" />
    <glyph glyph-name="uni044F" unicode="&#x44f;" horiz-adv-x="559" 
d="M495 530v-530h-176v180l-105 -180h-197v16l111 171q-47 20 -73.5 61t-26.5 99q0 85 53.5 134t147.5 49h266zM221 296q17 -16 48 -16h53v121h-53q-31 0 -48 -15.5t-17 -44.5t17 -45z" />
    <glyph glyph-name="uni0452" unicode="&#x452;" horiz-adv-x="655" 
d="M549.5 473.5q50.5 -61.5 50.5 -167.5v-336q0 -95 -48 -144.5t-136 -49.5q-39 0 -94 11v143q19 -4 43 -4q32 0 45 14t13 50v295q0 44 -21.5 68t-60.5 24q-44 0 -70 -25t-26 -70v-282h-177v571h-76v87h76v42h177v-42h143v-87h-143v-97q29 30 68.5 45.5t85.5 15.5
q100 0 150.5 -61.5z" />
    <glyph glyph-name="uni0463" unicode="&#x463;" horiz-adv-x="562" 
d="M337 396q61 0 107.5 -25t72 -69.5t25.5 -102.5q0 -90 -56 -144.5t-149 -54.5h-258v448h-71v88h71v164h177v-164h123v-87h-123v-53h81zM315 144q27 0 41.5 14.5t14.5 40.5q0 25 -14.5 39.5t-41.5 14.5h-63v-109h63z" />
    <glyph glyph-name="uni046B" unicode="&#x46b;" horiz-adv-x="689" 
d="M516 322q63 -15 97.5 -61t34.5 -119v-142h-154v136q0 69 -76 69v-205h-147v205q-76 0 -76 -69v-136h-154v142q0 74 35 119.5t98 60.5l-100 118v90h542v-90zM386 380l33 41h-150l33 -41l43 -52z" />
    <glyph glyph-name="uni0473" unicode="&#x473;" horiz-adv-x="640" 
d="M470 506.5q66 -35.5 103.5 -98.5t37.5 -143q0 -79 -37.5 -142.5t-104 -99t-149.5 -35.5t-149.5 35.5t-104 99t-37.5 142.5q0 80 37.5 143t103.5 98.5t150 35.5t150 -35.5zM243 374q-33 -24 -45 -65q26 19 60 19q40 0 72 -19q28 -14 49 -14q28 0 60 23q-14 37 -45.5 58.5
t-73.5 21.5q-44 0 -77 -24zM397.5 156q32.5 24 45.5 65q-27 -19 -61 -19q-22 0 -38 5t-34 14q-15 7 -26 10.5t-26 3.5q-14 0 -29.5 -6.5t-27.5 -17.5q14 -36 46 -57.5t73 -21.5q45 0 77.5 24z" />
    <glyph glyph-name="uni0475" unicode="&#x475;" horiz-adv-x="593" 
d="M581 530v-142q-7 1 -22 1q-18 0 -29 -8.5t-19 -28.5l-141 -352h-157l-204 512v18h186l57 -172l40 -128l59 176q21 70 55 100t95 30q37 0 80 -6z" />
    <glyph glyph-name="uni0493" unicode="&#x493;" horiz-adv-x="460" 
d="M446 530v-161h-200v-77h133v-110h-133v-182h-178v178h-60v115h60v237h378z" />
    <glyph glyph-name="uni0495" unicode="&#x495;" horiz-adv-x="600" 
d="M530 274q47 -72 47 -213q0 -135 -44.5 -208.5t-144.5 -73.5q-42 0 -89 8v137q21 -3 47 -3q41 0 56.5 33t15.5 105q0 66 -22 102t-65 36q-40 0 -65 -25.5t-25 -69.5v-102h-177v530h378v-146h-201v-82q56 44 135 44q107 0 154 -72z" />
    <glyph glyph-name="uni0497" unicode="&#x497;" horiz-adv-x="877" 
d="M656 276l71 -113h145v-290h-159v127h-92l-119 208v-208h-174v208l-119 -208h-199v17l164 259l-147 237v17h189l112 -202v202h174v-202l113 202h188v-17z" />
    <glyph glyph-name="uni0499" unicode="&#x499;" horiz-adv-x="511" 
d="M441.5 46q-46.5 -42 -126.5 -54l-13 -26q91 -10 91 -84q0 -53 -36 -79t-105 -26q-55 0 -105 12v91q40 -10 79 -10q51 0 51 22q0 23 -39 23q-13 0 -33 -4l-17 21l27 57q-90 8 -142.5 55.5t-53.5 127.5h162q1 -21 19 -32.5t49 -11.5t48 11t17 30q0 20 -16 31t-47 11h-75
v120h69q27 0 42 11t15 30q0 18 -15 28.5t-42 10.5q-26 0 -40.5 -11t-15.5 -30h-157q1 82 60 127.5t160 45.5q98 0 159 -41.5t61 -110.5q0 -35 -15.5 -64t-47.5 -47q37 -19 58 -52.5t21 -74.5q0 -65 -46.5 -107z" />
    <glyph glyph-name="uni049B" unicode="&#x49b;" horiz-adv-x="618" 
d="M394 275l75 -112h145v-290h-159v127h-89l-125 201v-201h-177v530h177v-194l116 194h194v-17z" />
    <glyph glyph-name="uni049D" unicode="&#x49d;" horiz-adv-x="653" 
d="M627 513l-118 -237l134 -259v-17h-200l-86 193h-15v-109h-76v109h-26v-193h-176v530h176v-193h26v109h76v-109h12l81 193h192v-17z" />
    <glyph glyph-name="uni04A1" unicode="&#x4a1;" horiz-adv-x="705" 
d="M678 513l-157 -238l173 -258v-17h-201l-125 202v-202h-177v369h-177v161h354v-195l116 195h194v-17z" />
    <glyph glyph-name="uni04A3" unicode="&#x4a3;" horiz-adv-x="674" 
d="M573 530v-367h80v-290h-159v127h-98v186h-156v-186h-176v530h176v-176h156v176h177z" />
    <glyph glyph-name="uni04A5" unicode="&#x4a5;" horiz-adv-x="788" 
d="M396 530h378v-161h-201v-369h-177v186h-156v-186h-176v530h176v-176h156v176z" />
    <glyph glyph-name="uni04AB" unicode="&#x4ab;" horiz-adv-x="616" 
d="M593 220q-12 -90 -71.5 -150.5t-149.5 -76.5l-14 -27q91 -10 91 -84q0 -53 -36 -79t-105 -26q-55 0 -105 12v91q40 -10 79 -10q51 0 51 22q0 23 -39 23q-13 0 -33 -4l-17 21l28 58q-71 9 -126.5 46.5t-86 96.5t-30.5 132q0 80 36.5 143t101.5 98.5t147 35.5
q74 0 133.5 -29t97.5 -81.5t47 -120.5h-170q-13 32 -41 51t-64 19q-50 0 -81 -32t-31 -84t31 -84t81 -32q37 0 64 19t41 52h171z" />
    <glyph glyph-name="uni04AF" unicode="&#x4af;" horiz-adv-x="573" 
d="M379 530h185v-18l-189 -474v-205h-177v207l-189 472v18h186l58 -175l34 -105l34 105z" />
    <glyph glyph-name="uni04B1" unicode="&#x4b1;" horiz-adv-x="573" 
d="M379 530h185v-18l-163 -410h99v-110h-125v-159h-177v159h-126v110h101l-164 410v18h186l58 -175l34 -105l34 105z" />
    <glyph glyph-name="uni04B3" unicode="&#x4b3;" horiz-adv-x="646" 
d="M408 268l67 -105h167v-290h-159v127h-108l-84 145l-84 -145h-194v18l160 252l-153 242v18h190l46 -80l35 -62l36 62l45 80h188v-18z" />
    <glyph glyph-name="uni04B7" unicode="&#x4b7;" horiz-adv-x="633" 
d="M531 163h80v-290h-159v127h-97v162q-47 -13 -90 -13q-108 0 -169.5 57t-61.5 157v167h176v-141q0 -81 79 -81q36 0 66 10v212h176v-367z" />
    <glyph glyph-name="uni04B9" unicode="&#x4b9;" horiz-adv-x="597" 
d="M360 530h175v-530h-176v162l-32 -8v-101h-82v97q-96 8 -153.5 66t-57.5 149v165h176v-132q0 -60 36 -80v109h81v-114q8 2 33 10v207z" />
    <glyph glyph-name="uni04BB" unicode="&#x4bb;" horiz-adv-x="651" 
d="M545.5 479q50.5 -61 50.5 -168v-311h-178v291q0 44 -21 67.5t-60 23.5q-44 0 -70 -25t-26 -69v-288h-177v700h177v-221q29 30 68.5 45.5t85.5 15.5q100 0 150.5 -61z" />
    <glyph glyph-name="uni04CF" unicode="&#x4cf;" horiz-adv-x="305" 
d="M242 0h-178v700h178v-700z" />
    <glyph glyph-name="uni04C2" unicode="&#x4c2;" horiz-adv-x="830" 
d="M803 513l-147 -237l164 -259v-17h-199l-119 208v-208h-174v208l-119 -208h-199v17l164 259l-147 237v17h189l112 -202v202h174v-202l113 202h188v-17zM569 585h-307v120h307v-120z" />
    <glyph glyph-name="uni04CC" unicode="&#x4cc;" horiz-adv-x="593" 
d="M353 530h176v-530h-91v-127h-159v244h74v58q-42 -12 -85 -12q-70 0 -123 27t-82 75.5t-29 111.5v153h174v-131q0 -39 18 -61.5t61 -22.5q32 0 66 14v201z" />
    <glyph glyph-name="uni04D1" unicode="&#x4d1;" horiz-adv-x="676" 
d="M464 530h149v-530h-149l-8 47q-69 -58 -163 -58q-77 0 -137 36t-93 99t-33 141q0 81 34 143.5t94 97.5t135 35q47 0 89 -15.5t75 -43.5zM404.5 181.5q32.5 32.5 32.5 83.5t-32.5 83.5t-82.5 32.5t-82.5 -32.5t-32.5 -83.5t32.5 -83.5t82.5 -32.5t82.5 32.5zM200 616.5
q-52 43.5 -52 119.5h126q0 -26 18.5 -41t48.5 -15t48 15t18 41h126q0 -75 -51.5 -119t-140.5 -44t-141 43.5z" />
    <glyph glyph-name="uni04D3" unicode="&#x4d3;" horiz-adv-x="676" 
d="M464 530h149v-530h-149l-8 47q-69 -58 -163 -58q-77 0 -137 36t-93 99t-33 141q0 81 34 143.5t94 97.5t135 35q47 0 89 -15.5t75 -43.5zM404.5 181.5q32.5 32.5 32.5 83.5t-32.5 83.5t-82.5 32.5t-82.5 -32.5t-32.5 -83.5t32.5 -83.5t82.5 -32.5t82.5 32.5zM147 603
q-26 24 -26 62q0 39 26 62.5t67 23.5q42 0 67.5 -23.5t25.5 -62.5q0 -38 -25.5 -62t-67.5 -24q-41 0 -67 24zM399 603q-26 24 -26 62q0 39 26 62.5t67 23.5q42 0 67.5 -23.5t25.5 -62.5q0 -38 -25.5 -62t-67.5 -24q-41 0 -67 24z" />
    <glyph glyph-name="uni04D5" unicode="&#x4d5;" horiz-adv-x="1047" 
d="M627 214q11 -37 39.5 -56.5t71.5 -19.5q26 0 48.5 8.5t37.5 22.5h182q-27 -84 -96 -132.5t-160 -48.5q-94 0 -164 51l-6 -39h-121l-6 46q-33 -27 -75 -42t-88 -15q-77 0 -136 36.5t-91.5 99.5t-32.5 140q0 79 33.5 142t92.5 98.5t134 35.5q94 0 164 -57l5 46h121l5 -40
q71 52 165 52q78 0 139.5 -35t96 -97.5t34.5 -141.5q0 -30 -4 -54h-389zM851 316q-11 36 -40 56.5t-73 20.5q-41 0 -70 -20.5t-41 -56.5h224zM403.5 181.5q32.5 32.5 32.5 83.5t-32.5 83.5t-82.5 32.5q-51 0 -83.5 -32.5t-32.5 -83.5t32.5 -83.5t83.5 -32.5q50 0 82.5 32.5z
" />
    <glyph glyph-name="uni04D7" unicode="&#x4d7;" horiz-adv-x="624" 
d="M204 214q11 -37 39.5 -56.5t71.5 -19.5q26 0 48.5 8.5t37.5 22.5h182q-28 -84 -100.5 -132.5t-168.5 -48.5q-81 0 -146 35.5t-102 99t-37 142.5q0 80 36.5 143t101.5 98.5t147 35.5t147 -35t101 -97.5t36 -140.5q0 -23 -5 -55h-389zM428 316q-11 36 -40 56.5t-72 20.5
q-42 0 -71 -20t-41 -57h224zM174 616.5q-52 43.5 -52 119.5h126q0 -26 18.5 -41t48.5 -15t48 15t18 41h126q0 -75 -51.5 -119t-140.5 -44t-141 43.5z" />
    <glyph glyph-name="uni04D9" unicode="&#x4d9;" horiz-adv-x="624" 
d="M457 506.5q65 -35.5 101.5 -98.5t36.5 -143q0 -79 -37 -142.5t-102 -99t-146 -35.5q-82 0 -147 35t-101 97.5t-36 140.5q0 23 5 55h389q-11 37 -39.5 57t-71.5 20q-25 0 -48 -9t-38 -23h-182q28 84 100.5 132.5t168.5 48.5q82 0 147 -35.5zM379 157q29 20 41 57h-224
q11 -36 40 -56.5t72 -20.5q42 0 71 20z" />
    <glyph glyph-name="uni04DD" unicode="&#x4dd;" horiz-adv-x="830" 
d="M803 513l-147 -237l164 -259v-17h-199l-119 208v-208h-174v208l-119 -208h-199v17l164 259l-147 237v17h189l112 -202v202h174v-202l113 202h188v-17zM222 603q-26 24 -26 62q0 39 26 62.5t67 23.5q42 0 67.5 -23.5t25.5 -62.5q0 -38 -25.5 -62t-67.5 -24q-41 0 -67 24z
M474 603q-26 24 -26 62q0 39 26 62.5t67 23.5q42 0 67.5 -23.5t25.5 -62.5q0 -38 -25.5 -62t-67.5 -24q-41 0 -67 24z" />
    <glyph glyph-name="uni04DF" unicode="&#x4df;" horiz-adv-x="511" 
d="M467 227.5q21 -33.5 21 -74.5q0 -77 -65.5 -121.5t-171.5 -44.5q-105 0 -168 49t-64 136h162q1 -21 19 -32.5t49 -11.5t48 11t17 30q0 20 -16 31t-47 11h-75v120h69q27 0 42 11t15 30q0 18 -15 28.5t-42 10.5q-26 0 -40.5 -11t-15.5 -30h-157q1 82 60 127.5t160 45.5
q98 0 159 -41.5t61 -110.5q0 -35 -15.5 -64t-47.5 -47q37 -19 58 -52.5zM61 603q-26 24 -26 62q0 39 26 62.5t67 23.5q42 0 67.5 -23.5t25.5 -62.5q0 -38 -25.5 -62t-67.5 -24q-41 0 -67 24zM313 603q-26 24 -26 62q0 39 26 62.5t67 23.5q42 0 67.5 -23.5t25.5 -62.5
q0 -38 -25.5 -62t-67.5 -24q-41 0 -67 24z" />
    <glyph glyph-name="uni04E3" unicode="&#x4e3;" horiz-adv-x="632" 
d="M236 281l193 249h139v-530h-175v146l3 103l-193 -249h-139v530h175v-147zM488 599h-342v112h342v-112z" />
    <glyph glyph-name="uni04E5" unicode="&#x4e5;" horiz-adv-x="632" 
d="M236 281l193 249h139v-530h-175v146l3 103l-193 -249h-139v530h175v-147zM124 603q-26 24 -26 62q0 39 26 62.5t67 23.5q42 0 67.5 -23.5t25.5 -62.5q0 -38 -25.5 -62t-67.5 -24q-41 0 -67 24zM376 603q-26 24 -26 62q0 39 26 62.5t67 23.5q42 0 67.5 -23.5t25.5 -62.5
q0 -38 -25.5 -62t-67.5 -24q-41 0 -67 24z" />
    <glyph glyph-name="uni04E7" unicode="&#x4e7;" horiz-adv-x="640" 
d="M170.5 23.5q-66.5 35.5 -104 99t-37.5 142.5q0 80 37.5 143t103.5 98.5t150 35.5t150 -35.5t103.5 -98.5t37.5 -143q0 -79 -37.5 -142.5t-104 -99t-149.5 -35.5t-149.5 35.5zM402 181.5q32 32.5 32 83.5t-32 83.5t-82 32.5q-49 0 -81.5 -32.5t-32.5 -83.5t32.5 -83.5
t81.5 -32.5q50 0 82 32.5zM127 603q-26 24 -26 62q0 39 26 62.5t67 23.5q42 0 67.5 -23.5t25.5 -62.5q0 -38 -25.5 -62t-67.5 -24q-41 0 -67 24zM379 603q-26 24 -26 62q0 39 26 62.5t67 23.5q42 0 67.5 -23.5t25.5 -62.5q0 -38 -25.5 -62t-67.5 -24q-41 0 -67 24z" />
    <glyph glyph-name="uni04E9" unicode="&#x4e9;" horiz-adv-x="651" 
d="M475 506.5q66 -35.5 103.5 -98.5t37.5 -143q0 -79 -37.5 -142.5t-104 -99t-149.5 -35.5t-149.5 35.5t-104 99t-37.5 142.5q0 80 37.5 143t103.5 98.5t150 35.5t150 -35.5zM258 366q-29 -20 -42 -53h218q-13 33 -42 53t-67 20t-67 -20zM392 164q29 20 42 53h-218
q13 -33 42 -53t67 -20t67 20z" />
    <glyph glyph-name="uni04EF" unicode="&#x4ef;" horiz-adv-x="585" 
d="M331 368l61 162h184v-18l-274 -679h-186v16l83 193l-190 470v18h184l60 -162l39 -123zM463 599h-342v112h342v-112z" />
    <glyph glyph-name="uni04F1" unicode="&#x4f1;" horiz-adv-x="585" 
d="M331 368l61 162h184v-18l-274 -679h-186v16l83 193l-190 470v18h184l60 -162l39 -123zM99 603q-26 24 -26 62q0 39 26 62.5t67 23.5q42 0 67.5 -23.5t25.5 -62.5q0 -38 -25.5 -62t-67.5 -24q-41 0 -67 24zM351 603q-26 24 -26 62q0 39 26 62.5t67 23.5q42 0 67.5 -23.5
t25.5 -62.5q0 -38 -25.5 -62t-67.5 -24q-41 0 -67 24z" />
    <glyph glyph-name="uni04F3" unicode="&#x4f3;" horiz-adv-x="585" 
d="M331 368l61 162h184v-18l-274 -679h-186v16l83 193l-190 470v18h184l60 -162l39 -123zM251 582h-145v8l78 144h168v-8zM450 582h-139v8l101 144h167v-8z" />
    <glyph glyph-name="uni04F5" unicode="&#x4f5;" horiz-adv-x="595" 
d="M355 530h176v-530h-176v162q-47 -13 -90 -13q-108 0 -169.5 57t-61.5 157v167h176v-141q0 -81 79 -81q36 0 66 10v212zM90 603q-26 24 -26 62q0 39 26 62.5t67 23.5q42 0 67.5 -23.5t25.5 -62.5q0 -38 -25.5 -62t-67.5 -24q-41 0 -67 24zM342 603q-26 24 -26 62
q0 39 26 62.5t67 23.5q42 0 67.5 -23.5t25.5 -62.5q0 -38 -25.5 -62t-67.5 -24q-41 0 -67 24z" />
    <glyph glyph-name="uni04F9" unicode="&#x4f9;" horiz-adv-x="851" 
d="M322 396q93 0 149 -54t56 -143q0 -59 -25.5 -104t-72 -70t-107.5 -25h-258v530h176v-134h82zM299 144q27 0 42 14.5t15 40.5q0 25 -15 40t-42 15h-63v-110h63zM788 0h-177v530h177v-530zM236 603q-26 24 -26 62q0 39 26 62.5t67 23.5q42 0 67.5 -23.5t25.5 -62.5
q0 -38 -25.5 -62t-67.5 -24q-41 0 -67 24zM488 603q-26 24 -26 62q0 39 26 62.5t67 23.5q42 0 67.5 -23.5t25.5 -62.5q0 -38 -25.5 -62t-67.5 -24q-41 0 -67 24z" />
    <glyph glyph-name="uni0432.loclBGR" horiz-adv-x="628" 
d="M573.5 299.5q28.5 -44.5 28.5 -96.5q0 -66 -34 -114.5t-96.5 -75t-144.5 -26.5q-140 0 -212 72t-72 205v165q0 86 34.5 150t98 99t149.5 35q79 0 135.5 -24.5t86.5 -69t30 -103.5q0 -44 -20.5 -83.5t-60.5 -64.5q49 -24 77.5 -68.5zM243.5 537.5q-27.5 -34.5 -27.5 -94.5
v-16h103q44 0 68 19.5t24 53.5t-23 53t-63 19q-54 0 -81.5 -34.5zM400.5 154q26.5 21 26.5 60q0 37 -27 58.5t-76 21.5h-108v-43q0 -55 28.5 -86.5t79.5 -31.5q50 0 76.5 21z" />
    <glyph glyph-name="uni0433.loclBGR" horiz-adv-x="529" 
d="M87 32.5q-63 44.5 -63 123.5q0 72 50 114.5t152 55.5q52 7 74 17.5t22 29.5q0 16 -14.5 24t-40.5 8q-59 0 -64 -39h-167q5 80 67.5 128t161.5 48q105 0 167.5 -46t62.5 -124q0 -69 -49.5 -108.5t-152.5 -55.5q-55 -8 -74.5 -17.5t-19.5 -28.5q0 -18 16 -26.5t45 -8.5
q31 0 49 11.5t19 33.5h174q-4 -84 -68.5 -134t-171.5 -50q-112 0 -175 44.5z" />
    <glyph glyph-name="uni0434.loclBGR" horiz-adv-x="661" 
d="M449 530h149v-443q0 -86 -36 -146t-100.5 -90.5t-147.5 -30.5q-113 0 -185 49t-82 146h171q6 -24 30.5 -36t59.5 -12q51 0 82.5 24t31.5 70v13q-61 -39 -140 -39q-71 0 -128.5 32t-90.5 89t-33 130q0 72 33 130.5t90.5 92t128.5 33.5q94 0 161 -56zM393 206.5
q30 29.5 30 75.5t-30 75t-79 29t-78.5 -29t-29.5 -75t29.5 -75.5t78.5 -29.5t79 29.5z" />
    <glyph glyph-name="uni0436.loclBGR" horiz-adv-x="830" 
d="M803 513l-147 -237l164 -259v-17h-199l-119 208v-208h-174v208l-119 -208h-199v17l164 259l-147 237v17h189l112 -202v372h174v-372l113 202h188v-17z" />
    <glyph glyph-name="uni0437.loclBGR" horiz-adv-x="576" 
d="M525.5 134.5q23.5 -43.5 23.5 -95.5q0 -66 -33 -115.5t-92 -76.5t-136 -27t-136.5 29t-93 82t-36.5 123h170q2 -38 29 -59t66 -21q37 0 62.5 19.5t25.5 55.5q0 35 -24.5 54t-68.5 19h-84v135h81q35 0 56.5 17t21.5 48q0 33 -21.5 51t-52.5 18q-32 0 -54.5 -16.5
t-28.5 -50.5h-163q2 65 34.5 114.5t87.5 77t124 27.5q72 0 127 -25t85 -71t30 -106q0 -84 -66 -135q43 -28 66.5 -71.5z" />
    <glyph glyph-name="uni0438.loclBGR" horiz-adv-x="639" 
d="M406 530h177v-530h-164l-5 57q-29 -33 -70 -50t-89 -17q-95 0 -147 59.5t-52 169.5v311h177v-289q0 -45 20.5 -69t56.5 -24q44 0 70 26t26 71v285z" />
    <glyph glyph-name="uni0439.loclBGR" horiz-adv-x="639" 
d="M406 530h177v-530h-164l-5 57q-29 -33 -70 -50t-89 -17q-95 0 -147 59.5t-52 169.5v311h177v-289q0 -45 20.5 -69t56.5 -24q44 0 70 26t26 71v285zM477 585h-307v120h307v-120z" />
    <glyph glyph-name="uni045D.loclBGR" horiz-adv-x="639" 
d="M406 530h177v-530h-164l-5 57q-29 -33 -70 -50t-89 -17q-95 0 -147 59.5t-52 169.5v311h177v-289q0 -45 20.5 -69t56.5 -24q44 0 70 26t26 71v285zM409 590v-8h-147l-117 143v8h178z" />
    <glyph glyph-name="uni043A.loclBGR" horiz-adv-x="577" 
d="M551 513l-157 -238l173 -258v-17h-201l-125 201v-201h-177v700h177v-364l116 194h194v-17z" />
    <glyph glyph-name="uni043B.loclBGR" horiz-adv-x="584" 
d="M213 530h157l206 -512v-18h-185l-55 169l-44 132l-98 -301h-186v18z" />
    <glyph glyph-name="uni043F.loclBGR" horiz-adv-x="651" 
d="M545.5 479q50.5 -61 50.5 -168v-311h-178v291q0 44 -21 67.5t-60 23.5q-44 0 -70 -25t-26 -69v-288h-177v530h163l6 -60q29 34 71 52t91 18q100 0 150.5 -61z" />
    <glyph glyph-name="uni0442.loclBGR" horiz-adv-x="997" 
d="M889 481q52 -59 52 -170v-311h-177v290q0 44 -21 68t-59 24q-43 0 -68 -25t-25 -67v-290h-177v290q0 44 -20.5 68t-59.5 24q-43 0 -68 -25t-25 -67v-290h-177v530h163l6 -59q27 33 68.5 51t91.5 18q56 0 97 -22t64 -65q72 87 186 87q97 0 149 -59z" />
    <glyph glyph-name="uni0446.loclBGR" horiz-adv-x="697" 
d="M582 215q0 -52 22 -75t71 -23v-244h-161v140q-52 14 -77 55q-72 -78 -180 -78q-96 0 -148.5 62.5t-52.5 171.5v306h177v-290q0 -92 76 -92q44 0 70 25.5t26 69.5v287h177v-315z" />
    <glyph glyph-name="uni0448.loclBGR" horiz-adv-x="989" 
d="M748 530h177v-530h-163l-6 59q-26 -33 -67 -51t-91 -18q-55 0 -95.5 22t-64.5 65q-69 -87 -183 -87q-94 0 -146.5 62t-52.5 171v307h177v-292q0 -90 79 -90q41 0 65.5 24t24.5 66v292h177v-292q0 -90 78 -90q42 0 66.5 25t24.5 67v290z" />
    <glyph glyph-name="uni0449.loclBGR" horiz-adv-x="1040" 
d="M925 215q0 -52 22 -75t71 -23v-244h-156v139q-57 12 -85 61q-36 -42 -79 -62.5t-100 -20.5q-56 0 -96.5 22t-62.5 65q-70 -87 -184 -87q-94 0 -146.5 60.5t-52.5 168.5v311h177v-290q0 -45 20 -68.5t59 -23.5q41 0 65.5 25t24.5 67v290h177v-290q0 -45 20 -68.5t58 -23.5
q41 0 66 25t25 68v289h177v-315z" />
    <glyph glyph-name="uni044C.loclBGR" horiz-adv-x="575" 
d="M457 397.5q47 -27.5 73.5 -76t26.5 -109.5q0 -65 -32.5 -116t-89.5 -80t-128 -29q-74 0 -131 29.5t-88.5 82.5t-31.5 120v311h175v-77l-3 -64q56 36 122 36q60 0 107 -27.5zM362.5 156q21.5 21 21.5 55t-21.5 55t-56.5 21t-56.5 -21t-21.5 -55t21.5 -55t56.5 -21t56.5 21
z" />
    <glyph glyph-name="uni044A.loclBGR" horiz-adv-x="660" 
d="M542.5 397.5q46.5 -27.5 73 -76t26.5 -109.5q0 -64 -32.5 -115.5t-89.5 -80.5t-128 -29q-73 0 -130 29.5t-89 82.5t-32 120v160h-121v151h297v-77l-3 -65q53 37 122 37q60 0 106.5 -27.5zM448 156q22 21 22 55t-22 55t-57 21t-56.5 -21t-21.5 -55t21.5 -55t56.5 -21
t57 21z" />
    <glyph glyph-name="uni044E.loclBGR" horiz-adv-x="895" 
d="M724.5 506.5q65.5 -35.5 102.5 -99t37 -142.5t-37 -142.5t-102.5 -99t-147.5 -35.5q-103 0 -178 54.5t-98 145.5h-61v-188h-176v700h176v-351h63q25 88 99 140.5t175 52.5q82 0 147.5 -35.5zM657 181.5q32 32.5 32 83.5t-32 83.5t-81 32.5q-50 0 -82 -32.5t-32 -83.5
t32 -83.5t82 -32.5q49 0 81 32.5z" />
    <glyph glyph-name="uni0431.loclSRB" horiz-adv-x="653" 
d="M170 17q-66 30 -103.5 84t-37.5 123q0 61 29 108t84 78v4q-81 46 -81 130q0 78 57.5 122.5t158.5 44.5h303v-155h-274q-55 0 -55 -38q0 -19 18.5 -28.5t56.5 -11.5q82 -3 147 -34t101.5 -84.5t36.5 -122.5q0 -74 -37.5 -130.5t-103.5 -88t-150 -31.5t-150 30zM405 165.5
q29 25.5 29 68.5t-29 68.5t-85 25.5q-55 0 -84.5 -25t-29.5 -66q0 -44 29.5 -70.5t84.5 -26.5q56 0 85 25.5z" />
    <glyph glyph-name="uni0433.loclSRB" horiz-adv-x="464" 
d="M64 530h386v-159h-209v-371h-177v530z" />
    <glyph glyph-name="uni0434.loclSRB" horiz-adv-x="665" 
d="M565 163h79v-290h-161v127h-311v-127h-160v290h63q18 21 24.5 47t10.5 81l18 239h437v-367zM287 377l-7 -102q-3 -42 -10 -69t-20 -49h142v220h-105z" />
    <glyph glyph-name="uni043F.loclSRB" horiz-adv-x="635" 
d="M64 0v530h507v-530h-176v370h-155v-370h-176z" />
    <glyph glyph-name="uni0442.loclSRB" horiz-adv-x="543" 
d="M14 530h515v-161h-169v-369h-177v369h-169v161z" />
    <glyph glyph-name="uni0448.loclSRB" horiz-adv-x="942" 
d="M703 161v369h176v-530h-815v530h175v-369h145v369h174v-369h145z" />
    <glyph glyph-name="uni0432.ss01" horiz-adv-x="628" 
d="M573.5 299.5q28.5 -44.5 28.5 -96.5q0 -66 -34 -114.5t-96.5 -75t-144.5 -26.5q-140 0 -212 72t-72 205v165q0 86 34.5 150t98 99t149.5 35q79 0 135.5 -24.5t86.5 -69t30 -103.5q0 -44 -20.5 -83.5t-60.5 -64.5q49 -24 77.5 -68.5zM243.5 537.5q-27.5 -34.5 -27.5 -94.5
v-16h103q44 0 68 19.5t24 53.5t-23 53t-63 19q-54 0 -81.5 -34.5zM400.5 154q26.5 21 26.5 60q0 37 -27 58.5t-76 21.5h-108v-43q0 -55 28.5 -86.5t79.5 -31.5q50 0 76.5 21z" />
    <glyph glyph-name="uni0433.ss01" horiz-adv-x="529" 
d="M87 32.5q-63 44.5 -63 123.5q0 72 50 114.5t152 55.5q52 7 74 17.5t22 29.5q0 16 -14.5 24t-40.5 8q-59 0 -64 -39h-167q5 80 67.5 128t161.5 48q105 0 167.5 -46t62.5 -124q0 -69 -49.5 -108.5t-152.5 -55.5q-55 -8 -74.5 -17.5t-19.5 -28.5q0 -18 16 -26.5t45 -8.5
q31 0 49 11.5t19 33.5h174q-4 -84 -68.5 -134t-171.5 -50q-112 0 -175 44.5z" />
    <glyph glyph-name="uni0453.ss01" horiz-adv-x="529" 
d="M87 32.5q-63 44.5 -63 123.5q0 72 50 114.5t152 55.5q52 7 74 17.5t22 29.5q0 16 -14.5 24t-40.5 8q-59 0 -64 -39h-167q5 80 67.5 128t161.5 48q105 0 167.5 -46t62.5 -124q0 -69 -49.5 -108.5t-152.5 -55.5q-55 -8 -74.5 -17.5t-19.5 -28.5q0 -18 16 -26.5t45 -8.5
q31 0 49 11.5t19 33.5h174q-4 -84 -68.5 -134t-171.5 -50q-112 0 -175 44.5zM324 582h-147v8l86 143h178v-8z" />
    <glyph glyph-name="uni0434.ss01" horiz-adv-x="661" 
d="M449 530h149v-443q0 -86 -36 -146t-100.5 -90.5t-147.5 -30.5q-113 0 -185 49t-82 146h171q6 -24 30.5 -36t59.5 -12q51 0 82.5 24t31.5 70v13q-61 -39 -140 -39q-71 0 -128.5 32t-90.5 89t-33 130q0 72 33 130.5t90.5 92t128.5 33.5q94 0 161 -56zM393 206.5
q30 29.5 30 75.5t-30 75t-79 29t-78.5 -29t-29.5 -75t29.5 -75.5t78.5 -29.5t79 29.5z" />
    <glyph glyph-name="uni0436.ss01" horiz-adv-x="830" 
d="M803 513l-147 -237l164 -259v-17h-199l-119 208v-208h-174v208l-119 -208h-199v17l164 259l-147 237v17h189l112 -202v372h174v-372l113 202h188v-17z" />
    <glyph glyph-name="uni0437.ss01" horiz-adv-x="576" 
d="M525.5 134.5q23.5 -43.5 23.5 -95.5q0 -66 -33 -115.5t-92 -76.5t-136 -27t-136.5 29t-93 82t-36.5 123h170q2 -38 29 -59t66 -21q37 0 62.5 19.5t25.5 55.5q0 35 -24.5 54t-68.5 19h-84v135h81q35 0 56.5 17t21.5 48q0 33 -21.5 51t-52.5 18q-32 0 -54.5 -16.5
t-28.5 -50.5h-163q2 65 34.5 114.5t87.5 77t124 27.5q72 0 127 -25t85 -71t30 -106q0 -84 -66 -135q43 -28 66.5 -71.5z" />
    <glyph glyph-name="uni0438.ss01" horiz-adv-x="639" 
d="M406 530h177v-530h-164l-5 57q-29 -33 -70 -50t-89 -17q-95 0 -147 59.5t-52 169.5v311h177v-289q0 -45 20.5 -69t56.5 -24q44 0 70 26t26 71v285z" />
    <glyph glyph-name="uni0439.ss01" horiz-adv-x="639" 
d="M406 530h177v-530h-164l-5 57q-29 -33 -70 -50t-89 -17q-95 0 -147 59.5t-52 169.5v311h177v-289q0 -45 20.5 -69t56.5 -24q44 0 70 26t26 71v285zM477 585h-307v120h307v-120z" />
    <glyph glyph-name="uni045D.ss01" horiz-adv-x="639" 
d="M406 530h177v-530h-164l-5 57q-29 -33 -70 -50t-89 -17q-95 0 -147 59.5t-52 169.5v311h177v-289q0 -45 20.5 -69t56.5 -24q44 0 70 26t26 71v285zM409 590v-8h-147l-117 143v8h178z" />
    <glyph glyph-name="uni043A.ss01" horiz-adv-x="577" 
d="M551 513l-157 -238l173 -258v-17h-201l-125 201v-201h-177v700h177v-364l116 194h194v-17z" />
    <glyph glyph-name="uni043B.ss01" horiz-adv-x="584" 
d="M213 530h157l206 -512v-18h-185l-55 169l-44 132l-98 -301h-186v18z" />
    <glyph glyph-name="uni043F.ss01" horiz-adv-x="651" 
d="M545.5 479q50.5 -61 50.5 -168v-311h-178v291q0 44 -21 67.5t-60 23.5q-44 0 -70 -25t-26 -69v-288h-177v530h163l6 -60q29 34 71 52t91 18q100 0 150.5 -61z" />
    <glyph glyph-name="uni0442.ss01" horiz-adv-x="997" 
d="M889 481q52 -59 52 -170v-311h-177v290q0 44 -21 68t-59 24q-43 0 -68 -25t-25 -67v-290h-177v290q0 44 -20.5 68t-59.5 24q-43 0 -68 -25t-25 -67v-290h-177v530h163l6 -59q27 33 68.5 51t91.5 18q56 0 97 -22t64 -65q72 87 186 87q97 0 149 -59z" />
    <glyph glyph-name="uni0446.ss01" horiz-adv-x="697" 
d="M582 215q0 -52 22 -75t71 -23v-244h-161v140q-52 14 -77 55q-72 -78 -180 -78q-96 0 -148.5 62.5t-52.5 171.5v306h177v-290q0 -92 76 -92q44 0 70 25.5t26 69.5v287h177v-315z" />
    <glyph glyph-name="uni0448.ss01" horiz-adv-x="989" 
d="M748 530h177v-530h-163l-6 59q-26 -33 -67 -51t-91 -18q-55 0 -95.5 22t-64.5 65q-69 -87 -183 -87q-94 0 -146.5 62t-52.5 171v307h177v-292q0 -90 79 -90q41 0 65.5 24t24.5 66v292h177v-292q0 -90 78 -90q42 0 66.5 25t24.5 67v290z" />
    <glyph glyph-name="uni0449.ss01" horiz-adv-x="1040" 
d="M925 215q0 -52 22 -75t71 -23v-244h-156v139q-57 12 -85 61q-36 -42 -79 -62.5t-100 -20.5q-56 0 -96.5 22t-62.5 65q-70 -87 -184 -87q-94 0 -146.5 60.5t-52.5 168.5v311h177v-290q0 -45 20 -68.5t59 -23.5q41 0 65.5 25t24.5 67v290h177v-290q0 -45 20 -68.5t58 -23.5
q41 0 66 25t25 68v289h177v-315z" />
    <glyph glyph-name="uni044C.ss01" horiz-adv-x="575" 
d="M457 397.5q47 -27.5 73.5 -76t26.5 -109.5q0 -65 -32.5 -116t-89.5 -80t-128 -29q-74 0 -131 29.5t-88.5 82.5t-31.5 120v311h175v-77l-3 -64q56 36 122 36q60 0 107 -27.5zM362.5 156q21.5 21 21.5 55t-21.5 55t-56.5 21t-56.5 -21t-21.5 -55t21.5 -55t56.5 -21t56.5 21
z" />
    <glyph glyph-name="uni044A.ss01" horiz-adv-x="660" 
d="M542.5 397.5q46.5 -27.5 73 -76t26.5 -109.5q0 -64 -32.5 -115.5t-89.5 -80.5t-128 -29q-73 0 -130 29.5t-89 82.5t-32 120v160h-121v151h297v-77l-3 -65q53 37 122 37q60 0 106.5 -27.5zM448 156q22 21 22 55t-22 55t-57 21t-56.5 -21t-21.5 -55t21.5 -55t56.5 -21
t57 21z" />
    <glyph glyph-name="uni044B.ss01" horiz-adv-x="879" 
d="M457 397.5q47 -27.5 73.5 -76t26.5 -109.5q0 -65 -32.5 -116t-89.5 -80t-128 -29q-74 0 -131 29.5t-88.5 82.5t-31.5 120v311h175v-77l-3 -64q56 36 122 36q60 0 107 -27.5zM362.5 156q21.5 21 21.5 55t-21.5 55t-56.5 21t-56.5 -21t-21.5 -55t21.5 -55t56.5 -21t56.5 21
zM816 0h-177v530h177v-530z" />
    <glyph glyph-name="uni044E.ss01" horiz-adv-x="895" 
d="M724.5 506.5q65.5 -35.5 102.5 -99t37 -142.5t-37 -142.5t-102.5 -99t-147.5 -35.5q-103 0 -178 54.5t-98 145.5h-61v-188h-176v700h176v-351h63q25 88 99 140.5t175 52.5q82 0 147.5 -35.5zM657 181.5q32 32.5 32 83.5t-32 83.5t-81 32.5q-50 0 -82 -32.5t-32 -83.5
t32 -83.5t82 -32.5q49 0 81 32.5z" />
    <glyph glyph-name="uni04C2.ss01" horiz-adv-x="830" 
d="M803 513l-147 -237l164 -259v-17h-199l-119 208v-208h-174v208l-119 -208h-199v17l164 259l-147 237v17h189l112 -202v372h174v-372l113 202h188v-17zM589 761h-348v128h348v-128z" />
    <glyph glyph-name="uni04DD.ss01" horiz-adv-x="830" 
d="M803 513l-147 -237l164 -259v-17h-199l-119 208v-208h-174v208l-119 -208h-199v17l164 259l-147 237v17h189l112 -202v372h174v-372l113 202h188v-17zM192.5 771q-24.5 24 -24.5 62t24.5 61.5t64.5 23.5t64.5 -23.5t24.5 -61.5t-24.5 -62t-64.5 -24t-64.5 24zM426.5 771
q-24.5 24 -24.5 62t24.5 61.5t64.5 23.5t64.5 -23.5t24.5 -61.5t-24.5 -62t-64.5 -24t-64.5 24z" />
    <glyph glyph-name="uni04DF.ss01" horiz-adv-x="576" 
d="M525.5 134.5q23.5 -43.5 23.5 -95.5q0 -66 -33 -115.5t-92 -76.5t-136 -27t-136.5 29t-93 82t-36.5 123h170q2 -38 29 -59t66 -21q37 0 62.5 19.5t25.5 55.5q0 35 -24.5 54t-68.5 19h-84v135h81q35 0 56.5 17t21.5 48q0 33 -21.5 51t-52.5 18q-32 0 -54.5 -16.5
t-28.5 -50.5h-163q2 65 34.5 114.5t87.5 77t124 27.5q72 0 127 -25t85 -71t30 -106q0 -84 -66 -135q43 -28 66.5 -71.5zM95 603q-26 24 -26 62q0 39 26 62.5t67 23.5q42 0 67.5 -23.5t25.5 -62.5q0 -38 -25.5 -62t-67.5 -24q-41 0 -67 24zM347 603q-26 24 -26 62
q0 39 26 62.5t67 23.5q42 0 67.5 -23.5t25.5 -62.5q0 -38 -25.5 -62t-67.5 -24q-41 0 -67 24z" />
    <glyph glyph-name="uni04E3.ss01" horiz-adv-x="639" 
d="M406 530h177v-530h-164l-5 57q-29 -33 -70 -50t-89 -17q-95 0 -147 59.5t-52 169.5v311h177v-289q0 -45 20.5 -69t56.5 -24q44 0 70 26t26 71v285zM494 599h-342v112h342v-112z" />
    <glyph glyph-name="uni04E5.ss01" horiz-adv-x="639" 
d="M406 530h177v-530h-164l-5 57q-29 -33 -70 -50t-89 -17q-95 0 -147 59.5t-52 169.5v311h177v-289q0 -45 20.5 -69t56.5 -24q44 0 70 26t26 71v285zM129 603q-26 24 -26 62q0 39 26 62.5t67 23.5q42 0 67.5 -23.5t25.5 -62.5q0 -38 -25.5 -62t-67.5 -24q-41 0 -67 24z
M381 603q-26 24 -26 62q0 39 26 62.5t67 23.5q42 0 67.5 -23.5t25.5 -62.5q0 -38 -25.5 -62t-67.5 -24q-41 0 -67 24z" />
    <glyph glyph-name="uni04F9.ss01" horiz-adv-x="879" 
d="M457 397.5q47 -27.5 73.5 -76t26.5 -109.5q0 -65 -32.5 -116t-89.5 -80t-128 -29q-74 0 -131 29.5t-88.5 82.5t-31.5 120v311h175v-77l-3 -64q56 36 122 36q60 0 107 -27.5zM362.5 156q21.5 21 21.5 55t-21.5 55t-56.5 21t-56.5 -21t-21.5 -55t21.5 -55t56.5 -21t56.5 21
zM816 0h-177v530h177v-530zM246 603q-26 24 -26 62q0 39 26 62.5t67 23.5q42 0 67.5 -23.5t25.5 -62.5q0 -38 -25.5 -62t-67.5 -24q-41 0 -67 24zM498 603q-26 24 -26 62q0 39 26 62.5t67 23.5q42 0 67.5 -23.5t25.5 -62.5q0 -38 -25.5 -62t-67.5 -24q-41 0 -67 24z" />
    <glyph glyph-name="uni0431.ss02" horiz-adv-x="653" 
d="M170 17q-66 30 -103.5 84t-37.5 123q0 61 29 108t84 78v4q-81 46 -81 130q0 78 57.5 122.5t158.5 44.5h303v-155h-274q-55 0 -55 -38q0 -19 18.5 -28.5t56.5 -11.5q82 -3 147 -34t101.5 -84.5t36.5 -122.5q0 -74 -37.5 -130.5t-103.5 -88t-150 -31.5t-150 30zM405 165.5
q29 25.5 29 68.5t-29 68.5t-85 25.5q-55 0 -84.5 -25t-29.5 -66q0 -44 29.5 -70.5t84.5 -26.5q56 0 85 25.5z" />
    <glyph glyph-name="uni0433.ss02" horiz-adv-x="464" 
d="M64 530h386v-159h-209v-371h-177v530z" />
    <glyph glyph-name="uni0434.ss02" horiz-adv-x="665" 
d="M565 163h79v-290h-161v127h-311v-127h-160v290h63q18 21 24.5 47t10.5 81l18 239h437v-367zM287 377l-7 -102q-3 -42 -10 -69t-20 -49h142v220h-105z" />
    <glyph glyph-name="uni043F.ss02" horiz-adv-x="635" 
d="M64 0v530h507v-530h-176v370h-155v-370h-176z" />
    <glyph glyph-name="uni0442.ss02" horiz-adv-x="543" 
d="M14 530h515v-161h-169v-369h-177v369h-169v161z" />
    <glyph glyph-name="uni0448.ss02" horiz-adv-x="942" 
d="M703 161v369h176v-530h-815v530h175v-369h145v369h174v-369h145z" />
    <glyph glyph-name="uni04570457.liga" horiz-adv-x="609" 
d="M-16.5 601.5q-27.5 24.5 -27.5 65.5q0 42 27.5 67t73.5 25t74 -25t28 -67q0 -40 -28 -65t-74 -25t-73.5 24.5zM231 602q-28 25 -28 65q0 42 28 67t73 25t73.5 -25t28.5 -67q0 -40 -28.5 -65t-73.5 -25t-73 25zM479.5 602q-28.5 25 -28.5 65q0 42 28.5 67t73.5 25t73 -25
t28 -67q0 -40 -28 -65t-73 -25t-73.5 25zM241 0h-177v530h177v-530zM545 0h-177v530h177v-530z" />
    <glyph glyph-name="uni0430.sc" horiz-adv-x="621" 
d="M221 560h179l214 -541v-19h-182l-24 78h-195l-26 -78h-180v19zM253 203h117l-59 153z" />
    <glyph glyph-name="uni0431.sc" horiz-adv-x="565" 
d="M336 355q102 0 153 -46.5t51 -129.5q0 -81 -54 -130t-150 -49h-272v560h427v-142h-257v-63h102zM307 130q29 0 45.5 13t16.5 39q0 25 -17 38t-45 13h-74v-103h74z" />
    <glyph glyph-name="uni0432.sc" horiz-adv-x="575" 
d="M530.5 237.5q19.5 -36.5 19.5 -77.5q0 -73 -52 -116.5t-136 -43.5h-298v560h294q77 0 124 -41t47 -108q0 -34 -14 -64.5t-40 -51.5q36 -21 55.5 -57.5zM239 434v-89h69q48 0 48 44q0 45 -48 45h-69zM318 129q26 0 40 13.5t14 35.5t-14 35t-40 13h-79v-97h79z" />
    <glyph glyph-name="uni0433.sc" horiz-adv-x="461" 
d="M245 0h-181v560h390v-163h-209v-397z" />
    <glyph glyph-name="uni0453.sc" horiz-adv-x="461" 
d="M245 0h-181v560h390v-163h-209v-397zM313 612h-147v8l86 143h178v-8z" />
    <glyph glyph-name="uni0491.sc" horiz-adv-x="460" 
d="M299 560v97h154v-256h-208v-401h-181v560h235z" />
    <glyph glyph-name="uni0434.sc" horiz-adv-x="682" 
d="M588 167h71v-291h-164v124h-312v-124h-165v291h61q19 18 27.5 46.5t13.5 83.5l20 263h448v-393zM300 403l-7 -108q-3 -43 -8.5 -74t-19.5 -59h149v241h-114z" />
    <glyph glyph-name="uni0435.sc" horiz-adv-x="518" 
d="M237 217v-79h238v-138h-411v560h405v-136h-232v-77h214v-130h-214z" />
    <glyph glyph-name="uni0450.sc" horiz-adv-x="518" 
d="M237 217v-79h238v-138h-411v560h405v-136h-232v-77h214v-130h-214zM352 620v-8h-147l-117 143v8h178z" />
    <glyph glyph-name="uni0451.sc" horiz-adv-x="518" 
d="M237 217v-79h238v-138h-411v560h405v-136h-232v-77h214v-130h-214zM73 633q-26 24 -26 62q0 39 26 62.5t67 23.5q42 0 67.5 -23.5t25.5 -62.5q0 -38 -25.5 -62t-67.5 -24q-41 0 -67 24zM325 633q-26 24 -26 62q0 39 26 62.5t67 23.5q42 0 67.5 -23.5t25.5 -62.5
q0 -38 -25.5 -62t-67.5 -24q-41 0 -67 24z" />
    <glyph glyph-name="uni0436.sc" horiz-adv-x="869" 
d="M843 542l-168 -257l183 -266v-19h-199l-136 224v-224h-176v224l-137 -224h-199v19l183 266l-168 257v18h190l131 -228v228h176v-227l129 227h191v-18z" />
    <glyph glyph-name="uni0437.sc" horiz-adv-x="537" 
d="M490 242q22 -34 22 -80q0 -81 -65.5 -127.5t-181.5 -46.5q-118 0 -179 50t-63 140h169q1 -24 21 -37t51 -13t50 13t19 36q0 22 -16 34t-46 12h-76v128h69q60 0 60 42q0 23 -17 35.5t-46 12.5q-30 0 -46 -12.5t-17 -34.5h-161q2 81 60 129.5t167 48.5q107 0 166 -44
t59 -119t-65 -115q44 -18 66 -52z" />
    <glyph glyph-name="uni0438.sc" horiz-adv-x="652" 
d="M233 289l219 271h136v-560h-179v121l13 152l-219 -273h-139v560h179v-145z" />
    <glyph glyph-name="uni0439.sc" horiz-adv-x="652" 
d="M233 289l219 271h136v-560h-179v121l13 152l-219 -273h-139v560h179v-145zM484 615h-307v120h307v-120z" />
    <glyph glyph-name="uni045D.sc" horiz-adv-x="652" 
d="M233 289l219 271h136v-560h-179v121l13 152l-219 -273h-139v560h179v-145zM416 620v-8h-147l-117 143v8h178z" />
    <glyph glyph-name="uni043A.sc" horiz-adv-x="601" 
d="M574 542l-175 -256l191 -267v-19h-202l-144 220v-220h-180v560h180v-223l138 223h192v-18z" />
    <glyph glyph-name="uni045C.sc" horiz-adv-x="601" 
d="M574 542l-175 -256l191 -267v-19h-202l-144 220v-220h-180v560h180v-223l138 223h192v-18zM367 612h-147v8l86 143h178v-8z" />
    <glyph glyph-name="uni043B.sc" horiz-adv-x="680" 
d="M163 560h453v-560h-181v401h-108l-15 -181q-18 -222 -224 -222q-24 0 -56 2v157q8 -1 25 -1q37 0 55 22.5t23 72.5z" />
    <glyph glyph-name="uni043C.sc" horiz-adv-x="775" 
d="M388 334l167 226h156v-560h-182v140l8 138l-115 -148h-69l-115 148l7 -138v-140h-181v560h157z" />
    <glyph glyph-name="uni043D.sc" horiz-adv-x="654" 
d="M409 370v190h181v-560h-181v198h-164v-198h-181v560h181v-190h164z" />
    <glyph glyph-name="uni043E.sc" horiz-adv-x="664" 
d="M176.5 25.5q-68.5 37.5 -107 103.5t-38.5 151t38.5 151t107 103.5t155.5 37.5q88 0 156.5 -37t107 -103.5t38.5 -151.5t-38.5 -151.5t-107 -103.5t-156.5 -37q-87 0 -155.5 37.5zM418.5 190.5q33.5 34.5 33.5 89.5t-33.5 89.5t-86.5 34.5t-86.5 -34.5t-33.5 -89.5
t33.5 -89.5t86.5 -34.5t86.5 34.5z" />
    <glyph glyph-name="uni043F.sc" horiz-adv-x="641" 
d="M245 0h-181v560h513v-560h-180v401h-152v-401z" />
    <glyph glyph-name="uni0440.sc" horiz-adv-x="557" 
d="M311 560q106 0 168 -56t62 -152t-62 -152t-168 -56h-66v-144h-181v560h247zM307 287q29 0 46 17.5t17 45.5t-17.5 45t-45.5 17h-68v-125h68z" />
    <glyph glyph-name="uni0441.sc" horiz-adv-x="652" 
d="M175 25q-68 37 -106 103.5t-38 151.5t38 151.5t106 103.5t155 37q118 0 198 -66t97 -178h-176q-12 36 -42.5 56.5t-71.5 20.5q-54 0 -87.5 -34.5t-33.5 -90.5t33.5 -90.5t87.5 -34.5q43 0 73.5 22.5t42.5 58.5h175q-10 -75 -50 -131t-103.5 -86.5t-142.5 -30.5
q-87 0 -155 37z" />
    <glyph glyph-name="uni0442.sc" horiz-adv-x="534" 
d="M20 560h493v-156h-155v-404h-182v404h-156v156z" />
    <glyph glyph-name="uni0443.sc" horiz-adv-x="583" 
d="M342 447l51 113h182v-18l-256 -542h-185v19l71 142l-196 381v18h185l57 -114l47 -107z" />
    <glyph glyph-name="uni045E.sc" horiz-adv-x="583" 
d="M342 447l51 113h182v-18l-256 -542h-185v19l71 142l-196 381v18h185l57 -114l47 -107zM448 615h-307v120h307v-120z" />
    <glyph glyph-name="uni0444.sc" horiz-adv-x="738" 
d="M648 112q-71 -63 -191 -68v-60h-175v60q-124 4 -194 67.5t-70 169.5q0 68 32.5 120t92 82.5t139.5 33.5v60h175v-60q78 -3 137.5 -33t92 -82.5t32.5 -120.5q0 -106 -71 -169zM451 189q47 2 72 27t25 65q0 41 -26 65t-71 26v-183zM215.5 216.5q25.5 -24.5 71.5 -27.5v183
q-45 -2 -71 -25.5t-26 -65.5q0 -40 25.5 -64.5z" />
    <glyph glyph-name="uni0445.sc" horiz-adv-x="623" 
d="M597 541l-168 -254l180 -269v-18h-194l-72 110l-32 51l-32 -51l-72 -110h-193v19l180 267l-167 256v18h189l61 -95l34 -59l35 59l61 95h190v-19z" />
    <glyph glyph-name="uni0447.sc" horiz-adv-x="603" 
d="M358 560h182v-560h-182v175q-40 -10 -84 -10q-111 0 -175.5 58.5t-64.5 161.5v175h181v-158q0 -73 78 -73q29 0 65 12v219z" />
    <glyph glyph-name="uni0446.sc" horiz-adv-x="678" 
d="M575 560v-393h80v-291h-164v124h-427v560h181v-397h150v397h180z" />
    <glyph glyph-name="uni0448.sc" horiz-adv-x="929" 
d="M686 161v399h179v-560h-801v560h179v-399h135v399h173v-399h135z" />
    <glyph glyph-name="uni0449.sc" horiz-adv-x="968" 
d="M865 560v-390h80v-294h-165v124h-716v560h179v-394h135v394h173v-394h135v394h179z" />
    <glyph glyph-name="uni045F.sc" horiz-adv-x="639" 
d="M395 560h180v-560h-169v-124h-172v124h-170v560h181v-399h150v399z" />
    <glyph glyph-name="uni044C.sc" horiz-adv-x="563" 
d="M324 398q106 0 162 -53t56 -146t-56.5 -146t-161.5 -53h-260v560h181v-162h79zM303 144q34 0 52 14.5t18 42.5t-18.5 42.5t-51.5 14.5h-64v-114h64z" />
    <glyph glyph-name="uni044A.sc" horiz-adv-x="670" 
d="M429 398q107 0 163.5 -52.5t56.5 -145.5q0 -94 -56.5 -147t-163.5 -53h-258v400h-129v160h310v-162h77zM409 144q34 0 52.5 14.5t18.5 42.5t-18 42.5t-53 14.5h-62v-114h62z" />
    <glyph glyph-name="uni044B.sc" horiz-adv-x="839" 
d="M318 398q109 0 165.5 -52.5t56.5 -146.5q0 -92 -57 -145.5t-165 -53.5h-254v560h181v-162h73zM594 0v560h181v-560h-181zM302 144q34 0 52.5 14.5t18.5 42.5t-19 42.5t-52 14.5h-63v-114h63z" />
    <glyph glyph-name="uni0459.sc" horiz-adv-x="927" 
d="M687 398q106 0 162.5 -53t56.5 -145q0 -94 -56.5 -147t-162.5 -53h-259v401h-107l-16 -187q-10 -109 -65.5 -162.5t-160.5 -53.5q-40 0 -58 2v151q8 -1 27 -1q36 0 56 23t24 72l30 315h451v-162h78zM666 144q33 0 52 14.5t19 42.5t-19 42.5t-52 14.5h-63v-114h63z" />
    <glyph glyph-name="uni045A.sc" horiz-adv-x="903" 
d="M661 393q106 0 163.5 -52.5t57.5 -143.5q0 -92 -58 -144.5t-163 -52.5h-254v204h-162v-204h-181v560h181v-185h162v185h181v-167h73zM643 144q69 0 69 55q0 54 -69 54h-60v-109h60z" />
    </font>
</defs>
</svg>
